<svg width="80" height="99" viewBox="0 0 80 99" fill="none" xmlns="http://www.w3.org/2000/svg">
<path d="M44.1531 70.1209H43.6945L45.8037 58.9746C46.0381 57.734 45.5714 56.4673 44.5875 55.6753L33.3886 46.6746L23.8989 51.4446L39.084 61.0959L36.8838 74.0445H48.0767C48.0767 71.8766 46.3189 70.1209 44.1531 70.1209Z" fill="url(#paint0_linear_258_3885)"/>
<path d="M44.1531 69.3915H43.6945L44.3976 70.3148C45.0966 66.6216 45.8825 62.9344 46.4947 59.225C46.8725 56.936 45.6421 55.5944 44.0319 54.2994L38.3769 49.7536L33.9038 46.1573C33.633 45.9391 33.3361 45.8846 33.0209 46.0442L23.5312 50.8143C23.0201 51.0708 23.0968 51.7962 23.5312 52.0729L38.7163 61.7242L38.3809 60.9019L36.1807 73.8505C36.1019 74.3091 36.3727 74.7738 36.8838 74.7738H48.0767C48.4585 74.7738 48.8222 74.4404 48.806 74.0444C48.6949 71.4341 46.7634 69.5026 44.1531 69.3915C43.2156 69.3511 43.2177 70.8098 44.1531 70.8482C45.9492 70.925 47.2725 72.2483 47.3473 74.0424L48.0767 73.3131H36.8838L37.5869 74.2364L39.7871 61.2878C39.8437 60.9545 39.7467 60.6514 39.4517 60.4655L24.2666 50.8143V52.0729L33.7563 47.3029L32.8734 47.1897L42.0681 54.5802C43.448 55.6894 45.3552 56.7562 45.0966 58.8068C44.8724 60.5827 44.4238 62.3607 44.0925 64.1184L42.9934 69.9269C42.9065 70.3855 43.1914 70.8502 43.6965 70.8502H44.1551C45.0926 70.8502 45.0946 69.3936 44.1551 69.3936L44.1531 69.3915Z" fill="#182955"/>
<path d="M5.20243 85.8191H22.3149C24.7838 85.8191 26.788 87.8233 26.788 90.2922V98.2686H0.72934V90.2922C0.72934 87.8233 2.73354 85.8191 5.20243 85.8191Z" fill="url(#paint1_linear_258_3885)"/>
<path d="M22.3634 85.0917H9.4735C7.93398 85.0917 6.36012 84.9947 4.82262 85.1038C1.6466 85.3281 0 87.997 0 90.9306V98.2706C0 98.6645 0.333361 98.9999 0.729352 98.9999H26.788C27.182 98.9999 27.5174 98.6666 27.5174 98.2706V91.2397C27.5174 90.1245 27.5053 89.0496 27.0062 88.0132C26.1355 86.2029 24.3373 85.1665 22.3634 85.0937C21.426 85.0594 21.426 86.5161 22.3634 86.5504C24.4384 86.6272 25.9738 88.1788 26.0587 90.2497C26.087 90.9629 26.0587 91.6842 26.0587 92.3974V98.2706L26.788 97.5412H0.729352L1.4587 98.2706V92.1852C1.4587 91.4882 1.42032 90.777 1.46477 90.08C1.59609 88.0617 3.17602 86.6292 5.16608 86.5504C9.22904 86.3868 13.3304 86.5504 17.3954 86.5504H22.3655C23.3029 86.5504 23.3049 85.0937 22.3655 85.0937L22.3634 85.0917Z" fill="#182955"/>
<path d="M31.35 74.2H48.2868C50.8041 74.2 52.8488 76.2446 52.8488 78.7619V98.2686H26.788V78.7619C26.788 76.2446 28.8327 74.2 31.35 74.2Z" fill="url(#paint2_linear_258_3885)"/>
<path d="M48.4242 73.4706C42.759 73.4706 37.0899 73.412 31.4248 73.4706C29.5863 73.4888 27.8912 74.2707 26.8729 75.8466C26.1435 76.976 26.0607 78.2084 26.0607 79.4954V98.2686C26.0607 98.6626 26.3941 98.998 26.7901 98.998H52.8488C53.2427 98.998 53.5781 98.6646 53.5781 98.2686C53.5781 91.759 53.7478 85.2271 53.5781 78.7195C53.5013 75.8041 51.3577 73.5777 48.4262 73.4706C47.4887 73.4363 47.4887 74.893 48.4262 74.9273C50.792 75.0142 52.1113 76.8527 52.1214 79.0731C52.1275 80.4328 52.1214 81.7925 52.1214 83.1522V98.2666L52.8508 97.5372H26.788L27.5174 98.2666V80.9177C27.5174 80.1601 27.4871 79.3943 27.5174 78.6367C27.6043 76.483 29.1903 74.992 31.3217 74.9253C34.1078 74.8404 36.9101 74.9253 39.6982 74.9253H48.4242C49.3616 74.9253 49.3636 73.4686 48.4242 73.4686V73.4706Z" fill="#182955"/>
<path d="M57.2673 60.8938H74.4869C76.9275 60.8938 78.9075 62.8738 78.9075 65.3144V98.2686H52.8488V65.3144C52.8488 62.8738 54.8287 60.8938 57.2693 60.8938H57.2673Z" fill="url(#paint3_linear_258_3885)"/>
<path d="M74.4829 60.1666H62.9163C61.1262 60.1666 59.3362 60.1504 57.5461 60.1666C54.952 60.1909 52.6346 61.8112 52.1921 64.472C52.0386 65.3933 52.1174 66.3813 52.1174 67.3086V98.2687C52.1174 98.6627 52.4508 98.9981 52.8468 98.9981H78.9054C79.2994 98.9981 79.6348 98.6647 79.6348 98.2687V66.4803C79.6348 65.8762 79.6631 65.264 79.5863 64.6639C79.259 62.0577 77.0447 60.2595 74.4808 60.1646C73.5434 60.1302 73.5434 61.5869 74.4808 61.6213C76.6143 61.7001 78.1054 63.2962 78.1761 65.4014C78.1923 65.8984 78.1761 66.3994 78.1761 66.8965V98.2687L78.9054 97.5394H52.8468L53.5761 98.2687V75.7436C53.5761 72.3878 53.5559 69.03 53.5761 65.6741C53.5902 63.4497 54.9964 61.7102 57.3118 61.6233C58.7341 61.5687 60.1686 61.6233 61.5909 61.6233H74.4829C75.4203 61.6233 75.4223 60.1666 74.4829 60.1666Z" fill="#182955"/>
<path d="M58.2876 60.8939V12.1101C58.2876 11.1726 56.8309 11.1706 56.8309 12.1101V60.8939C56.8309 61.8313 58.2876 61.8334 58.2876 60.8939Z" fill="#182955"/>
<path d="M57.5582 13.6737H78.9074L73.0767 7.20048L78.9074 0.729248H57.5582V13.6737Z" fill="url(#paint4_linear_258_3885)"/>
<path d="M57.5582 14.4012H78.9054C79.5621 14.4012 79.8348 13.6173 79.4206 13.1566L73.5899 6.68539V7.71578L79.4206 1.24455C79.8348 0.785923 79.56 0 78.9054 0H57.5582C57.1643 0 56.8289 0.333361 56.8289 0.729352V13.6738C56.8289 14.6113 58.2856 14.6133 58.2856 13.6738V0.729352L57.5562 1.4587H78.9034L78.3882 0.214159L72.5574 6.68539C72.2827 6.98845 72.2827 7.41071 72.5574 7.71578L78.3882 14.187L78.9034 12.9425H57.5562C56.6188 12.9425 56.6168 14.3992 57.5562 14.3992L57.5582 14.4012Z" fill="#182955"/>
<path d="M31.2237 23.8443C30.6254 21.1231 27.9344 19.4021 25.2132 20.0004C22.492 20.5987 20.7711 23.2897 21.3694 26.0109L21.6388 27.2363C22.2371 29.9575 24.9281 31.6785 27.6493 31.0802C30.3705 30.4819 32.0914 27.7909 31.4931 25.0697L31.2237 23.8443Z" fill="url(#paint5_linear_258_3885)"/>
<path d="M27.4548 30.3782C25.4081 30.8287 23.2282 29.6185 22.515 27.6507C21.9392 26.0667 21.7028 24.208 22.6019 22.7069C23.6929 20.8865 26.0304 20.1107 27.9861 20.9572C28.9397 21.3694 29.7115 22.1109 30.1762 23.0362C30.5075 23.6968 30.6187 24.4727 30.7722 25.1899C31.2773 27.5537 29.7903 29.8246 27.4528 30.3782C26.5395 30.5944 26.9275 32.0006 27.8407 31.7844C30.5439 31.1459 32.534 28.576 32.3218 25.7738C32.1521 23.5271 31.3016 21.2461 29.3135 20.0157C26.9759 18.5692 23.7918 19.0177 21.9816 21.1027C21.0947 22.125 20.5694 23.414 20.5249 24.7697C20.4946 25.6667 20.733 26.5637 20.935 27.4325C21.6523 30.4994 24.7636 32.4612 27.8427 31.7844C28.7579 31.5823 28.37 30.1782 27.4548 30.3782Z" fill="#182955"/>
<path d="M59.6109 20.8804C59.3907 20.3187 58.7321 20.0622 58.1664 20.2763L29.5701 31.0752C26.0203 31.8187 23.3474 34.7543 22.9352 38.3566L21.2038 53.5033L33.926 47.1088L33.53 36.4251L56.5683 27.7254C59.3079 26.691 60.6797 23.616 59.6109 20.8804Z" fill="url(#paint6_linear_258_3885)"/>
<path d="M60.2393 20.5127C59.4331 19.0863 58.1441 19.5086 56.946 19.9612L52.3032 21.7148L38.2395 27.0264C35.316 28.1315 32.4067 29.3781 29.4367 30.3519C26.6971 31.251 24.4 32.5763 23.0908 35.2897C22.3048 36.9201 22.1755 38.6556 21.9735 40.4174L20.4784 53.5033C20.4118 54.0953 21.135 54.3539 21.5755 54.1316L34.2977 47.7372C34.5159 47.6281 34.6675 47.3493 34.6594 47.1088L34.2634 36.4251L33.728 37.1282C41.3306 34.2573 48.9575 31.4469 56.5359 28.5154C59.7281 27.2789 61.4979 24.01 60.318 20.6885C60.0069 19.8117 58.5967 20.1895 58.9119 21.0764C59.8877 23.8201 58.4351 26.2465 55.8348 27.2284L51.0951 29.0185L36.898 34.3805L33.3401 35.7241C33.0451 35.8352 32.7926 36.0877 32.8047 36.4272L33.2007 47.1108L33.5623 46.4825L20.8401 52.877L21.9371 53.5053L23.1615 42.7913C23.3271 41.3366 23.4645 39.8739 23.6605 38.4213C24.1353 34.9119 26.5335 32.7824 29.7661 31.7823C32.0713 31.0691 34.326 30.061 36.5828 29.2084L49.9212 24.1716L55.9864 21.8805C56.4228 21.7148 58.5603 20.5006 58.9846 21.2522C59.4473 22.0684 60.706 21.335 60.2433 20.5168L60.2393 20.5127Z" fill="#182955"/>
<path d="M21.2058 53.5033L21.5028 64.8295C21.5351 66.0579 21.1694 67.264 20.4623 68.2681L8.49565 85.2615H23.0423C23.0423 83.1461 21.3654 81.4349 19.2703 81.352L28.9195 69.8117C29.6287 68.9106 30.0711 67.8297 30.2005 66.6882L32.3097 47.917L21.2058 53.4993V53.5033Z" fill="url(#paint7_linear_258_3885)"/>
<path d="M20.4764 53.5034L20.6562 60.3727C20.7209 62.8436 21.2442 65.7772 19.8057 67.939C17.0539 72.0726 14.0779 76.075 11.2191 80.1339L7.86732 84.8959C7.54002 85.3606 7.98046 85.993 8.49565 85.993H23.0423C23.4241 85.993 23.7878 85.6596 23.7716 85.2636C23.6646 82.7038 21.8119 80.8309 19.2723 80.6269L19.7875 81.8714C22.9635 78.0711 26.2042 74.3173 29.3216 70.4685C30.7742 68.6724 30.9339 66.6601 31.1783 64.4882L32.239 55.0409L33.0391 47.9212C33.1057 47.3292 32.3825 47.0706 31.942 47.2928L20.8381 52.8751C19.9996 53.2974 20.7371 54.554 21.5735 54.1338L32.6774 48.5515L31.5804 47.9232L29.8792 63.0557C29.6449 65.1387 29.6933 67.5975 28.374 69.335C26.9214 71.2483 25.2748 73.0424 23.7353 74.883L18.7551 80.839C18.3389 81.338 18.6197 82.031 19.2703 82.0835C20.9977 82.2229 22.2402 83.5382 22.3129 85.2636L23.0423 84.5343H8.49565L9.12399 85.6313L17.4822 73.7617C18.6601 72.0908 19.8602 70.4321 21.0138 68.7451C22.4928 66.5833 22.2119 64.2094 22.1473 61.7506L21.9311 53.5055C21.9068 52.57 20.4481 52.566 20.4744 53.5055L20.4764 53.5034Z" fill="#182955"/>
<defs>
<linearGradient id="paint0_linear_258_3885" x1="31.5864" y1="48.3434" x2="44.7754" y2="72.8363" gradientUnits="userSpaceOnUse">
<stop stop-color="#1F3345"/>
<stop offset="0.95" stop-color="#204584"/>
</linearGradient>
<linearGradient id="paint1_linear_258_3885" x1="1.80417" y1="82.3521" x2="23.9676" y2="102.643" gradientUnits="userSpaceOnUse">
<stop stop-color="#FDB890"/>
<stop offset="1" stop-color="#FDC25D"/>
</linearGradient>
<linearGradient id="paint2_linear_258_3885" x1="26.2567" y1="97.7251" x2="52.378" y2="77.8104" gradientUnits="userSpaceOnUse">
<stop stop-color="#FBB890"/>
<stop offset="1" stop-color="#546AF1"/>
</linearGradient>
<linearGradient id="paint3_linear_258_3885" x1="46.0704" y1="62.6879" x2="82.7219" y2="96.2381" gradientUnits="userSpaceOnUse">
<stop offset="0.28" stop-color="#546AF1"/>
<stop offset="0.97" stop-color="#546AF1"/>
</linearGradient>
<linearGradient id="paint4_linear_258_3885" x1="54.4307" y1="15.2052" x2="80.1762" y2="0.272646" gradientUnits="userSpaceOnUse">
<stop stop-color="#FBB890"/>
<stop offset="1" stop-color="#546AF1"/>
</linearGradient>
<linearGradient id="paint5_linear_258_3885" x1="21.5301" y1="26.742" x2="31.3845" y2="24.5754" gradientUnits="userSpaceOnUse">
<stop stop-color="#FBAFE7"/>
<stop offset="1" stop-color="#FCACE6"/>
</linearGradient>
<linearGradient id="paint6_linear_258_3885" x1="51.4527" y1="16.3427" x2="23.3009" y2="56.255" gradientUnits="userSpaceOnUse">
<stop stop-color="#E6E8FD"/>
<stop offset="1" stop-color="#E3E8FD"/>
</linearGradient>
<linearGradient id="paint7_linear_258_3885" x1="4.08519" y1="89.1769" x2="37.2192" y2="52.8164" gradientUnits="userSpaceOnUse">
<stop stop-color="#FBB890"/>
<stop offset="1" stop-color="#546AF1"/>
</linearGradient>
</defs>
</svg>
