<svg width="38" height="38" viewBox="0 0 38 38" fill="none" xmlns="http://www.w3.org/2000/svg">
<path d="M9 15H29M9 23H19M9 1V5M29 1V5M7.4 37H30.6C32.8402 37 33.9604 37 34.816 36.564C35.5686 36.1806 36.1806 35.5686 36.564 34.816C37 33.9604 37 32.8402 37 30.6V11.4C37 9.15978 37 8.03968 36.564 7.18404C36.1806 6.43138 35.5686 5.81946 34.816 5.43598C33.9604 5 32.8402 5 30.6 5H7.4C5.1598 5 4.03968 5 3.18404 5.43598C2.43138 5.81946 1.81946 6.43138 1.43598 7.18404C1 8.03968 1 9.15978 1 11.4V30.6C1 32.8402 1 33.9604 1.43598 34.816C1.81946 35.5686 2.43138 36.1806 3.18404 36.564C4.03968 37 5.15978 37 7.4 37Z" stroke="black" stroke-width="2" stroke-linecap="round" stroke-linejoin="round"/>
</svg>
