<svg width="111" height="131" viewBox="0 0 111 131" fill="none" xmlns="http://www.w3.org/2000/svg">
<g clip-path="url(#clip0_219_78)">
<path d="M103.479 51.0363C97.9517 41.9451 89.6528 34.5843 79.922 30.2347C73.361 27.3025 66.2488 25.7614 59.097 25.6404C58.8333 25.6325 58.5749 25.6115 58.3085 25.6115C58.1424 25.6115 57.9789 25.6247 57.8127 25.6299C54.4768 25.6536 51.1409 25.9849 47.8525 26.6345C26.3735 30.8842 9.26673 48.7299 6.01784 70.3336C5.61965 72.9739 5.42186 75.6352 5.41132 78.3045C5.44824 89.2444 8.84479 100.026 15.2476 108.926C21.4579 117.562 30.2157 124.218 40.234 127.852C45.5055 129.767 50.9853 130.769 56.4546 130.924C57.0691 130.968 57.6862 130.995 58.3085 130.997C59.1603 130.992 59.9962 130.94 60.8216 130.866C75.4337 130.085 89.5737 123.324 99.0962 111.732C113.12 94.6591 114.966 69.9365 103.476 51.0336L103.479 51.0363Z" fill="#182955"/>
<path d="M52.8419 126.311C81.6003 126.311 104.914 103.062 104.914 74.3836C104.914 45.7047 81.6003 22.4559 52.8419 22.4559C24.0834 22.4559 0.770081 45.7047 0.770081 74.3836C0.770081 103.062 24.0834 126.311 52.8419 126.311Z" fill="url(#paint0_linear_219_78)"/>
<path d="M1.53742 74.3833C1.60862 53.1373 15.1527 33.6032 35.2314 26.3135C45.3341 22.6449 56.5206 22.2347 66.8658 25.159C76.8261 27.9755 85.7763 33.8452 92.3848 41.7845C106.156 58.3311 107.909 82.5041 96.7387 100.881C85.6049 119.195 63.5616 128.825 42.5097 124.512C21.777 120.26 5.41657 103.145 2.14131 82.2937C1.72993 79.677 1.54533 77.0315 1.53742 74.3833C1.53478 73.3971 -0.00263369 73.3945 3.38859e-06 74.3833C0.0369225 85.3232 3.43348 96.1053 9.83631 105.004C16.0466 113.641 24.8044 120.297 34.8227 123.931C55.6345 131.486 79.6636 124.88 93.6876 107.81C107.712 90.7379 109.558 66.0153 98.0678 47.1124C92.5404 38.0213 84.2442 30.6605 74.5107 26.3109C64.4977 21.835 53.2057 20.5779 42.4412 22.7081C20.9622 26.963 3.85542 44.8114 0.606532 66.4124C0.208333 69.0527 0.00791463 71.7141 3.38859e-06 74.3833C-0.00263369 75.3695 1.53478 75.3721 1.53742 74.3833Z" fill="#182955"/>
<path d="M52.8972 125.546C34.5405 125.446 22.6394 107.855 18.4675 91.8504C13.5599 73.0212 16.4369 50.2315 29.443 35.0997C35.3765 28.1965 43.5989 23.2709 52.8972 23.221C53.8861 23.2157 53.8888 21.6826 52.8972 21.6878C33.9762 21.7904 21.5054 39.5782 17.0804 56.1406C11.8563 75.7035 14.9259 99.3611 28.5675 114.995C34.7409 122.072 43.3273 127.026 52.8946 127.079C53.8835 127.084 53.8861 125.551 52.8946 125.546H52.8972Z" fill="#182955"/>
<path d="M52.8971 125.546C47.8049 125.483 44.4928 119.915 42.5334 115.931C38.8494 108.447 37.0905 99.9606 36.0409 91.7425C34.7303 81.4785 34.6169 71.0199 35.6243 60.7243C36.4681 52.1065 38.0609 43.3151 41.4179 35.2864C43.3562 30.6527 46.9426 23.2919 52.8971 23.2183C53.886 23.2052 53.8887 21.672 52.8971 21.6851C47.5359 21.7535 43.8968 26.8947 41.6632 31.155C37.6495 38.8077 35.7719 47.5727 34.6274 56.0669C33.1612 66.9305 33.032 78.0203 34.1739 88.9208C35.11 97.8568 36.8189 106.958 40.5029 115.211C42.7233 120.186 46.6235 127 52.8971 127.079C53.886 127.092 53.8887 125.559 52.8971 125.546V125.546Z" fill="#182955"/>
<path d="M52.8972 127.079C71.8182 126.976 84.289 109.189 88.714 92.6262C93.9381 73.0633 90.8685 49.4057 77.2269 33.7717C71.0535 26.6949 62.4672 21.7404 52.8998 21.6878C51.9109 21.6826 51.9083 23.2157 52.8998 23.221C71.2566 23.3209 83.1577 40.9115 87.3296 56.9164C92.2372 75.7456 89.3601 98.5353 76.354 113.667C70.4206 120.57 62.1982 125.496 52.8998 125.546C51.9109 125.551 51.9083 127.084 52.8998 127.079H52.8972Z" fill="#182955"/>
<path d="M52.8972 127.079C58.2584 127.011 61.8976 121.869 64.1312 117.609C68.1448 109.956 70.0224 101.191 71.1669 92.6972C72.6331 81.8335 72.7623 70.7437 71.6205 59.8433C70.6843 50.9073 68.9755 41.8056 65.2915 33.5534C63.0711 28.5778 59.1708 21.764 52.8972 21.6851C51.9083 21.672 51.9057 23.2052 52.8972 23.2183C57.9894 23.2814 61.3016 28.8487 63.2609 32.8328C66.9449 40.3172 68.7039 48.8035 69.7534 57.0215C71.0641 67.2856 71.1775 77.7442 70.1701 88.0398C69.3262 96.6576 67.7334 105.449 64.3764 113.478C62.4382 118.111 58.8517 125.472 52.8972 125.546C51.9083 125.559 51.9057 127.092 52.8972 127.079V127.079Z" fill="#182955"/>
<path d="M0.184631 75.1566C0.237373 81.9703 4.549 87.6296 9.75196 91.6479C16.9275 97.1863 25.8909 100.303 34.7093 102.043C45.4132 104.158 56.5417 104.337 67.3221 102.683C76.4727 101.281 85.7764 98.4985 93.5505 93.352C99.7819 89.2259 105.436 83.0223 105.499 75.1566C105.507 74.1704 103.97 74.1678 103.962 75.1566C103.909 81.7231 99.5024 87.13 94.4312 90.8722C87.4193 96.0423 78.8514 98.9482 70.3679 100.602C60.0859 102.609 49.3372 102.798 38.9787 101.234C30.1234 99.8976 21.1811 97.2914 13.5784 92.4579C7.54209 88.6237 1.78534 82.7356 1.72732 75.1539C1.71941 74.1678 0.181994 74.1651 0.189906 75.1539H0.184631V75.1566Z" fill="#182955"/>
<path d="M9.46445 45.0877C9.52774 49.9396 13.4491 53.5424 17.3071 55.9118C23.4753 59.7014 30.8169 61.5922 37.9106 62.6941C46.7871 64.0747 55.9034 64.2036 64.8168 63.1043C72.2217 62.1918 79.769 60.4982 86.4197 57.019C90.974 54.6364 96.1479 50.7285 96.2191 45.0877C96.2323 44.1015 94.6949 44.0989 94.6817 45.0877C94.6237 49.6687 90.4756 52.9481 86.8417 55.0388C80.8687 58.4759 73.9226 60.2142 67.1559 61.2477C58.7726 62.5284 50.152 62.6309 41.7291 61.6737C34.6169 60.8664 27.3333 59.2964 20.8751 56.1196C16.5898 54.0131 11.0678 50.4577 10.9992 45.0877C10.986 44.1015 9.44863 44.0989 9.46182 45.0877H9.46445Z" fill="#182955"/>
<path d="M52.0718 22.4557V122.098C52.0718 123.424 51.9611 124.804 52.0718 126.127C52.0771 126.187 52.0718 126.251 52.0718 126.311C52.0718 127.297 53.6092 127.3 53.6092 126.311V26.6686C53.6092 25.3432 53.72 23.9626 53.6092 22.6398C53.6039 22.5793 53.6092 22.5162 53.6092 22.4557C53.6092 21.4695 52.0718 21.4669 52.0718 22.4557Z" fill="#182955"/>
<path d="M88.0679 30.979C85.7394 32.0966 84.9061 33.1564 84.0648 36.1517C84.0016 36.3805 83.6746 36.3805 83.6113 36.1517C82.7727 33.1564 81.9394 32.0966 79.6082 30.979C79.4289 30.8922 79.4289 30.6397 79.6082 30.5529C81.9367 29.4353 82.77 28.3755 83.6113 25.3802C83.6746 25.1514 84.0016 25.1514 84.0648 25.3802C84.9034 28.3755 85.7368 29.4353 88.0679 30.5529C88.2473 30.6397 88.2473 30.8922 88.0679 30.979Z" fill="url(#paint1_linear_219_78)"/>
<path d="M87.6803 30.3162C86.6387 30.8211 85.6498 31.4417 84.9298 32.3621C84.5633 32.8302 84.2758 33.3352 84.0411 33.8795C83.9014 34.2004 83.7748 34.5264 83.6614 34.8578C83.6113 35.0051 83.5638 35.1523 83.5164 35.3022C83.4847 35.4074 83.4531 35.5126 83.4214 35.6178C83.3133 35.865 83.3845 35.8545 83.6377 35.5863H84.0464C84.2969 35.8571 84.3681 35.8676 84.2626 35.6178C84.231 35.5126 84.1994 35.4074 84.1677 35.3022C84.1203 35.1523 84.0728 35.0051 84.0227 34.8578C83.9093 34.5264 83.7827 34.2004 83.6429 33.8795C83.4056 33.3352 83.1182 32.8302 82.7542 32.3621C82.4114 31.923 82.0132 31.5574 81.5649 31.2261C81.3539 31.0709 81.1324 30.9263 80.9083 30.7922C80.7764 30.7133 80.6419 30.6396 80.5074 30.5686C80.1673 30.3872 80.1356 30.2268 80.1356 30.7659C80.1356 31.305 80.1673 31.1419 80.5074 30.9631C80.6235 30.9 80.7395 30.8369 80.8529 30.7711C81.0982 30.6291 81.3355 30.474 81.5649 30.3056C82.0132 29.9743 82.4114 29.6088 82.7542 29.1696C83.1208 28.7015 83.4082 28.1966 83.6429 27.6522C83.7827 27.3314 83.9093 27.0053 84.0227 26.6739C84.0728 26.5266 84.1203 26.3794 84.1677 26.2295C84.1994 26.1243 84.231 26.0191 84.2626 25.9139C84.3708 25.6667 84.2996 25.6772 84.0464 25.9455H83.6377C83.3871 25.6746 83.3159 25.6641 83.4214 25.9139C83.4531 26.0191 83.4847 26.1243 83.5164 26.2295C83.5638 26.3794 83.6113 26.5266 83.6614 26.6739C83.7748 27.0053 83.9014 27.3314 84.0411 27.6522C84.2785 28.1966 84.5659 28.7015 84.9298 29.1696C85.2727 29.6088 85.6709 29.9743 86.1192 30.3056C86.3486 30.474 86.5859 30.6291 86.8312 30.7711C86.9446 30.8369 87.0606 30.9 87.1766 30.9631C87.2584 31.0052 87.3401 31.0472 87.4219 31.0893C87.7225 31.2839 87.7568 31.0683 87.5247 30.4371C87.1977 30.6975 87.2557 31.2497 87.5247 31.5206C87.8412 31.8441 88.2895 31.7783 88.6112 31.5206C89.2098 31.042 88.983 30.2083 88.3897 29.8586C87.9229 29.5825 87.4298 29.3721 86.9894 29.0486C86.2536 28.5095 85.7473 27.7679 85.394 26.9369C85.1382 26.3373 85.0274 25.6772 84.769 25.0855C84.4894 24.4439 83.6377 24.2124 83.1208 24.7437C82.8808 24.9882 82.8254 25.3538 82.7279 25.6667C82.6303 25.9797 82.5275 26.3005 82.4114 26.6108C82.2347 27.0842 82.0159 27.5391 81.7363 27.9625C81.2142 28.7514 80.431 29.2721 79.6029 29.7008C79.0043 30.0111 78.3872 30.5634 78.8593 31.2971C79.1573 31.7599 79.8825 31.9598 80.3387 32.2491C81.1298 32.7487 81.7073 33.4088 82.1213 34.2451C82.3771 34.7631 82.5617 35.3154 82.7279 35.865C82.9256 36.5172 83.2368 37.2746 84.0912 37.0537C84.8745 36.8512 84.943 35.8413 85.1672 35.1944C85.3597 34.6422 85.5917 34.1083 85.9108 33.6165C86.5174 32.6777 87.472 32.1176 88.4556 31.6389C89.3443 31.2077 88.5664 29.8849 87.6803 30.3135V30.3162Z" fill="#FDB98C"/>
<path d="M87.6803 30.3162C86.6387 30.8211 85.6498 31.4417 84.9298 32.3621C84.5633 32.8302 84.2758 33.3352 84.0411 33.8795C83.9014 34.2004 83.7748 34.5264 83.6614 34.8578C83.6113 35.0051 83.5638 35.1523 83.5164 35.3022C83.4847 35.4074 83.4531 35.5126 83.4214 35.6178C83.3133 35.865 83.3845 35.8545 83.6377 35.5863H84.0464C84.2969 35.8571 84.3681 35.8676 84.2626 35.6178C84.231 35.5126 84.1994 35.4074 84.1677 35.3022C84.1203 35.1523 84.0728 35.0051 84.0227 34.8578C83.9093 34.5264 83.7827 34.2004 83.6429 33.8795C83.4056 33.3352 83.1182 32.8302 82.7542 32.3621C82.4114 31.923 82.0132 31.5574 81.5649 31.2261C81.3539 31.0709 81.1324 30.9263 80.9083 30.7922C80.7764 30.7133 80.6419 30.6396 80.5074 30.5686C80.1673 30.3872 80.1356 30.2268 80.1356 30.7659C80.1356 31.305 80.1673 31.1419 80.5074 30.9631C80.6235 30.9 80.7395 30.8369 80.8529 30.7711C81.0982 30.6291 81.3355 30.474 81.5649 30.3056C82.0132 29.9743 82.4114 29.6088 82.7542 29.1696C83.1208 28.7015 83.4082 28.1966 83.6429 27.6522C83.7827 27.3314 83.9093 27.0053 84.0227 26.6739C84.0728 26.5266 84.1203 26.3794 84.1677 26.2295C84.1994 26.1243 84.231 26.0191 84.2626 25.9139C84.3708 25.6667 84.2996 25.6772 84.0464 25.9455H83.6377C83.3871 25.6746 83.3159 25.6641 83.4214 25.9139C83.4531 26.0191 83.4847 26.1243 83.5164 26.2295C83.5638 26.3794 83.6113 26.5266 83.6614 26.6739C83.7748 27.0053 83.9014 27.3314 84.0411 27.6522C84.2785 28.1966 84.5659 28.7015 84.9298 29.1696C85.2727 29.6088 85.6709 29.9743 86.1192 30.3056C86.3486 30.474 86.5859 30.6291 86.8312 30.7711C86.9446 30.8369 87.0606 30.9 87.1766 30.9631C87.2584 31.0052 87.3401 31.0472 87.4219 31.0893C87.7225 31.2839 87.7568 31.0683 87.5247 30.4371C87.1977 30.6975 87.2557 31.2497 87.5247 31.5206C87.8412 31.8441 88.2895 31.7783 88.6112 31.5206C89.2098 31.042 88.983 30.2083 88.3897 29.8586C87.9229 29.5825 87.4298 29.3721 86.9894 29.0486C86.2536 28.5095 85.7473 27.7679 85.394 26.9369C85.1382 26.3373 85.0274 25.6772 84.769 25.0855C84.4894 24.4439 83.6377 24.2124 83.1208 24.7437C82.8808 24.9882 82.8254 25.3538 82.7279 25.6667C82.6303 25.9797 82.5275 26.3005 82.4114 26.6108C82.2347 27.0842 82.0159 27.5391 81.7363 27.9625C81.2142 28.7514 80.431 29.2721 79.6029 29.7008C79.0043 30.0111 78.3872 30.5634 78.8593 31.2971C79.1573 31.7599 79.8825 31.9598 80.3387 32.2491C81.1298 32.7487 81.7073 33.4088 82.1213 34.2451C82.3771 34.7631 82.5617 35.3154 82.7279 35.865C82.9256 36.5172 83.2368 37.2746 84.0912 37.0537C84.8745 36.8512 84.943 35.8413 85.1672 35.1944C85.3597 34.6422 85.5917 34.1083 85.9108 33.6165C86.5174 32.6777 87.472 32.1176 88.4556 31.6389C89.3443 31.2077 88.5664 29.8849 87.6803 30.3135V30.3162Z" fill="#182955"/>
<path d="M28.4672 74.5965C26.1387 75.7141 25.3054 76.7739 24.4641 79.7692C24.4009 79.998 24.0739 79.998 24.0106 79.7692C23.172 76.7739 22.3387 75.7141 20.0075 74.5965C19.8282 74.5097 19.8282 74.2572 20.0075 74.1704C22.336 73.0528 23.1693 71.993 24.0106 68.9976C24.0739 68.7689 24.4009 68.7689 24.4641 68.9976C25.3027 71.993 26.1361 73.0528 28.4672 74.1704C28.6466 74.2572 28.6466 74.5097 28.4672 74.5965V74.5965Z" fill="url(#paint2_linear_219_78)"/>
<path d="M28.0796 73.9337C27.038 74.4386 26.049 75.0593 25.3291 75.9797C24.9626 76.4478 24.6751 76.9527 24.4404 77.4971C24.3007 77.8179 24.1741 78.144 24.0607 78.4753C24.0106 78.6226 23.9631 78.7699 23.9157 78.9198C23.884 79.025 23.8524 79.1302 23.8207 79.2354C23.7126 79.4826 23.7838 79.472 24.037 79.2038H24.4457C24.6962 79.4747 24.7674 79.4852 24.6619 79.2354C24.6303 79.1302 24.5987 79.025 24.567 78.9198C24.5195 78.7699 24.4721 78.6226 24.422 78.4753C24.3086 78.144 24.182 77.8179 24.0422 77.4971C23.8049 76.9527 23.5175 76.4478 23.1535 75.9797C22.8107 75.5405 22.4125 75.175 21.9642 74.8436C21.7532 74.6885 21.5317 74.5438 21.3076 74.4097C21.1757 74.3308 21.0412 74.2572 20.9067 74.1862C20.5666 74.0047 20.5349 73.8443 20.5349 74.3834C20.5349 74.9225 20.5666 74.7595 20.9067 74.5806C21.0228 74.5175 21.1388 74.4544 21.2522 74.3887C21.4974 74.2467 21.7348 74.0915 21.9642 73.9232C22.4125 73.5918 22.8107 73.2263 23.1535 72.7871C23.5201 72.319 23.8075 71.8141 24.0422 71.2697C24.182 70.9489 24.3086 70.6228 24.422 70.2915C24.4721 70.1442 24.5195 69.9969 24.567 69.847C24.5987 69.7418 24.6303 69.6366 24.6619 69.5315C24.7701 69.2843 24.6989 69.2948 24.4457 69.563H24.037C23.7864 69.2921 23.7152 69.2816 23.8207 69.5315C23.8524 69.6366 23.884 69.7418 23.9157 69.847C23.9631 69.9969 24.0106 70.1442 24.0607 70.2915C24.1741 70.6228 24.3007 70.9489 24.4404 71.2697C24.6778 71.8141 24.9652 72.319 25.3291 72.7871C25.6719 73.2263 26.0701 73.5918 26.5184 73.9232C26.7479 74.0915 26.9852 74.2467 27.2305 74.3887C27.3439 74.4544 27.4599 74.5175 27.5759 74.5806C27.6577 74.6227 27.7394 74.6648 27.8212 74.7069C28.1218 74.9015 28.1561 74.6858 27.924 74.0547C27.597 74.315 27.655 74.8673 27.924 75.1382C28.2405 75.4616 28.6888 75.3959 29.0105 75.1382C29.6091 74.6595 29.3823 73.8259 28.789 73.4761C28.3222 73.2 27.8291 72.9896 27.3887 72.6662C26.6529 72.1271 26.1466 71.3855 25.7932 70.5544C25.5375 69.9549 25.4267 69.2948 25.1683 68.7031C24.8887 68.0614 24.037 67.83 23.5201 68.3612C23.2801 68.6058 23.2247 68.9713 23.1272 69.2843C23.0296 69.5972 22.9267 69.918 22.8107 70.2283C22.634 70.7017 22.4152 71.1567 22.1356 71.5801C21.6135 72.369 20.8303 72.8897 20.0022 73.3183C19.4036 73.6287 18.7865 74.1809 19.2586 74.9146C19.5566 75.3775 20.2818 75.5773 20.738 75.8666C21.5291 76.3663 22.1066 77.0263 22.5206 77.8626C22.7764 78.3807 22.961 78.9329 23.1272 79.4826C23.3249 80.1347 23.6361 80.8921 24.4905 80.6712C25.2737 80.4687 25.3423 79.4589 25.5665 78.812C25.759 78.2597 25.991 77.7259 26.3101 77.2341C26.9166 76.2953 27.8713 75.7351 28.8549 75.2565C29.7436 74.8252 28.9657 73.5024 28.0796 73.9311V73.9337Z" fill="#FDB98C"/>
<path d="M28.0796 73.9337C27.038 74.4386 26.049 75.0593 25.3291 75.9797C24.9626 76.4478 24.6751 76.9527 24.4404 77.4971C24.3007 77.8179 24.1741 78.144 24.0607 78.4753C24.0106 78.6226 23.9631 78.7699 23.9157 78.9198C23.884 79.025 23.8524 79.1302 23.8207 79.2354C23.7126 79.4826 23.7838 79.472 24.037 79.2038H24.4457C24.6962 79.4747 24.7674 79.4852 24.6619 79.2354C24.6303 79.1302 24.5987 79.025 24.567 78.9198C24.5195 78.7699 24.4721 78.6226 24.422 78.4753C24.3086 78.144 24.182 77.8179 24.0422 77.4971C23.8049 76.9527 23.5175 76.4478 23.1535 75.9797C22.8107 75.5405 22.4125 75.175 21.9642 74.8436C21.7532 74.6885 21.5317 74.5438 21.3076 74.4097C21.1757 74.3308 21.0412 74.2572 20.9067 74.1862C20.5666 74.0047 20.5349 73.8443 20.5349 74.3834C20.5349 74.9225 20.5666 74.7595 20.9067 74.5806C21.0228 74.5175 21.1388 74.4544 21.2522 74.3887C21.4974 74.2467 21.7348 74.0915 21.9642 73.9232C22.4125 73.5918 22.8107 73.2263 23.1535 72.7871C23.5201 72.319 23.8075 71.8141 24.0422 71.2697C24.182 70.9489 24.3086 70.6228 24.422 70.2915C24.4721 70.1442 24.5195 69.9969 24.567 69.847C24.5987 69.7418 24.6303 69.6366 24.6619 69.5315C24.7701 69.2843 24.6989 69.2948 24.4457 69.563H24.037C23.7864 69.2921 23.7152 69.2816 23.8207 69.5315C23.8524 69.6366 23.884 69.7418 23.9157 69.847C23.9631 69.9969 24.0106 70.1442 24.0607 70.2915C24.1741 70.6228 24.3007 70.9489 24.4404 71.2697C24.6778 71.8141 24.9652 72.319 25.3291 72.7871C25.6719 73.2263 26.0701 73.5918 26.5184 73.9232C26.7479 74.0915 26.9852 74.2467 27.2305 74.3887C27.3439 74.4544 27.4599 74.5175 27.5759 74.5806C27.6577 74.6227 27.7394 74.6648 27.8212 74.7069C28.1218 74.9015 28.1561 74.6858 27.924 74.0547C27.597 74.315 27.655 74.8673 27.924 75.1382C28.2405 75.4616 28.6888 75.3959 29.0105 75.1382C29.6091 74.6595 29.3823 73.8259 28.789 73.4761C28.3222 73.2 27.8291 72.9896 27.3887 72.6662C26.6529 72.1271 26.1466 71.3855 25.7932 70.5544C25.5375 69.9549 25.4267 69.2948 25.1683 68.7031C24.8887 68.0614 24.037 67.83 23.5201 68.3612C23.2801 68.6058 23.2247 68.9713 23.1272 69.2843C23.0296 69.5972 22.9267 69.918 22.8107 70.2283C22.634 70.7017 22.4152 71.1567 22.1356 71.5801C21.6135 72.369 20.8303 72.8897 20.0022 73.3183C19.4036 73.6287 18.7865 74.1809 19.2586 74.9146C19.5566 75.3775 20.2818 75.5773 20.738 75.8666C21.5291 76.3663 22.1066 77.0263 22.5206 77.8626C22.7764 78.3807 22.961 78.9329 23.1272 79.4826C23.3249 80.1347 23.6361 80.8921 24.4905 80.6712C25.2737 80.4687 25.3423 79.4589 25.5665 78.812C25.759 78.2597 25.991 77.7259 26.3101 77.2341C26.9166 76.2953 27.8713 75.7351 28.8549 75.2565C29.7436 74.8252 28.9657 73.5024 28.0796 73.9311V73.9337Z" fill="#182955"/>
<path d="M62.2457 11.8735C63.0992 11.8735 63.791 11.1835 63.791 10.3324C63.791 9.48133 63.0992 8.79138 62.2457 8.79138C61.3922 8.79138 60.7004 9.48133 60.7004 10.3324C60.7004 11.1835 61.3922 11.8735 62.2457 11.8735Z" fill="url(#paint3_linear_219_78)"/>
<path d="M63.0236 10.3324C63.0236 10.3745 63.021 10.4192 63.0184 10.4613C63.0131 10.5849 63.0263 10.3956 63.0289 10.3824C63.0025 10.4403 62.9999 10.5218 62.9814 10.5849C62.9709 10.6217 62.9472 10.6638 62.9393 10.7006C62.9393 10.6875 63.0263 10.527 62.9656 10.6296C62.9261 10.7006 62.8865 10.769 62.8417 10.8374C62.7626 10.9583 62.9472 10.7295 62.876 10.7927C62.8522 10.8137 62.8311 10.8426 62.8074 10.8663C62.7889 10.8847 62.7705 10.9031 62.7494 10.9215C62.6966 10.9715 62.607 11.003 62.781 10.9031C62.723 10.9347 62.6703 10.9794 62.6123 11.0136C62.5885 11.0267 62.5648 11.0372 62.5411 11.0504C62.4171 11.1187 62.7257 10.9925 62.5542 11.0451C62.4883 11.0662 62.4224 11.0872 62.3538 11.1003C62.2747 11.1161 62.2352 11.0846 62.4118 11.0951C62.3776 11.0951 62.3406 11.1003 62.3064 11.103C62.2352 11.1056 62.164 11.103 62.0928 11.0977C61.9873 11.0925 62.2984 11.1372 62.1508 11.103C62.1112 11.0951 62.069 11.0846 62.0295 11.074C61.9899 11.0635 61.9503 11.0477 61.9108 11.0372C61.8422 11.0162 61.8633 10.9794 61.982 11.0688C61.9292 11.0293 61.8607 11.0083 61.8053 10.9715C61.7763 10.9531 61.7499 10.932 61.7209 10.9136C61.6365 10.8637 61.8686 11.0451 61.7658 10.9452C61.713 10.8926 61.655 10.8163 61.597 10.7716C61.7051 10.8558 61.684 10.8926 61.6444 10.8321C61.6233 10.7979 61.5996 10.7664 61.5785 10.7322C61.5653 10.7085 61.5521 10.6848 61.539 10.6612C61.502 10.5902 61.5047 10.5086 61.5469 10.698C61.5311 10.6322 61.4994 10.5691 61.4836 10.5034C61.4757 10.4771 61.4704 10.4482 61.4651 10.4219C61.4335 10.2772 61.4809 10.6243 61.4678 10.4376C61.4625 10.3745 61.4625 10.3088 61.4678 10.243C61.473 10.172 61.5152 10.0668 61.4599 10.2798C61.4678 10.2536 61.4704 10.2246 61.4757 10.1983C61.4915 10.13 61.5126 10.0668 61.5337 10.0011C61.5785 9.85645 61.4467 10.1668 61.5205 10.0353C61.5416 10.0011 61.5574 9.96427 61.5785 9.92746C61.597 9.89853 61.6154 9.87223 61.6339 9.8433C61.6787 9.76967 61.7236 9.79334 61.5996 9.88538C61.6497 9.84856 61.6919 9.78282 61.7394 9.74074C61.7605 9.72233 61.866 9.64607 61.7526 9.72233C61.6392 9.7986 61.7526 9.72233 61.771 9.71182C61.8343 9.66974 61.9266 9.64081 61.982 9.59347C61.9741 9.60136 61.7974 9.65922 61.9108 9.62503C61.9503 9.61188 61.9873 9.59873 62.0295 9.58822C62.0717 9.5777 62.2773 9.54351 62.1323 9.55929C61.9873 9.57507 62.2246 9.55929 62.2642 9.55929C62.3011 9.55929 62.3354 9.56192 62.3723 9.56455C62.5252 9.56981 62.1982 9.52773 62.3354 9.55929C62.4171 9.58033 62.4962 9.60136 62.5753 9.62503C62.7151 9.66974 62.4408 9.54877 62.5226 9.60399C62.5621 9.63029 62.607 9.64607 62.6465 9.66974C62.6703 9.68289 62.6914 9.69867 62.7151 9.71182C62.8839 9.8249 62.6281 9.62503 62.7204 9.71182C62.7678 9.75915 62.8153 9.80649 62.8628 9.85382C62.9683 9.96164 62.7599 9.69867 62.8417 9.8249C62.8628 9.85908 62.8865 9.89064 62.9076 9.92483C62.9287 9.95902 62.9472 9.99583 62.9656 10.0326C63.0316 10.151 62.9076 9.85908 62.9524 9.99846C62.9788 10.0774 62.9999 10.1562 63.0184 10.2378C63.0342 10.3035 62.9999 10.3272 63.0105 10.1589C63.0078 10.2141 63.0184 10.2746 63.021 10.3298C63.0263 10.7295 63.3717 11.1161 63.791 11.0977C64.2103 11.0793 64.5663 10.7611 64.5611 10.3298C64.5479 9.33839 63.9282 8.49686 63.0052 8.14972C62.1508 7.82889 61.0827 8.11291 60.5026 8.81506C59.875 9.57244 59.7405 10.6454 60.2547 11.5053C60.7689 12.3653 61.7552 12.7597 62.7256 12.5862C63.7937 12.3942 64.5452 11.3817 64.5611 10.3298C64.5663 9.92746 64.2024 9.54351 63.791 9.56192C63.3796 9.58033 63.0289 9.89853 63.021 10.3298L63.0236 10.3324Z" fill="#182955"/>
<path d="M81.0216 89.0839C81.875 89.0839 82.5669 88.3939 82.5669 87.5428C82.5669 86.6917 81.875 86.0018 81.0216 86.0018C80.1681 86.0018 79.4763 86.6917 79.4763 87.5428C79.4763 88.3939 80.1681 89.0839 81.0216 89.0839Z" fill="url(#paint4_linear_219_78)"/>
<path d="M81.797 87.5428C81.797 87.5849 81.7943 87.6296 81.7917 87.6717C81.7864 87.7953 81.7996 87.6059 81.8022 87.5928C81.7759 87.6506 81.7732 87.7322 81.7548 87.7953C81.7442 87.8321 81.7205 87.8742 81.7126 87.911C81.7126 87.8979 81.7996 87.7374 81.7389 87.84C81.6994 87.911 81.6598 87.9794 81.615 88.0477C81.5359 88.1687 81.7205 87.9399 81.6493 88.003C81.6255 88.0241 81.6044 88.053 81.5807 88.0767C81.5623 88.0951 81.5438 88.1135 81.5227 88.1319C81.47 88.1819 81.3803 88.2134 81.5543 88.1135C81.4963 88.1451 81.4436 88.1898 81.3856 88.2239C81.3618 88.2371 81.3381 88.2476 81.3144 88.2608C81.1904 88.3291 81.499 88.2029 81.3276 88.2555C81.2616 88.2765 81.1957 88.2976 81.1271 88.3107C81.048 88.3265 81.0085 88.295 81.1852 88.3055C81.1509 88.3055 81.114 88.3107 81.0797 88.3134C81.0085 88.316 80.9373 88.3134 80.8661 88.3081C80.7606 88.3028 81.0718 88.3475 80.9241 88.3134C80.8845 88.3055 80.8423 88.2949 80.8028 88.2844C80.7632 88.2739 80.7237 88.2581 80.6841 88.2476C80.6155 88.2266 80.6366 88.1898 80.7553 88.2792C80.7026 88.2397 80.634 88.2187 80.5786 88.1819C80.5496 88.1635 80.5232 88.1424 80.4942 88.124C80.4099 88.0741 80.6419 88.2555 80.5391 88.1556C80.4863 88.103 80.4283 88.0267 80.3703 87.982C80.4784 88.0662 80.4573 88.103 80.4178 88.0425C80.3967 88.0083 80.3729 87.9767 80.3518 87.9426C80.3387 87.9189 80.3255 87.8952 80.3123 87.8716C80.2754 87.8006 80.278 87.719 80.3202 87.9084C80.3044 87.8426 80.2727 87.7795 80.2569 87.7138C80.249 87.6875 80.2437 87.6585 80.2384 87.6322C80.2068 87.4876 80.2543 87.8347 80.2411 87.648C80.2358 87.5849 80.2358 87.5192 80.2411 87.4534C80.2464 87.3824 80.2885 87.2772 80.2332 87.4902C80.2411 87.4639 80.2437 87.435 80.249 87.4087C80.2648 87.3403 80.2859 87.2772 80.307 87.2115C80.3518 87.0668 80.22 87.3772 80.2938 87.2457C80.3149 87.2115 80.3307 87.1747 80.3518 87.1378C80.3703 87.1089 80.3888 87.0826 80.4072 87.0537C80.452 86.9801 80.4969 87.0037 80.3729 87.0958C80.423 87.059 80.4652 86.9932 80.5127 86.9511C80.5338 86.9327 80.6393 86.8565 80.5259 86.9327C80.4125 87.009 80.5259 86.9327 80.5443 86.9222C80.6076 86.8801 80.6999 86.8512 80.7553 86.8039C80.7474 86.8117 80.5707 86.8696 80.6841 86.8354C80.7237 86.8223 80.7606 86.8091 80.8028 86.7986C80.845 86.7881 81.0507 86.7539 80.9056 86.7697C80.7606 86.7855 80.9979 86.7697 81.0375 86.7697C81.0744 86.7697 81.1087 86.7723 81.1456 86.7749C81.2985 86.7802 80.9716 86.7381 81.1087 86.7697C81.1904 86.7907 81.2695 86.8118 81.3487 86.8354C81.4884 86.8801 81.2142 86.7592 81.2959 86.8144C81.3355 86.8407 81.3803 86.8565 81.4199 86.8801C81.4436 86.8933 81.4647 86.9091 81.4884 86.9222C81.6572 87.0353 81.4014 86.8354 81.4937 86.9222C81.5412 86.9695 81.5886 87.0169 81.6361 87.0642C81.7416 87.172 81.5332 86.9091 81.615 87.0353C81.6361 87.0695 81.6598 87.101 81.6809 87.1352C81.702 87.1694 81.7205 87.2062 81.7389 87.243C81.8049 87.3614 81.6809 87.0695 81.7258 87.2088C81.7521 87.2877 81.7732 87.3666 81.7917 87.4482C81.8075 87.5139 81.7732 87.5376 81.7838 87.3693C81.7811 87.4245 81.7917 87.485 81.7943 87.5402C81.7996 87.9399 82.1451 88.3265 82.5643 88.3081C82.9836 88.2897 83.3397 87.9715 83.3344 87.5402C83.3212 86.5488 82.7015 85.7072 81.7785 85.3601C80.9241 85.0393 79.8561 85.3233 79.2759 86.0254C78.6483 86.7828 78.5138 87.8558 79.028 88.7157C79.5423 89.5757 80.5285 89.9701 81.499 89.7966C82.567 89.6046 83.3186 88.5921 83.3344 87.5402C83.3397 87.1378 82.9757 86.7539 82.5643 86.7723C82.153 86.7907 81.8022 87.1089 81.7943 87.5402L81.797 87.5428Z" fill="#182955"/>
<path d="M43.5488 54.0737C44.4023 54.0737 45.0941 53.3837 45.0941 52.5326C45.0941 51.6815 44.4023 50.9916 43.5488 50.9916C42.6953 50.9916 42.0035 51.6815 42.0035 52.5326C42.0035 53.3837 42.6953 54.0737 43.5488 54.0737Z" fill="url(#paint5_linear_219_78)"/>
<path d="M44.3267 52.5326C44.3267 52.5747 44.324 52.6194 44.3214 52.6614C44.3161 52.785 44.3293 52.5957 44.332 52.5825C44.3056 52.6404 44.3029 52.7219 44.2845 52.785C44.2739 52.8219 44.2502 52.8639 44.2423 52.9007C44.2423 52.8876 44.3293 52.7272 44.2687 52.8297C44.2291 52.9007 44.1896 52.9691 44.1447 53.0375C44.0656 53.1585 44.2502 52.9297 44.179 52.9928C44.1553 53.0138 44.1342 53.0428 44.1104 53.0664C44.092 53.0848 44.0735 53.1032 44.0524 53.1216C43.9997 53.1716 43.91 53.2032 44.0841 53.1032C44.0261 53.1348 43.9733 53.1795 43.9153 53.2137C43.8916 53.2268 43.8678 53.2374 43.8441 53.2505C43.7202 53.3189 44.0287 53.1927 43.8573 53.2452C43.7914 53.2663 43.7254 53.2873 43.6569 53.3005C43.5778 53.3162 43.5382 53.2847 43.7149 53.2952C43.6806 53.2952 43.6437 53.3005 43.6094 53.3031C43.5382 53.3057 43.467 53.3031 43.3958 53.2978C43.2903 53.2926 43.6015 53.3373 43.4538 53.3031C43.4143 53.2952 43.3721 53.2847 43.3325 53.2742C43.2929 53.2637 43.2534 53.2479 43.2138 53.2374C43.1453 53.2163 43.1664 53.1795 43.285 53.2689C43.2323 53.2295 43.1637 53.2084 43.1083 53.1716C43.0793 53.1532 43.053 53.1322 43.024 53.1138C42.9396 53.0638 43.1716 53.2452 43.0688 53.1453C43.0161 53.0927 42.958 53.0165 42.9 52.9717C43.0081 53.0559 42.987 53.0927 42.9475 53.0322C42.9264 52.998 42.9027 52.9665 42.8816 52.9323C42.8684 52.9086 42.8552 52.885 42.842 52.8613C42.8051 52.7903 42.8077 52.7088 42.8499 52.8981C42.8341 52.8324 42.8024 52.7693 42.7866 52.7035C42.7787 52.6772 42.7734 52.6483 42.7682 52.622C42.7365 52.4774 42.784 52.8245 42.7708 52.6378C42.7655 52.5747 42.7655 52.5089 42.7708 52.4432C42.7761 52.3722 42.8183 52.267 42.7629 52.48C42.7708 52.4537 42.7734 52.4248 42.7787 52.3985C42.7945 52.3301 42.8156 52.267 42.8367 52.2012C42.8816 52.0566 42.7497 52.3669 42.8235 52.2354C42.8446 52.2012 42.8605 52.1644 42.8816 52.1276C42.9 52.0987 42.9185 52.0724 42.9369 52.0434C42.9818 51.9698 43.0266 51.9935 42.9027 52.0855C42.9528 52.0487 42.995 51.9829 43.0424 51.9409C43.0635 51.9225 43.169 51.8462 43.0556 51.9225C42.9422 51.9987 43.0556 51.9225 43.0741 51.9119C43.1374 51.8699 43.2297 51.8409 43.285 51.7936C43.2771 51.8015 43.1004 51.8594 43.2138 51.8252C43.2534 51.812 43.2903 51.7989 43.3325 51.7883C43.3747 51.7778 43.5804 51.7436 43.4353 51.7594C43.2903 51.7752 43.5276 51.7594 43.5672 51.7594C43.6041 51.7594 43.6384 51.762 43.6753 51.7647C43.8283 51.7699 43.5013 51.7279 43.6384 51.7594C43.7202 51.7805 43.7993 51.8015 43.8784 51.8252C44.0181 51.8699 43.7439 51.7489 43.8256 51.8041C43.8652 51.8304 43.91 51.8462 43.9496 51.8699C43.9733 51.883 43.9944 51.8988 44.0181 51.9119C44.1869 52.025 43.9311 51.8252 44.0234 51.9119C44.0709 51.9593 44.1183 52.0066 44.1658 52.054C44.2713 52.1618 44.063 51.8988 44.1447 52.025C44.1658 52.0592 44.1896 52.0908 44.2106 52.125C44.2317 52.1591 44.2502 52.196 44.2687 52.2328C44.3346 52.3511 44.2107 52.0592 44.2555 52.1986C44.2819 52.2775 44.3029 52.3564 44.3214 52.4379C44.3372 52.5036 44.3029 52.5273 44.3135 52.359C44.3109 52.4142 44.3214 52.4747 44.324 52.5299C44.3293 52.9297 44.6748 53.3163 45.0941 53.2978C45.5134 53.2794 45.8694 52.9612 45.8641 52.5299C45.8509 51.5385 45.2312 50.697 44.3082 50.3499C43.4538 50.029 42.3858 50.313 41.8056 51.0152C41.178 51.7726 41.0435 52.8455 41.5577 53.7055C42.072 54.5654 43.0582 54.9599 44.0287 54.7863C45.0967 54.5943 45.8483 53.5819 45.8641 52.5299C45.8694 52.1276 45.5055 51.7436 45.0941 51.7621C44.6827 51.7805 44.332 52.0987 44.324 52.5299L44.3267 52.5326Z" fill="#182955"/>
<path d="M10.2319 28.2913C11.0853 28.2913 11.7772 27.6014 11.7772 26.7503C11.7772 25.8992 11.0853 25.2092 10.2319 25.2092C9.37839 25.2092 8.68652 25.8992 8.68652 26.7503C8.68652 27.6014 9.37839 28.2913 10.2319 28.2913Z" fill="url(#paint6_linear_219_78)"/>
<path d="M11.0098 26.7502C11.0098 26.7922 11.0071 26.837 11.0045 26.879C10.9992 27.0026 11.0124 26.8133 11.0151 26.8001C10.9887 26.858 10.9861 26.9395 10.9676 27.0026C10.957 27.0394 10.9333 27.0815 10.9254 27.1183C10.9254 27.1052 11.0124 26.9448 10.9518 27.0473C10.9122 27.1183 10.8727 27.1867 10.8278 27.2551C10.7487 27.3761 10.9333 27.1473 10.8621 27.2104C10.8384 27.2314 10.8173 27.2603 10.7935 27.284C10.7751 27.3024 10.7566 27.3208 10.7355 27.3392C10.6828 27.3892 10.5931 27.4208 10.7672 27.3208C10.7092 27.3524 10.6564 27.3971 10.5984 27.4313C10.5747 27.4444 10.5509 27.4549 10.5272 27.4681C10.4033 27.5365 10.7118 27.4102 10.5404 27.4628C10.4745 27.4839 10.4085 27.5049 10.34 27.5181C10.2609 27.5338 10.2213 27.5023 10.398 27.5128C10.3637 27.5128 10.3268 27.5181 10.2925 27.5207C10.2213 27.5233 10.1501 27.5207 10.0789 27.5154C9.97341 27.5102 10.2846 27.5549 10.1369 27.5207C10.0974 27.5128 10.0552 27.5023 10.0156 27.4918C9.97605 27.4812 9.93649 27.4655 9.89694 27.455C9.82837 27.4339 9.84947 27.3971 9.96814 27.4865C9.9154 27.4471 9.84683 27.426 9.79145 27.3892C9.76245 27.3708 9.73608 27.3498 9.70707 27.3314C9.62268 27.2814 9.85474 27.4628 9.7519 27.3629C9.69916 27.3103 9.64114 27.234 9.58312 27.1893C9.69125 27.2735 9.67015 27.3103 9.63059 27.2498C9.6095 27.2156 9.58576 27.1841 9.56467 27.1499C9.55148 27.1262 9.53829 27.1026 9.52511 27.0789C9.48819 27.0079 9.49083 26.9264 9.53302 27.1157C9.5172 27.05 9.48555 26.9869 9.46973 26.9211C9.46182 26.8948 9.45654 26.8659 9.45127 26.8396C9.41963 26.6949 9.46709 27.0421 9.45391 26.8554C9.44863 26.7922 9.44863 26.7265 9.45391 26.6608C9.45918 26.5898 9.50138 26.4846 9.446 26.6976C9.45391 26.6713 9.45655 26.6423 9.46182 26.616C9.47764 26.5477 9.49874 26.4846 9.51983 26.4188C9.56466 26.2742 9.43281 26.5845 9.50665 26.453C9.52775 26.4188 9.54357 26.382 9.56467 26.3452C9.58312 26.3163 9.60158 26.29 9.62004 26.261C9.66487 26.1874 9.7097 26.2111 9.58576 26.3031C9.63587 26.2663 9.67806 26.2005 9.72553 26.1585C9.74662 26.1401 9.85211 26.0638 9.73871 26.1401C9.62532 26.2163 9.73871 26.1401 9.75717 26.1295C9.82046 26.0875 9.91276 26.0585 9.96814 26.0112C9.96023 26.0191 9.78354 26.0769 9.89694 26.0428C9.93649 26.0296 9.97341 26.0165 10.0156 26.0059C10.0578 25.9954 10.2635 25.9612 10.1185 25.977C9.97341 25.9928 10.2107 25.977 10.2503 25.977C10.2872 25.977 10.3215 25.9796 10.3584 25.9823C10.5114 25.9875 10.1844 25.9455 10.3215 25.977C10.4033 25.9981 10.4824 26.0191 10.5615 26.0428C10.7012 26.0875 10.427 25.9665 10.5087 26.0217C10.5483 26.048 10.5931 26.0638 10.6327 26.0875C10.6564 26.1006 10.6775 26.1164 10.7012 26.1295C10.87 26.2426 10.6142 26.0428 10.7065 26.1295C10.754 26.1769 10.8015 26.2242 10.8489 26.2715C10.9544 26.3794 10.7461 26.1164 10.8278 26.2426C10.8489 26.2768 10.8727 26.3084 10.8938 26.3426C10.9149 26.3767 10.9333 26.4136 10.9518 26.4504C11.0177 26.5687 10.8938 26.2768 10.9386 26.4162C10.965 26.4951 10.9861 26.574 11.0045 26.6555C11.0203 26.7212 10.9861 26.7449 10.9966 26.5766C10.994 26.6318 11.0045 26.6923 11.0071 26.7475C11.0124 27.1473 11.3579 27.5338 11.7772 27.5154C12.1965 27.497 12.5525 27.1788 12.5472 26.7475C12.534 25.7561 11.9143 24.9146 10.9913 24.5674C10.1369 24.2466 9.06889 24.5306 8.48874 25.2328C7.86111 25.9902 7.72662 27.0631 8.24085 27.9231C8.75508 28.783 9.74135 29.1775 10.7118 29.0039C11.7798 28.8119 12.5314 27.7995 12.5472 26.7475C12.5525 26.3452 12.1886 25.9612 11.7772 25.9796C11.3658 25.9981 11.0151 26.3163 11.0071 26.7475L11.0098 26.7502Z" fill="#182955"/>
<path d="M37.196 6.5298C34.8674 7.64746 34.0341 8.70726 33.1929 11.7026C33.1296 11.9314 32.8026 11.9314 32.7393 11.7026C31.9007 8.70726 31.0674 7.64746 28.7362 6.5298C28.5569 6.44302 28.5569 6.19056 28.7362 6.10378C31.0648 4.98612 31.8981 3.92632 32.7393 0.930993C32.8026 0.702202 33.1296 0.702202 33.1929 0.930993C34.0315 3.92632 34.8648 4.98612 37.196 6.10378C37.3753 6.19056 37.3753 6.44302 37.196 6.5298Z" fill="url(#paint7_linear_219_78)"/>
<path d="M36.8083 5.86707C35.7667 6.37198 34.7777 6.99261 34.0578 7.91304C33.6913 8.38114 33.4038 8.88606 33.1691 9.43042C33.0294 9.75126 32.9028 10.0773 32.7894 10.4087C32.7393 10.556 32.6918 10.7032 32.6443 10.8531C32.6127 10.9583 32.5811 11.0635 32.5494 11.1687C32.4413 11.4159 32.5125 11.4054 32.7657 11.1372H33.1744C33.4249 11.408 33.4961 11.4185 33.3906 11.1687C33.359 11.0635 33.3274 10.9583 33.2957 10.8531C33.2482 10.7032 33.2008 10.556 33.1507 10.4087C33.0373 10.0773 32.9107 9.75126 32.7709 9.43042C32.5336 8.88606 32.2462 8.38114 31.8822 7.91304C31.5394 7.47386 31.1412 7.10832 30.6929 6.77697C30.4819 6.62181 30.2604 6.47718 30.0363 6.34306C29.9044 6.26416 29.7699 6.19053 29.6354 6.11952C29.2953 5.93807 29.2636 5.77765 29.2636 6.31676C29.2636 6.85586 29.2953 6.69282 29.6354 6.51399C29.7515 6.45088 29.8675 6.38776 29.9809 6.32202C30.2261 6.18001 30.4635 6.02485 30.6929 5.85655C31.1412 5.52519 31.5394 5.15965 31.8822 4.72048C32.2488 4.25238 32.5362 3.74746 32.7709 3.2031C32.9107 2.88226 33.0373 2.55617 33.1507 2.22482C33.2008 2.07755 33.2482 1.93028 33.2957 1.78038C33.3274 1.67519 33.359 1.57 33.3906 1.46481C33.4988 1.21761 33.4276 1.22813 33.1744 1.49637H32.7657C32.5151 1.2255 32.4439 1.21498 32.5494 1.46481C32.5811 1.57 32.6127 1.67519 32.6443 1.78038C32.6918 1.93028 32.7393 2.07755 32.7894 2.22482C32.9028 2.55617 33.0294 2.88226 33.1691 3.2031C33.4065 3.74746 33.6939 4.25238 34.0578 4.72048C34.4006 5.15965 34.7988 5.52519 35.2471 5.85655C35.4766 6.02485 35.7139 6.18001 35.9592 6.32202C36.0726 6.38776 36.1886 6.45088 36.3046 6.51399C36.3864 6.55607 36.4681 6.59815 36.5499 6.64022C36.8505 6.83483 36.8848 6.61918 36.6527 5.98804C36.3257 6.24838 36.3837 6.80064 36.6527 7.07151C36.9692 7.39497 37.4175 7.32922 37.7392 7.07151C38.3378 6.59289 38.111 5.75924 37.5177 5.40948C37.0509 5.13336 36.5578 4.92297 36.1174 4.59951C35.3816 4.0604 34.8753 3.31881 34.522 2.48779C34.2662 1.8882 34.1554 1.22813 33.897 0.636428C33.6174 -0.00523937 32.7657 -0.23666 32.2488 0.294556C32.0088 0.539126 31.9534 0.904666 31.8559 1.21761C31.7583 1.53055 31.6554 1.85139 31.5394 2.1617C31.3627 2.63506 31.1439 3.09001 30.8643 3.51341C30.3422 4.30234 29.559 4.82304 28.7309 5.2517C28.1323 5.56201 27.5152 6.11427 27.9873 6.84797C28.2853 7.31082 29.0105 7.51068 29.4667 7.79996C30.2578 8.29961 30.8353 8.95969 31.2493 9.79596C31.5051 10.314 31.6897 10.8663 31.8559 11.4159C32.0536 12.0681 32.3648 12.8255 33.2192 12.6046C34.0024 12.4021 34.071 11.3922 34.2952 10.7453C34.4877 10.1931 34.7197 9.65921 35.0388 9.16744C35.6453 8.22861 36.6 7.66847 37.5836 7.18985C38.4723 6.75856 37.6944 5.43578 36.8083 5.86444V5.86707Z" fill="#FDB98C"/>
<path d="M36.8083 5.86707C35.7667 6.37198 34.7777 6.99261 34.0578 7.91304C33.6913 8.38114 33.4038 8.88606 33.1691 9.43042C33.0294 9.75126 32.9028 10.0773 32.7894 10.4087C32.7393 10.556 32.6918 10.7032 32.6443 10.8531C32.6127 10.9583 32.5811 11.0635 32.5494 11.1687C32.4413 11.4159 32.5125 11.4054 32.7657 11.1372H33.1744C33.4249 11.408 33.4961 11.4185 33.3906 11.1687C33.359 11.0635 33.3274 10.9583 33.2957 10.8531C33.2482 10.7032 33.2008 10.556 33.1507 10.4087C33.0373 10.0773 32.9107 9.75126 32.7709 9.43042C32.5336 8.88606 32.2462 8.38114 31.8822 7.91304C31.5394 7.47386 31.1412 7.10832 30.6929 6.77697C30.4819 6.62181 30.2604 6.47718 30.0363 6.34306C29.9044 6.26416 29.7699 6.19053 29.6354 6.11952C29.2953 5.93807 29.2636 5.77765 29.2636 6.31676C29.2636 6.85586 29.2953 6.69282 29.6354 6.51399C29.7515 6.45088 29.8675 6.38776 29.9809 6.32202C30.2261 6.18001 30.4635 6.02485 30.6929 5.85655C31.1412 5.52519 31.5394 5.15965 31.8822 4.72048C32.2488 4.25238 32.5362 3.74746 32.7709 3.2031C32.9107 2.88226 33.0373 2.55617 33.1507 2.22482C33.2008 2.07755 33.2482 1.93028 33.2957 1.78038C33.3274 1.67519 33.359 1.57 33.3906 1.46481C33.4988 1.21761 33.4276 1.22813 33.1744 1.49637H32.7657C32.5151 1.2255 32.4439 1.21498 32.5494 1.46481C32.5811 1.57 32.6127 1.67519 32.6443 1.78038C32.6918 1.93028 32.7393 2.07755 32.7894 2.22482C32.9028 2.55617 33.0294 2.88226 33.1691 3.2031C33.4065 3.74746 33.6939 4.25238 34.0578 4.72048C34.4006 5.15965 34.7988 5.52519 35.2471 5.85655C35.4766 6.02485 35.7139 6.18001 35.9592 6.32202C36.0726 6.38776 36.1886 6.45088 36.3046 6.51399C36.3864 6.55607 36.4681 6.59815 36.5499 6.64022C36.8505 6.83483 36.8848 6.61918 36.6527 5.98804C36.3257 6.24838 36.3837 6.80064 36.6527 7.07151C36.9692 7.39497 37.4175 7.32922 37.7392 7.07151C38.3378 6.59289 38.111 5.75924 37.5177 5.40948C37.0509 5.13336 36.5578 4.92297 36.1174 4.59951C35.3816 4.0604 34.8753 3.31881 34.522 2.48779C34.2662 1.8882 34.1554 1.22813 33.897 0.636428C33.6174 -0.00523937 32.7657 -0.23666 32.2488 0.294556C32.0088 0.539126 31.9534 0.904666 31.8559 1.21761C31.7583 1.53055 31.6554 1.85139 31.5394 2.1617C31.3627 2.63506 31.1439 3.09001 30.8643 3.51341C30.3422 4.30234 29.559 4.82304 28.7309 5.2517C28.1323 5.56201 27.5152 6.11427 27.9873 6.84797C28.2853 7.31082 29.0105 7.51068 29.4667 7.79996C30.2578 8.29961 30.8353 8.95969 31.2493 9.79596C31.5051 10.314 31.6897 10.8663 31.8559 11.4159C32.0536 12.0681 32.3648 12.8255 33.2192 12.6046C34.0024 12.4021 34.071 11.3922 34.2952 10.7453C34.4877 10.1931 34.7197 9.65921 35.0388 9.16744C35.6453 8.22861 36.6 7.66847 37.5836 7.18985C38.4723 6.75856 37.6944 5.43578 36.8083 5.86444V5.86707Z" fill="#182955"/>
</g>
<defs>
<linearGradient id="paint0_linear_219_78" x1="18.1669" y1="127.692" x2="83.2171" y2="27.1301" gradientUnits="userSpaceOnUse">
<stop stop-color="#546AF2"/>
<stop offset="1" stop-color="#A8EAD2"/>
</linearGradient>
<linearGradient id="paint1_linear_219_78" x1="83.6851" y1="24.9515" x2="83.8818" y2="32.4727" gradientUnits="userSpaceOnUse">
<stop stop-color="#FDB98C"/>
<stop offset="1" stop-color="#FFC354"/>
</linearGradient>
<linearGradient id="paint2_linear_219_78" x1="24.087" y1="68.5716" x2="24.2837" y2="76.0902" gradientUnits="userSpaceOnUse">
<stop stop-color="#FDB98C"/>
<stop offset="1" stop-color="#FFC354"/>
</linearGradient>
<linearGradient id="paint3_linear_219_78" x1="49.8435" y1="22.9396" x2="70.0943" y2="2.23971" gradientUnits="userSpaceOnUse">
<stop offset="0.28" stop-color="#546AF1"/>
<stop offset="0.97" stop-color="#546AF1"/>
</linearGradient>
<linearGradient id="paint4_linear_219_78" x1="68.6194" y1="100.15" x2="88.8702" y2="79.4501" gradientUnits="userSpaceOnUse">
<stop offset="0.28" stop-color="#546AF1"/>
<stop offset="0.97" stop-color="#546AF1"/>
</linearGradient>
<linearGradient id="paint5_linear_219_78" x1="31.1493" y1="65.1398" x2="51.3974" y2="44.4399" gradientUnits="userSpaceOnUse">
<stop offset="0.28" stop-color="#546AF1"/>
<stop offset="0.97" stop-color="#546AF1"/>
</linearGradient>
<linearGradient id="paint6_linear_219_78" x1="-2.1677" y1="39.3575" x2="18.0805" y2="18.6576" gradientUnits="userSpaceOnUse">
<stop offset="0.28" stop-color="#546AF1"/>
<stop offset="0.97" stop-color="#546AF1"/>
</linearGradient>
<linearGradient id="paint7_linear_219_78" x1="32.8158" y1="0.504968" x2="33.0125" y2="8.02355" gradientUnits="userSpaceOnUse">
<stop stop-color="#FDB98C"/>
<stop offset="1" stop-color="#FFC354"/>
</linearGradient>
<clipPath id="clip0_219_78">
<rect width="111" height="131" fill="white"/>
</clipPath>
</defs>
</svg>
