<svg width="768" height="231" viewBox="0 0 768 231" fill="none" xmlns="http://www.w3.org/2000/svg">
<path fill-rule="evenodd" clip-rule="evenodd" d="M182.451 48.8233C168.299 34.6928 142.507 36.3809 115.633 50.8489C111.621 53.0051 111.921 61.8614 115.72 64.1791C136.591 77.0703 154.164 94.6431 167.043 115.502C169.352 119.297 178.326 119.427 180.422 115.541C179.928 114.624 179.421 113.709 178.899 112.796C179.418 113.709 179.926 114.624 180.422 115.54C194.912 88.7071 196.602 62.9538 182.451 48.8233ZM152.543 78.6854C144.857 70.9702 136.436 64.0218 127.399 57.9385C137.802 53.1347 147.713 50.5597 156.108 50.5597C163.614 50.5597 169.912 52.6143 174.278 56.9739C183.542 66.2234 182.441 84.1252 173.322 103.792C167.221 94.775 160.263 86.367 152.543 78.6854Z" fill="#FFC750"/>
<path fill-rule="evenodd" clip-rule="evenodd" d="M188.7 134.889C186.557 128.193 183.785 121.715 180.422 115.54V115.541C178.297 111.595 169.345 111.714 167.043 115.502C160.66 125.925 153.049 135.545 144.371 144.158C135.763 152.827 126.143 160.434 115.72 166.815C111.921 169.132 111.75 178.062 115.633 180.145C129.939 187.852 143.937 191.931 156.041 191.931C166.666 191.931 175.834 188.787 182.451 182.18C192.806 171.84 195.018 155.048 188.7 134.889ZM174.278 174.02C165.014 183.27 147.095 182.161 127.399 173.056C136.436 166.972 144.857 160.024 152.543 152.308C160.267 144.642 167.228 136.246 173.331 127.24C182.441 146.897 183.542 164.78 174.278 174.02H174.278Z" fill="#FF6895"/>
<path fill-rule="evenodd" clip-rule="evenodd" d="M115.633 50.8489C109.448 47.4862 102.956 44.7184 96.2457 42.5828C76.0661 36.2748 59.2482 38.4834 48.8929 48.8233C42.2759 55.4304 39.1267 64.5839 39.1267 75.194C39.1267 87.2797 43.2128 101.265 50.9215 115.55C53.0177 119.428 61.9612 119.252 64.2812 115.454C77.1945 94.5955 94.8088 77.0375 115.72 64.1791C119.496 61.8872 119.574 52.9611 115.633 50.8489ZM58.0314 103.792C48.9123 84.1252 47.8014 66.2234 57.0654 56.9739C64.2233 49.8263 76.9164 48.6207 92.7973 53.598C96.6004 54.799 100.324 56.239 103.945 57.9094C85.8779 70.1742 70.2993 85.7425 58.0314 103.792Z" fill="#5FC5A6"/>
<path fill-rule="evenodd" clip-rule="evenodd" d="M115.72 166.815C105.262 160.442 95.61 152.835 86.9723 144.158C78.2827 135.534 70.6642 125.896 64.2812 115.454C61.9791 111.687 53.0369 111.615 50.9216 115.55C47.5612 121.722 44.7925 128.197 42.6526 134.889C36.3254 155.048 38.5472 171.84 48.8929 182.18C55.3846 188.652 64.4066 191.941 75.2065 191.941C82.358 191.833 89.4518 190.643 96.2458 188.411C102.954 186.271 109.446 183.503 115.633 180.145C118.753 178.476 119.492 169.114 115.72 166.815ZM92.7974 177.405C76.9164 182.373 64.2233 181.167 57.0654 174.02C49.9073 166.873 48.6996 154.199 53.6747 138.342C54.8761 134.547 56.3183 130.832 57.9925 127.221C64.1056 136.233 71.0771 144.635 78.8096 152.308C86.4907 160.034 94.9089 166.992 103.945 173.084C100.325 174.762 96.602 176.205 92.7974 177.405Z" fill="#5666F6"/>
<path fill-rule="evenodd" clip-rule="evenodd" d="M89.8918 114.803L115.674 74.3494L141.457 114.803L115.674 129.514L89.8918 114.803Z" fill="#1F294F"/>
<path fill-rule="evenodd" clip-rule="evenodd" d="M89.8918 121.713L115.674 136.423L141.457 121.713L115.674 156.651L89.8918 121.713Z" fill="#1F294F"/>
<path fill-rule="evenodd" clip-rule="evenodd" d="M127.399 57.9383C123.395 59.8041 119.496 61.8874 115.72 64.1789C111.921 61.8617 107.989 59.7683 103.945 57.9094C107.72 55.3617 111.621 53.0053 115.633 50.8489C119.574 52.9612 123.496 55.3243 127.399 57.9383Z" fill="#5F9A34"/>
<path fill-rule="evenodd" clip-rule="evenodd" d="M180.422 115.54C178.326 119.427 175.959 123.343 173.332 127.24C171.452 123.215 169.352 119.297 167.043 115.502C169.345 111.714 171.441 107.805 173.322 103.792C175.93 107.679 178.297 111.595 180.422 115.54Z" fill="#FF512F"/>
<path fill-rule="evenodd" clip-rule="evenodd" d="M127.399 173.055C126.587 173.605 125.776 174.136 124.965 174.656C121.873 176.643 118.753 178.476 115.633 180.145C111.75 178.062 107.854 175.708 103.945 173.084C107.989 171.226 111.921 169.132 115.72 166.815C119.492 169.114 123.391 171.197 127.399 173.055Z" fill="#552990"/>
<path fill-rule="evenodd" clip-rule="evenodd" d="M64.2811 115.453C61.961 119.252 59.8613 123.181 57.9925 127.221C55.3747 123.334 53.0177 119.427 50.9214 115.55C53.0369 111.615 55.4132 107.679 58.0312 103.792C59.8922 107.794 61.9789 111.687 64.2811 115.453Z" fill="#204FA0"/>
<path d="M714.855 147.657V154.046C713.74 154.701 712.467 155.041 711.174 155.029C708.611 155.09 706.102 154.287 704.053 152.748C702.004 151.21 700.535 149.026 699.882 146.551C696.439 150.262 691.965 152.861 687.032 154.015C682.1 155.169 676.935 154.826 672.199 153.029C667.463 151.232 663.374 148.064 660.454 143.93C657.534 139.796 655.918 134.885 655.812 129.828C655.707 124.771 657.116 119.797 659.861 115.546C662.606 111.294 666.56 107.958 671.216 105.965C675.873 103.973 681.019 103.415 685.995 104.363C690.972 105.311 695.551 107.721 699.146 111.286V104.896H706.755V141.267C706.755 145.814 709.087 147.657 711.787 147.657H714.855ZM699.146 129.471C699.136 125.935 698.077 122.48 696.102 119.544C694.128 116.608 691.326 114.323 688.051 112.976C684.776 111.629 681.174 111.281 677.701 111.977C674.229 112.673 671.04 114.381 668.539 116.885C666.038 119.389 664.336 122.577 663.649 126.047C662.961 129.516 663.319 133.111 664.677 136.378C666.034 139.644 668.331 142.436 671.277 144.399C674.223 146.363 677.685 147.411 681.227 147.411C685.986 147.405 690.547 145.511 693.907 142.147C697.268 138.782 699.152 134.223 699.146 129.471H699.146ZM724.449 79.95H732.443V155.033H724.449V79.95ZM644.504 129.14C644.523 134.222 643.044 139.197 640.251 143.445C637.458 147.693 633.475 151.027 628.797 153.03C624.142 154.997 619.003 155.528 614.042 154.554C609.082 153.58 604.527 151.145 600.965 147.563V154.036H593.339V78.3525H600.965V110.717C604.527 107.136 609.082 104.701 614.042 103.727C619.003 102.752 624.142 103.283 628.797 105.251C633.475 107.254 637.458 110.587 640.251 114.836C643.044 119.084 644.523 124.059 644.504 129.14ZM636.878 129.14C636.83 125.605 635.736 122.162 633.734 119.245C631.732 116.328 628.911 114.068 625.625 112.748C622.34 111.428 618.736 111.107 615.269 111.826C611.801 112.546 608.624 114.272 606.137 116.79C603.65 119.307 601.964 122.502 601.29 125.974C600.617 129.446 600.987 133.039 602.353 136.301C603.72 139.564 606.021 142.35 608.969 144.309C611.917 146.269 615.38 147.315 618.921 147.315C621.288 147.32 623.631 146.853 625.814 145.942C627.998 145.031 629.977 143.693 631.636 142.009C635.015 138.578 636.899 133.952 636.878 129.14H636.878ZM527.784 129.473C527.79 123.567 529.847 117.846 533.604 113.284C537.361 108.722 542.585 105.602 548.387 104.455C554.19 103.307 560.211 104.204 565.425 106.992C570.64 109.779 574.725 114.286 576.985 119.744C579.245 125.202 579.541 131.273 577.821 136.924C576.101 142.575 572.473 147.456 567.554 150.735C562.634 154.015 556.729 155.49 550.842 154.909C544.956 154.329 539.453 151.729 535.271 147.552C532.895 145.178 531.011 142.359 529.726 139.257C528.441 136.154 527.781 132.83 527.784 129.473V129.473ZM571.323 129.473C571.321 125.927 570.266 122.462 568.291 119.515C566.317 116.568 563.511 114.272 560.23 112.916C556.949 111.561 553.339 111.208 549.856 111.901C546.374 112.594 543.175 114.303 540.665 116.811C538.155 119.318 536.446 122.513 535.754 125.991C535.062 129.469 535.418 133.073 536.778 136.349C538.137 139.624 540.439 142.424 543.391 144.393C546.344 146.363 549.815 147.414 553.366 147.414C555.725 147.413 558.061 146.949 560.24 146.047C562.419 145.145 564.399 143.823 566.066 142.157C567.734 140.491 569.056 138.513 569.958 136.337C570.86 134.161 571.324 131.828 571.323 129.473V129.473ZM489.409 114.207V116.432C489.539 135.707 475.621 152.083 456.901 154.68C438.182 157.278 420.484 145.288 415.564 126.678C410.645 108.067 420.033 88.6229 437.493 81.2628C445.963 77.7226 455.446 77.4372 464.114 80.4614C472.783 83.4857 480.024 89.6057 484.442 97.6427L477.779 101.475C474.433 95.3196 468.988 90.5653 462.433 88.0738C455.877 85.5822 448.644 85.5184 442.046 87.8937C435.42 90.3754 429.871 95.0901 426.357 101.223C422.843 107.356 421.585 114.522 422.8 121.483C423.846 128.454 427.359 134.82 432.702 139.427C438.046 144.034 444.866 146.576 451.925 146.594C458.985 146.611 465.817 144.101 471.182 139.52C476.548 134.939 480.092 128.59 481.172 121.624H451.975V114.207L489.409 114.207ZM505.399 79.95H513.394V155.033H505.399V79.95ZM401.471 79.95V155.033H385.359V124.75H355.349V155.033H339.114V79.95H355.349V110.108H385.359V79.95L401.471 79.95ZM332.718 94.5913H314.36V155.033H298.434V94.5912H279.954V79.95H332.718V94.5913ZM246.758 94.4661V110.234H271.065V124.75H246.758V140.517H275.158V155.033H230.388V79.95H275.158V94.466L246.758 94.4661Z" fill="#1F294F"/>
</svg>
