<svg width="150" height="179" viewBox="0 0 150 179" fill="none" xmlns="http://www.w3.org/2000/svg">
<g clip-path="url(#clip0_317_819)">
<path d="M104.749 109.611L88.9656 122.261L131.999 175.956C133.878 178.302 138.936 177.372 143.295 173.878C147.655 170.385 149.665 165.652 147.783 163.306L104.749 109.611Z" fill="url(#paint0_linear_317_819)"/>
<path d="M135.239 178.223C133.55 178.223 132.131 177.685 131.237 176.566C131.073 176.359 88.2027 122.871 88.2027 122.871L87.5897 122.108L104.902 108.232L105.515 108.998C105.515 108.998 148.407 162.515 148.549 162.693C149.693 164.122 149.775 166.197 148.781 168.542C147.872 170.685 146.14 172.852 143.908 174.641C140.985 176.983 137.802 178.223 135.239 178.223ZM90.345 122.411C95.5812 128.945 132.634 175.179 132.766 175.343C134.085 176.987 138.483 176.477 142.682 173.112C144.668 171.522 146.19 169.626 146.977 167.776C147.669 166.151 147.683 164.743 147.02 163.916C146.885 163.748 109.836 117.517 104.599 110.983L90.345 122.407V122.411Z" fill="#1C2952"/>
<path d="M99.7957 119.596C104.154 116.103 106.163 111.37 104.283 109.024C102.403 106.679 97.3459 107.608 92.9879 111.101C88.6299 114.594 86.621 119.327 88.5009 121.672C90.3808 124.018 95.4377 123.088 99.7957 119.596Z" fill="url(#paint1_linear_317_819)"/>
<path d="M91.7351 123.94C90.0455 123.94 88.6304 123.402 87.7322 122.286C85.4795 119.477 87.5183 114.23 92.3731 110.338C97.2244 106.449 102.792 105.597 105.045 108.41C106.189 109.839 106.271 111.914 105.277 114.259C104.368 116.401 102.639 118.568 100.404 120.354C97.481 122.7 94.2979 123.937 91.7351 123.937V123.94ZM101.042 108.731C99.053 108.731 96.2834 109.718 93.5993 111.867C89.4004 115.236 87.9425 119.417 89.2614 121.064C90.5802 122.707 94.9788 122.201 99.1813 118.832C101.163 117.242 102.689 115.346 103.476 113.496C104.168 111.871 104.182 110.463 103.519 109.636C103.045 109.044 102.168 108.731 101.045 108.731H101.042Z" fill="#1C2952"/>
<path d="M86.9872 96.9642L80.4963 102.165L91.3822 115.745C92.2876 116.875 94.4762 116.626 96.2655 115.189C98.0585 113.753 98.7749 111.671 97.8696 110.541L86.9837 96.9606L86.9872 96.9642Z" fill="url(#paint2_linear_317_819)"/>
<path d="M93.0932 117.439C92.0595 117.439 91.1719 117.061 90.6159 116.362C90.4768 116.187 79.73 102.781 79.73 102.781L79.1169 102.019L87.1369 95.5919L87.75 96.3583C87.75 96.3583 98.5646 109.85 98.6359 109.939C99.2811 110.744 99.4165 111.889 99.0066 113.079C98.643 114.131 97.8874 115.154 96.8786 115.959C95.8699 116.768 94.7043 117.282 93.6029 117.41C93.4318 117.428 93.2607 117.439 93.0967 117.439H93.0932ZM81.8722 102.322C84.1606 105.177 92.088 115.068 92.1486 115.147C92.3589 115.41 92.8009 115.528 93.3783 115.464C94.109 115.382 94.936 115.004 95.6525 114.434C96.3689 113.863 96.9143 113.133 97.1531 112.441C97.3385 111.899 97.3242 111.436 97.1068 111.165C97.0426 111.09 89.1223 101.202 86.834 98.3473L81.8722 102.325V102.322Z" fill="#1C2952"/>
<path d="M89.8815 96.4403C89.8815 96.4403 46.9118 101.623 26.5017 79.4592C7.47812 58.8031 11.0462 21.4368 11.0462 21.4368C11.0462 21.4368 19.8468 11.4242 21.0302 10.3334C38.4177 -5.67815 69.0615 -0.695025 89.4716 21.4653C107.201 40.7206 111.379 66.6022 100.767 83.5655C99.1634 86.1283 89.8815 96.4368 89.8815 96.4368V96.4403Z" fill="url(#paint3_linear_317_819)"/>
<path d="M78.8816 97.9409C75.0854 97.9409 70.5692 97.7698 65.7394 97.2352C53.442 95.87 36.5321 91.7958 25.7817 80.1221C15.7798 69.2612 12.0442 53.8449 10.6683 42.8235C9.18551 30.9325 10.0624 21.4367 10.0695 21.344L10.1016 21.0304L10.3119 20.7916C10.6719 20.3816 19.1625 10.7291 20.3708 9.61694C38.1254 -6.74041 69.45 -1.72164 90.1917 20.8022C107.786 39.9078 112.584 66.5237 101.594 84.0858C99.9654 86.6915 90.9865 96.672 90.6051 97.0926L90.3592 97.3671L89.9956 97.4098C89.9279 97.4205 85.4973 97.9374 78.878 97.9374H78.8816V97.9409ZM11.9943 21.8395C11.8589 23.554 11.3064 32.1337 12.6181 42.6239C13.9583 53.3459 17.5798 68.3273 27.2217 78.7962C37.5516 90.0135 53.9624 93.9523 65.9105 95.2818C77.6019 96.5864 87.4292 95.706 89.4039 95.5064C90.8903 93.8489 98.5432 85.2799 99.9405 83.0486C110.47 66.2172 105.765 40.5993 88.7552 22.1282C68.7407 0.399221 38.6565 -4.56965 21.6932 11.0534C20.7807 11.8946 14.5785 18.8988 11.9943 21.8395Z" fill="#1C2952"/>
<path d="M86.4713 100.255C103.861 84.2427 101.413 53.2943 81.0031 31.1303C60.5937 8.96634 29.9518 3.97984 12.5624 19.9926C-4.82705 36.0054 -2.37888 66.9538 18.0305 89.1178C38.4399 111.282 69.0819 116.268 86.4713 100.255Z" fill="url(#paint4_linear_317_819)"/>
<path d="M61.1412 110.62C58.5641 110.62 55.9229 110.406 53.2317 109.964C40.0895 107.825 27.3322 100.657 17.3161 89.7783C-3.42913 67.2544 -5.8601 35.6269 11.8981 19.2731C29.6563 2.91929 60.9808 7.94163 81.7225 30.4619C102.464 52.9858 104.895 84.6169 87.1369 100.971C80.2575 107.305 71.2216 110.62 61.1412 110.62ZM37.9508 11.6023C28.6155 11.6023 19.9039 14.5608 13.2241 20.7131C-3.73924 36.3362 -1.25837 66.7233 18.7526 88.4559C28.4764 99.0138 40.8309 105.968 53.5418 108.035C66.1707 110.092 77.6269 107.066 85.8109 99.5307L86.4739 100.251L85.8109 99.5307C102.774 83.9076 100.293 53.5205 80.2824 31.7879C68.1525 18.6172 52.3156 11.6023 37.9508 11.6023Z" fill="#1C2952"/>
<path d="M80.4369 94.6613C95.2124 81.0555 93.1327 54.7596 75.7917 35.9279C58.4507 17.0961 32.4152 12.8596 17.6397 26.4654C2.86419 40.0712 4.94393 66.3671 22.2849 85.1989C39.6259 104.031 65.6614 108.267 80.4369 94.6613Z" fill="url(#paint5_linear_317_819)"/>
<path d="M58.8814 103.584C46.1705 103.584 32.2298 97.4348 21.5685 85.861C3.88873 66.6627 1.82846 39.6939 16.9775 25.7426C24.3488 18.9523 34.6251 16.2255 45.9103 18.0612C57.1098 19.8826 67.9779 25.9886 76.5112 35.2597C85.0481 44.5274 90.2416 55.8588 91.1363 67.1689C92.0381 78.5681 88.4772 88.5842 81.1023 95.3745C75.089 100.914 67.2472 103.58 58.8778 103.58L58.8814 103.584ZM39.1734 19.4656C31.0607 19.4656 23.807 22.1175 18.3034 27.1862C3.94932 40.4068 6.05949 66.1316 23.0085 84.535C39.9576 102.938 65.4257 107.155 79.7799 93.9345C86.6985 87.5612 90.0384 78.1118 89.1865 67.3257C88.3275 56.4505 83.3122 45.5361 75.0748 36.5857C66.8337 27.6389 56.3684 21.7468 45.6002 19.9931C43.4151 19.6367 41.2658 19.462 39.177 19.462H39.1734V19.4656Z" fill="#1C2952"/>
</g>
<defs>
<linearGradient id="paint0_linear_317_819" x1="161.534" y1="160.216" x2="68.3161" y2="123.036" gradientUnits="userSpaceOnUse">
<stop stop-color="#5869EB"/>
<stop offset="1" stop-color="#B7E9D4"/>
</linearGradient>
<linearGradient id="paint1_linear_317_819" x1="81.1264" y1="115.559" x2="105.96" y2="115.217" gradientUnits="userSpaceOnUse">
<stop stop-color="#233243"/>
<stop offset="1" stop-color="#294481"/>
</linearGradient>
<linearGradient id="paint2_linear_317_819" x1="86.755" y1="109.974" x2="93.2441" y2="104.774" gradientUnits="userSpaceOnUse">
<stop stop-color="#F4BC97"/>
<stop offset="1" stop-color="#F5C56E"/>
</linearGradient>
<linearGradient id="paint3_linear_317_819" x1="-24.1209" y1="30.8541" x2="108.994" y2="59.8368" gradientUnits="userSpaceOnUse">
<stop stop-color="#5869EB"/>
<stop offset="1" stop-color="#B7E9D4"/>
</linearGradient>
<linearGradient id="paint4_linear_317_819" x1="12.5599" y1="19.99" x2="86.4689" y2="100.253" gradientUnits="userSpaceOnUse">
<stop stop-color="#F1B3E5"/>
<stop offset="1" stop-color="#F1B0E4"/>
</linearGradient>
<linearGradient id="paint5_linear_317_819" x1="17.6397" y1="26.4654" x2="80.4369" y2="94.6613" gradientUnits="userSpaceOnUse">
<stop stop-color="#E7E9FC"/>
<stop offset="1" stop-color="#E5E9FC"/>
</linearGradient>
<clipPath id="clip0_317_819">
<rect width="149.451" height="178.223" fill="white" transform="translate(0.0178223)"/>
</clipPath>
</defs>
</svg>
