<svg width="186" height="179" viewBox="0 0 186 179" fill="none" xmlns="http://www.w3.org/2000/svg">
<g clip-path="url(#clip0_317_1054)">
<path d="M184.888 53.7995C184.899 53.8351 184.888 53.885 184.896 53.9242C185.288 53.3325 184.757 53.3397 184.888 53.7995Z" fill="#182955"/>
<path d="M184.521 54.3732C184.521 54.3732 184.528 54.3625 184.532 54.3553C184.55 54.3375 184.557 54.3126 184.571 54.2947C184.92 53.892 184.949 53.4321 184.771 53.0436C184.771 53.0365 184.771 53.0294 184.764 53.0222C184.757 53.0115 184.749 53.0008 184.746 52.9902C184.596 52.5981 184.257 52.3022 183.741 52.2594C183.709 52.2559 183.684 52.2416 183.652 52.2416C183.644 52.2416 183.641 52.2416 183.634 52.2416H29.9551C23.0401 52.2416 16.1107 52.1311 9.19565 52.2416C8.92832 52.2452 8.66098 52.2416 8.39365 52.2416C7.7164 52.2416 7.14252 52.8155 7.14252 53.4927V176.93C7.14252 177.608 7.7164 178.181 8.39365 178.181H176.448C178.718 178.181 181.082 178.374 183.349 178.181C183.445 178.174 183.545 178.181 183.641 178.181C184.318 178.181 184.892 177.608 184.892 176.93V54.6191C184.892 54.4195 184.924 54.145 184.899 53.924C184.817 54.0488 184.707 54.1914 184.525 54.3732H184.521Z" fill="#182955"/>
<path d="M177.047 46.2532H1.80298V169.694H177.047V46.2532Z" fill="url(#paint0_linear_317_1054)"/>
<path d="M3.05414 169.694V46.2533L1.80301 47.5044H174.388C175.083 47.5044 176.077 47.6898 176.754 47.5044C176.84 47.483 176.958 47.5044 177.047 47.5044L175.795 46.2533V169.694L177.047 168.443H8.99611C6.72554 168.443 4.35873 168.251 2.0953 168.443C1.99905 168.45 1.89925 168.443 1.80301 168.443C0.191868 168.443 0.191868 170.946 1.80301 170.946H169.854C172.124 170.946 174.491 171.138 176.754 170.946C176.851 170.938 176.95 170.946 177.047 170.946C177.724 170.946 178.298 170.372 178.298 169.694V46.2533C178.298 45.5761 177.724 45.0022 177.047 45.0022H8.99611C6.72554 45.0022 4.35873 44.8097 2.0953 45.0022C1.99905 45.0093 1.89925 45.0022 1.80301 45.0022C1.12576 45.0022 0.55188 45.5761 0.55188 46.2533V169.694C0.55188 171.306 3.05414 171.306 3.05414 169.694Z" fill="#182955"/>
<path d="M89.7241 118.562L177.047 46.2532H2.39819L89.7241 118.562Z" fill="url(#paint1_linear_317_1054)"/>
<path d="M90.6082 119.45L120.058 95.0616L167.169 56.0485L177.931 47.1373C178.793 46.4208 178.062 45.0022 177.047 45.0022H9.52006C7.27445 45.0022 4.93259 44.8097 2.69054 45.0022C2.5943 45.0093 2.49449 45.0022 2.39825 45.0022C1.38951 45.0022 0.648096 46.4208 1.51426 47.1373L30.9639 71.5254L78.0755 110.539L88.8366 119.45C90.0664 120.469 91.8486 118.708 90.6046 117.682L61.155 93.2936L14.0469 54.2805L3.2858 45.3693L2.40182 47.5044H174.38C175.09 47.5044 176.063 47.6827 176.754 47.5044C176.84 47.483 176.957 47.5044 177.047 47.5044L176.163 45.3693L146.713 69.7574L99.6013 108.771L88.8402 117.682C87.5998 118.708 89.3784 120.473 90.6082 119.45Z" fill="#182955"/>
<path d="M162.443 88.8881C163.833 88.8881 164.959 87.7615 164.959 86.3716C164.959 84.9818 163.833 83.8551 162.443 83.8551C161.053 83.8551 159.926 84.9818 159.926 86.3716C159.926 87.7615 161.053 88.8881 162.443 88.8881Z" fill="url(#paint2_linear_317_1054)"/>
<path d="M163.708 86.3715C163.708 86.4428 163.701 86.5105 163.701 86.5818C163.694 86.785 163.712 86.4713 163.719 86.4535C163.676 86.5497 163.673 86.6816 163.641 86.7814C163.623 86.842 163.584 86.9097 163.573 86.9703C163.576 86.9489 163.712 86.6852 163.619 86.8527C163.555 86.9668 163.491 87.0808 163.416 87.1913C163.288 87.3874 163.587 87.0167 163.469 87.12C163.43 87.1557 163.398 87.202 163.359 87.2412C163.327 87.2733 163.298 87.3018 163.266 87.3339C163.177 87.4159 163.031 87.4658 163.32 87.3054C163.224 87.3588 163.142 87.4301 163.045 87.4836C163.006 87.505 162.967 87.5228 162.928 87.5442C162.728 87.6583 163.231 87.4515 162.953 87.5335C162.846 87.5656 162.739 87.6012 162.628 87.6226C162.496 87.6511 162.436 87.5977 162.725 87.6155C162.667 87.6155 162.607 87.6262 162.55 87.6297C162.432 87.6333 162.318 87.6297 162.201 87.6191C162.029 87.6084 162.536 87.6832 162.297 87.6297C162.229 87.6155 162.165 87.6012 162.101 87.5834C162.037 87.5656 161.972 87.5406 161.908 87.5228C161.798 87.4872 161.833 87.4301 162.022 87.5727C161.937 87.5086 161.823 87.4729 161.734 87.4159C161.687 87.3874 161.644 87.3517 161.598 87.3232C161.463 87.2412 161.841 87.5406 161.673 87.3767C161.584 87.2911 161.495 87.1699 161.399 87.0951C161.577 87.2305 161.541 87.2911 161.473 87.1913C161.438 87.1379 161.399 87.0844 161.366 87.0274C161.345 86.9881 161.324 86.9525 161.302 86.9133C161.242 86.7992 161.245 86.6638 161.317 86.9703C161.292 86.8634 161.242 86.76 161.213 86.6531C161.202 86.6103 161.195 86.564 161.185 86.5212C161.131 86.2859 161.21 86.8491 161.188 86.5462C161.181 86.4428 161.181 86.3358 161.188 86.2325C161.195 86.1148 161.267 85.9438 161.174 86.2895C161.185 86.2467 161.192 86.2004 161.199 86.1541C161.224 86.0436 161.26 85.9402 161.295 85.8333C161.37 85.598 161.153 86.1042 161.274 85.8867C161.306 85.8297 161.334 85.7691 161.37 85.7121C161.399 85.6657 161.431 85.6194 161.459 85.573C161.534 85.4554 161.605 85.4911 161.402 85.6443C161.484 85.5837 161.552 85.4768 161.627 85.4055C161.659 85.3734 161.83 85.2487 161.652 85.377C161.473 85.5053 161.652 85.377 161.684 85.3592C161.787 85.2879 161.937 85.2451 162.029 85.1667C162.015 85.1774 161.726 85.2772 161.915 85.2166C161.98 85.1952 162.04 85.1738 162.108 85.156C162.176 85.1382 162.511 85.0812 162.275 85.1097C162.04 85.1382 162.425 85.1097 162.489 85.1097C162.546 85.1097 162.607 85.1168 162.664 85.1168C162.91 85.1239 162.382 85.0562 162.603 85.1097C162.735 85.1417 162.864 85.1774 162.992 85.2166C163.216 85.2879 162.774 85.0954 162.906 85.181C162.97 85.2237 163.045 85.2522 163.109 85.2915C163.149 85.3128 163.184 85.3378 163.22 85.3627C163.494 85.5445 163.077 85.2202 163.227 85.3663C163.306 85.4447 163.38 85.5196 163.459 85.598C163.63 85.7727 163.291 85.3449 163.427 85.5517C163.462 85.6087 163.502 85.6586 163.534 85.7156C163.566 85.7727 163.598 85.8333 163.63 85.8903C163.737 86.0828 163.537 85.6087 163.609 85.8368C163.651 85.9651 163.683 86.0935 163.715 86.2253C163.74 86.3358 163.683 86.3715 163.701 86.097C163.694 86.1861 163.715 86.2859 163.715 86.3751C163.726 87.0309 164.286 87.6583 164.967 87.6262C165.647 87.5941 166.228 87.0773 166.218 86.3751C166.196 84.7568 165.188 83.3845 163.687 82.8213C162.297 82.2973 160.561 82.7607 159.613 83.9084C158.593 85.1453 158.372 86.8919 159.21 88.2963C160.048 89.7007 161.652 90.3423 163.231 90.0572C164.967 89.7435 166.193 88.0931 166.218 86.3751C166.228 85.7192 165.637 85.0954 164.967 85.1239C164.296 85.1524 163.726 85.6729 163.715 86.3751L163.708 86.3715Z" fill="#182955"/>
<path d="M125.012 92.3704C121.223 94.1954 119.865 95.9206 118.5 100.811C118.397 101.185 117.866 101.185 117.762 100.811C116.397 95.9242 115.043 94.1954 111.25 92.3704C110.958 92.2278 110.958 91.8179 111.25 91.6753C115.039 89.8503 116.397 88.1251 117.762 83.2347C117.866 82.8604 118.397 82.8604 118.5 83.2347C119.865 88.1216 121.22 89.8503 125.012 91.6753C125.305 91.8179 125.305 92.2278 125.012 92.3704Z" fill="url(#paint3_linear_317_1054)"/>
<path d="M124.382 91.2904C122.688 92.1138 121.077 93.1261 119.908 94.6303C119.313 95.3931 118.846 96.2165 118.461 97.1041C118.233 97.6281 118.026 98.1592 117.841 98.6974C117.759 98.9362 117.68 99.1786 117.605 99.421C117.552 99.5921 117.502 99.7632 117.449 99.9343C117.274 100.337 117.392 100.319 117.798 99.8808H118.464C118.874 100.319 118.988 100.337 118.814 99.9343C118.764 99.7632 118.71 99.5921 118.657 99.421C118.582 99.1786 118.504 98.9362 118.422 98.6974C118.236 98.1592 118.03 97.6281 117.802 97.1041C117.417 96.2165 116.95 95.3931 116.354 94.6303C115.795 93.9139 115.15 93.3151 114.419 92.7768C114.073 92.5237 113.717 92.2885 113.349 92.0711C113.136 91.9427 112.918 91.8215 112.697 91.7075C112.145 91.4116 112.091 91.1479 112.091 92.0283C112.091 92.9087 112.145 92.6414 112.697 92.3491C112.886 92.2493 113.075 92.1459 113.26 92.0354C113.66 91.8037 114.048 91.5506 114.419 91.2762C115.146 90.7379 115.795 90.1391 116.354 89.4227C116.95 88.6599 117.417 87.8365 117.802 86.9489C118.03 86.4249 118.236 85.8938 118.422 85.3556C118.504 85.1168 118.582 84.8744 118.657 84.632C118.71 84.4609 118.76 84.2898 118.814 84.1187C118.988 83.7159 118.871 83.7338 118.464 84.1722H117.798C117.388 83.7338 117.274 83.7159 117.449 84.1187C117.499 84.2898 117.552 84.4609 117.605 84.632C117.68 84.8744 117.759 85.1168 117.841 85.3556C118.026 85.8938 118.233 86.4249 118.461 86.9489C118.846 87.8365 119.313 88.6599 119.908 89.4227C120.468 90.1391 121.113 90.7379 121.844 91.2762C122.214 91.5506 122.603 91.8037 123.002 92.0354C123.187 92.1423 123.376 92.2457 123.565 92.3491C123.697 92.4204 123.829 92.4881 123.964 92.5558C124.453 92.8766 124.51 92.5202 124.128 91.4936C123.597 91.9213 123.694 92.816 124.128 93.2616C124.645 93.7891 125.372 93.6822 125.896 93.2616C126.87 92.481 126.502 91.1193 125.536 90.549C124.777 90.0999 123.975 89.7542 123.255 89.2266C122.057 88.3462 121.234 87.1343 120.66 85.7798C120.243 84.8031 120.065 83.7266 119.644 82.7571C119.188 81.7127 117.805 81.3349 116.96 82.1975C116.572 82.5967 116.479 83.192 116.322 83.7052C116.165 84.2185 115.998 84.7389 115.805 85.2451C115.517 86.015 115.16 86.76 114.708 87.4479C113.859 88.7347 112.583 89.5866 111.236 90.2853C110.263 90.7878 109.261 91.6932 110.024 92.8873C110.509 93.643 111.688 93.9709 112.43 94.4414C113.717 95.2541 114.658 96.3342 115.328 97.6958C115.745 98.5406 116.044 99.4388 116.315 100.341C116.636 101.406 117.146 102.64 118.532 102.28C119.808 101.948 119.919 100.301 120.282 99.2463C120.596 98.3481 120.974 97.4748 121.491 96.6728C122.478 95.1436 124.029 94.2276 125.633 93.4469C127.08 92.7412 125.814 90.5847 124.371 91.2869L124.382 91.2904Z" fill="#FDB98C"/>
<path d="M124.382 91.2904C122.688 92.1138 121.077 93.1261 119.908 94.6303C119.313 95.3931 118.846 96.2165 118.461 97.1041C118.233 97.6281 118.026 98.1592 117.841 98.6974C117.759 98.9362 117.68 99.1786 117.605 99.421C117.552 99.5921 117.502 99.7632 117.449 99.9343C117.274 100.337 117.392 100.319 117.798 99.8808H118.464C118.874 100.319 118.988 100.337 118.814 99.9343C118.764 99.7632 118.71 99.5921 118.657 99.421C118.582 99.1786 118.504 98.9362 118.422 98.6974C118.236 98.1592 118.03 97.6281 117.802 97.1041C117.417 96.2165 116.95 95.3931 116.354 94.6303C115.795 93.9139 115.15 93.3151 114.419 92.7768C114.073 92.5237 113.717 92.2885 113.349 92.0711C113.136 91.9427 112.918 91.8215 112.697 91.7075C112.145 91.4116 112.091 91.1479 112.091 92.0283C112.091 92.9087 112.145 92.6414 112.697 92.3491C112.886 92.2493 113.075 92.1459 113.26 92.0354C113.66 91.8037 114.048 91.5506 114.419 91.2762C115.146 90.7379 115.795 90.1391 116.354 89.4227C116.95 88.6599 117.417 87.8365 117.802 86.9489C118.03 86.4249 118.236 85.8938 118.422 85.3556C118.504 85.1168 118.582 84.8744 118.657 84.632C118.71 84.4609 118.76 84.2898 118.814 84.1187C118.988 83.7159 118.871 83.7338 118.464 84.1722H117.798C117.388 83.7338 117.274 83.7159 117.449 84.1187C117.499 84.2898 117.552 84.4609 117.605 84.632C117.68 84.8744 117.759 85.1168 117.841 85.3556C118.026 85.8938 118.233 86.4249 118.461 86.9489C118.846 87.8365 119.313 88.6599 119.908 89.4227C120.468 90.1391 121.113 90.7379 121.844 91.2762C122.214 91.5506 122.603 91.8037 123.002 92.0354C123.187 92.1423 123.376 92.2457 123.565 92.3491C123.697 92.4204 123.829 92.4881 123.964 92.5558C124.453 92.8766 124.51 92.5202 124.128 91.4936C123.597 91.9213 123.694 92.816 124.128 93.2616C124.645 93.7891 125.372 93.6822 125.896 93.2616C126.87 92.481 126.502 91.1193 125.536 90.549C124.777 90.0999 123.975 89.7542 123.255 89.2266C122.057 88.3462 121.234 87.1343 120.66 85.7798C120.243 84.8031 120.065 83.7266 119.644 82.7571C119.188 81.7127 117.805 81.3349 116.96 82.1975C116.572 82.5967 116.479 83.192 116.322 83.7052C116.165 84.2185 115.998 84.7389 115.805 85.2451C115.517 86.015 115.16 86.76 114.708 87.4479C113.859 88.7347 112.583 89.5866 111.236 90.2853C110.263 90.7878 109.261 91.6932 110.024 92.8873C110.509 93.643 111.688 93.9709 112.43 94.4414C113.717 95.2541 114.658 96.3342 115.328 97.6958C115.745 98.5406 116.044 99.4388 116.315 100.341C116.636 101.406 117.146 102.64 118.532 102.28C119.808 101.948 119.919 100.301 120.282 99.2463C120.596 98.3481 120.974 97.4748 121.491 96.6728C122.478 95.1436 124.029 94.2276 125.633 93.4469C127.08 92.7412 125.814 90.5847 124.371 91.2869L124.382 91.2904Z" fill="#182955"/>
<path d="M153.439 124.643C149.65 126.468 148.292 128.193 146.927 133.084C146.823 133.458 146.292 133.458 146.189 133.084C144.824 128.197 143.469 126.468 139.677 124.643C139.384 124.501 139.384 124.091 139.677 123.948C143.466 122.123 144.824 120.398 146.189 115.507C146.292 115.133 146.823 115.133 146.927 115.507C148.292 120.394 149.646 122.123 153.439 123.948C153.731 124.091 153.731 124.501 153.439 124.643Z" fill="url(#paint4_linear_317_1054)"/>
<path d="M152.808 123.563C151.115 124.387 149.504 125.399 148.335 126.903C147.739 127.666 147.273 128.489 146.888 129.377C146.659 129.901 146.453 130.432 146.267 130.97C146.185 131.209 146.107 131.451 146.032 131.694C145.979 131.865 145.929 132.036 145.875 132.207C145.701 132.61 145.818 132.592 146.225 132.154H146.891C147.301 132.592 147.415 132.61 147.24 132.207C147.191 132.036 147.137 131.865 147.084 131.694C147.009 131.451 146.93 131.209 146.848 130.97C146.663 130.432 146.456 129.901 146.228 129.377C145.843 128.489 145.376 127.666 144.781 126.903C144.221 126.187 143.576 125.588 142.845 125.05C142.5 124.796 142.143 124.561 141.776 124.344C141.562 124.215 141.345 124.094 141.124 123.98C140.571 123.684 140.518 123.421 140.518 124.301C140.518 125.181 140.571 124.914 141.124 124.622C141.313 124.522 141.502 124.419 141.687 124.308C142.086 124.076 142.475 123.823 142.845 123.549C143.573 123.011 144.221 122.412 144.781 121.695C145.376 120.933 145.843 120.109 146.228 119.222C146.456 118.698 146.663 118.167 146.848 117.628C146.93 117.389 147.009 117.147 147.084 116.905C147.137 116.734 147.187 116.563 147.24 116.391C147.415 115.989 147.297 116.006 146.891 116.445H146.225C145.815 116.006 145.701 115.989 145.875 116.391C145.925 116.563 145.979 116.734 146.032 116.905C146.107 117.147 146.185 117.389 146.267 117.628C146.453 118.167 146.659 118.698 146.888 119.222C147.273 120.109 147.739 120.933 148.335 121.695C148.894 122.412 149.54 123.011 150.27 123.549C150.641 123.823 151.029 124.076 151.429 124.308C151.614 124.415 151.803 124.518 151.992 124.622C152.124 124.693 152.256 124.761 152.391 124.829C152.879 125.149 152.936 124.793 152.555 123.766C152.024 124.194 152.12 125.089 152.555 125.534C153.072 126.062 153.799 125.955 154.323 125.534C155.296 124.754 154.929 123.392 153.963 122.822C153.204 122.373 152.402 122.027 151.682 121.499C150.484 120.619 149.661 119.407 149.087 118.052C148.67 117.076 148.492 115.999 148.071 115.03C147.615 113.985 146.232 113.608 145.387 114.47C144.998 114.869 144.906 115.465 144.749 115.978C144.592 116.491 144.425 117.012 144.232 117.518C143.943 118.288 143.587 119.033 143.134 119.721C142.286 121.007 141.01 121.859 139.662 122.558C138.689 123.061 137.688 123.966 138.45 125.16C138.935 125.916 140.115 126.244 140.856 126.714C142.143 127.527 143.084 128.607 143.754 129.968C144.171 130.813 144.471 131.712 144.742 132.613C145.063 133.679 145.572 134.912 146.959 134.552C148.235 134.221 148.345 132.574 148.709 131.519C149.023 130.621 149.401 129.747 149.917 128.945C150.905 127.416 152.455 126.5 154.059 125.72C155.506 125.014 154.241 122.857 152.797 123.56L152.808 123.563Z" fill="#FDB98C"/>
<path d="M152.808 123.563C151.115 124.387 149.504 125.399 148.335 126.903C147.739 127.666 147.273 128.489 146.888 129.377C146.659 129.901 146.453 130.432 146.267 130.97C146.185 131.209 146.107 131.451 146.032 131.694C145.979 131.865 145.929 132.036 145.875 132.207C145.701 132.61 145.818 132.592 146.225 132.154H146.891C147.301 132.592 147.415 132.61 147.24 132.207C147.191 132.036 147.137 131.865 147.084 131.694C147.009 131.451 146.93 131.209 146.848 130.97C146.663 130.432 146.456 129.901 146.228 129.377C145.843 128.489 145.376 127.666 144.781 126.903C144.221 126.187 143.576 125.588 142.845 125.05C142.5 124.796 142.143 124.561 141.776 124.344C141.562 124.215 141.345 124.094 141.124 123.98C140.571 123.684 140.518 123.421 140.518 124.301C140.518 125.181 140.571 124.914 141.124 124.622C141.313 124.522 141.502 124.419 141.687 124.308C142.086 124.076 142.475 123.823 142.845 123.549C143.573 123.011 144.221 122.412 144.781 121.695C145.376 120.933 145.843 120.109 146.228 119.222C146.456 118.698 146.663 118.167 146.848 117.628C146.93 117.389 147.009 117.147 147.084 116.905C147.137 116.734 147.187 116.563 147.24 116.391C147.415 115.989 147.297 116.006 146.891 116.445H146.225C145.815 116.006 145.701 115.989 145.875 116.391C145.925 116.563 145.979 116.734 146.032 116.905C146.107 117.147 146.185 117.389 146.267 117.628C146.453 118.167 146.659 118.698 146.888 119.222C147.273 120.109 147.739 120.933 148.335 121.695C148.894 122.412 149.54 123.011 150.27 123.549C150.641 123.823 151.029 124.076 151.429 124.308C151.614 124.415 151.803 124.518 151.992 124.622C152.124 124.693 152.256 124.761 152.391 124.829C152.879 125.149 152.936 124.793 152.555 123.766C152.024 124.194 152.12 125.089 152.555 125.534C153.072 126.062 153.799 125.955 154.323 125.534C155.296 124.754 154.929 123.392 153.963 122.822C153.204 122.373 152.402 122.027 151.682 121.499C150.484 120.619 149.661 119.407 149.087 118.052C148.67 117.076 148.492 115.999 148.071 115.03C147.615 113.985 146.232 113.608 145.387 114.47C144.998 114.869 144.906 115.465 144.749 115.978C144.592 116.491 144.425 117.012 144.232 117.518C143.943 118.288 143.587 119.033 143.134 119.721C142.286 121.007 141.01 121.859 139.662 122.558C138.689 123.061 137.688 123.966 138.45 125.16C138.935 125.916 140.115 126.244 140.856 126.714C142.143 127.527 143.084 128.607 143.754 129.968C144.171 130.813 144.471 131.712 144.742 132.613C145.063 133.679 145.572 134.912 146.959 134.552C148.235 134.221 148.345 132.574 148.709 131.519C149.023 130.621 149.401 129.747 149.917 128.945C150.905 127.416 152.455 126.5 154.059 125.72C155.506 125.014 154.241 122.857 152.797 123.56L152.808 123.563Z" fill="#182955"/>
<path d="M153.439 41.6944C149.65 43.5194 148.292 45.2446 146.927 50.1351C146.823 50.5093 146.292 50.5093 146.189 50.1351C144.824 45.2482 143.469 43.5194 139.677 41.6944C139.384 41.5518 139.384 41.1419 139.677 40.9993C143.466 39.1743 144.824 37.4491 146.189 32.5587C146.292 32.1844 146.823 32.1844 146.927 32.5587C148.292 37.4455 149.646 39.1743 153.439 40.9993C153.731 41.1419 153.731 41.5518 153.439 41.6944Z" fill="url(#paint5_linear_317_1054)"/>
<path d="M152.808 40.6143C151.115 41.4377 149.504 42.45 148.335 43.9542C147.739 44.717 147.273 45.5404 146.888 46.4279C146.659 46.9519 146.453 47.483 146.267 48.0213C146.185 48.2601 146.107 48.5025 146.032 48.7448C145.979 48.9159 145.929 49.087 145.875 49.2581C145.701 49.6609 145.818 49.6431 146.225 49.2047H146.891C147.301 49.6431 147.415 49.6609 147.24 49.2581C147.191 49.087 147.137 48.9159 147.084 48.7448C147.009 48.5025 146.93 48.2601 146.848 48.0213C146.663 47.483 146.456 46.9519 146.228 46.4279C145.843 45.5404 145.376 44.717 144.781 43.9542C144.221 43.2377 143.576 42.6389 142.845 42.1007C142.5 41.8476 142.143 41.6123 141.776 41.3949C141.562 41.2666 141.345 41.1454 141.124 41.0313C140.571 40.7355 140.518 40.4717 140.518 41.3521C140.518 42.2326 140.571 41.9652 141.124 41.6729C141.313 41.5731 141.502 41.4698 141.687 41.3593C142.086 41.1276 142.475 40.8745 142.845 40.6C143.573 40.0618 144.221 39.463 144.781 38.7465C145.376 37.9837 145.843 37.1603 146.228 36.2728C146.456 35.7488 146.663 35.2177 146.848 34.6794C146.93 34.4406 147.009 34.1982 147.084 33.9559C147.137 33.7848 147.187 33.6137 147.24 33.4426C147.415 33.0398 147.297 33.0576 146.891 33.496H146.225C145.815 33.0576 145.701 33.0398 145.875 33.4426C145.925 33.6137 145.979 33.7848 146.032 33.9559C146.107 34.1982 146.185 34.4406 146.267 34.6794C146.453 35.2177 146.659 35.7488 146.888 36.2728C147.273 37.1603 147.739 37.9837 148.335 38.7465C148.894 39.463 149.54 40.0618 150.27 40.6C150.641 40.8745 151.029 41.1276 151.429 41.3593C151.614 41.4662 151.803 41.5696 151.992 41.6729C152.124 41.7442 152.256 41.812 152.391 41.8797C152.879 42.2005 152.936 41.844 152.555 40.8175C152.024 41.2452 152.12 42.1399 152.555 42.5854C153.072 43.113 153.799 43.0061 154.323 42.5854C155.296 41.8048 154.929 40.4432 153.963 39.8729C153.204 39.4238 152.402 39.078 151.682 38.5505C150.484 37.67 149.661 36.4581 149.087 35.1036C148.67 34.127 148.492 33.0505 148.071 32.0809C147.615 31.0366 146.232 30.6587 145.387 31.5213C144.998 31.9205 144.906 32.5158 144.749 33.0291C144.592 33.5424 144.425 34.0628 144.232 34.569C143.943 35.3389 143.587 36.0839 143.134 36.7718C142.286 38.0586 141.01 38.9105 139.662 39.6091C138.689 40.1117 137.688 41.0171 138.45 42.2112C138.935 42.9668 140.115 43.2948 140.856 43.7653C142.143 44.578 143.084 45.658 143.754 47.0196C144.171 47.8644 144.471 48.7627 144.742 49.6645C145.063 50.7303 145.572 51.9636 146.959 51.6035C148.235 51.2721 148.345 49.6253 148.709 48.5702C149.023 47.6719 149.401 46.7986 149.917 45.9966C150.905 44.4675 152.455 43.5514 154.059 42.7708C155.506 42.065 154.241 39.9085 152.797 40.6107L152.808 40.6143Z" fill="#FDB98C"/>
<path d="M152.808 40.6143C151.115 41.4377 149.504 42.45 148.335 43.9542C147.739 44.717 147.273 45.5404 146.888 46.4279C146.659 46.9519 146.453 47.483 146.267 48.0213C146.185 48.2601 146.107 48.5025 146.032 48.7448C145.979 48.9159 145.929 49.087 145.875 49.2581C145.701 49.6609 145.818 49.6431 146.225 49.2047H146.891C147.301 49.6431 147.415 49.6609 147.24 49.2581C147.191 49.087 147.137 48.9159 147.084 48.7448C147.009 48.5025 146.93 48.2601 146.848 48.0213C146.663 47.483 146.456 46.9519 146.228 46.4279C145.843 45.5404 145.376 44.717 144.781 43.9542C144.221 43.2377 143.576 42.6389 142.845 42.1007C142.5 41.8476 142.143 41.6123 141.776 41.3949C141.562 41.2666 141.345 41.1454 141.124 41.0313C140.571 40.7355 140.518 40.4717 140.518 41.3521C140.518 42.2326 140.571 41.9652 141.124 41.6729C141.313 41.5731 141.502 41.4698 141.687 41.3593C142.086 41.1276 142.475 40.8745 142.845 40.6C143.573 40.0618 144.221 39.463 144.781 38.7465C145.376 37.9837 145.843 37.1603 146.228 36.2728C146.456 35.7488 146.663 35.2177 146.848 34.6794C146.93 34.4406 147.009 34.1982 147.084 33.9559C147.137 33.7848 147.187 33.6137 147.24 33.4426C147.415 33.0398 147.297 33.0576 146.891 33.496H146.225C145.815 33.0576 145.701 33.0398 145.875 33.4426C145.925 33.6137 145.979 33.7848 146.032 33.9559C146.107 34.1982 146.185 34.4406 146.267 34.6794C146.453 35.2177 146.659 35.7488 146.888 36.2728C147.273 37.1603 147.739 37.9837 148.335 38.7465C148.894 39.463 149.54 40.0618 150.27 40.6C150.641 40.8745 151.029 41.1276 151.429 41.3593C151.614 41.4662 151.803 41.5696 151.992 41.6729C152.124 41.7442 152.256 41.812 152.391 41.8797C152.879 42.2005 152.936 41.844 152.555 40.8175C152.024 41.2452 152.12 42.1399 152.555 42.5854C153.072 43.113 153.799 43.0061 154.323 42.5854C155.296 41.8048 154.929 40.4432 153.963 39.8729C153.204 39.4238 152.402 39.078 151.682 38.5505C150.484 37.67 149.661 36.4581 149.087 35.1036C148.67 34.127 148.492 33.0505 148.071 32.0809C147.615 31.0366 146.232 30.6587 145.387 31.5213C144.998 31.9205 144.906 32.5158 144.749 33.0291C144.592 33.5424 144.425 34.0628 144.232 34.569C143.943 35.3389 143.587 36.0839 143.134 36.7718C142.286 38.0586 141.01 38.9105 139.662 39.6091C138.689 40.1117 137.688 41.0171 138.45 42.2112C138.935 42.9668 140.115 43.2948 140.856 43.7653C142.143 44.578 143.084 45.658 143.754 47.0196C144.171 47.8644 144.471 48.7627 144.742 49.6645C145.063 50.7303 145.572 51.9636 146.959 51.6035C148.235 51.2721 148.345 49.6253 148.709 48.5702C149.023 47.6719 149.401 46.7986 149.917 45.9966C150.905 44.4675 152.455 43.5514 154.059 42.7708C155.506 42.065 154.241 39.9085 152.797 40.6107L152.808 40.6143Z" fill="#182955"/>
<path d="M115.616 33.4959C117.006 33.4959 118.133 32.3692 118.133 30.9794C118.133 29.5896 117.006 28.4629 115.616 28.4629C114.227 28.4629 113.1 29.5896 113.1 30.9794C113.1 32.3692 114.227 33.4959 115.616 33.4959Z" fill="url(#paint6_linear_317_1054)"/>
<path d="M116.878 30.9795C116.878 31.0508 116.871 31.1185 116.871 31.1898C116.864 31.393 116.882 31.0793 116.889 31.0615C116.846 31.1577 116.843 31.2896 116.811 31.3894C116.793 31.45 116.754 31.5178 116.743 31.5784C116.746 31.557 116.882 31.2932 116.789 31.4607C116.725 31.5748 116.661 31.6889 116.586 31.7994C116.458 31.9954 116.757 31.6247 116.64 31.7281C116.6 31.7637 116.568 31.81 116.529 31.8493C116.497 31.8813 116.468 31.9098 116.436 31.9419C116.347 32.0239 116.201 32.0738 116.49 31.9134C116.394 31.9669 116.312 32.0382 116.215 32.0916C116.176 32.113 116.137 32.1308 116.098 32.1522C115.898 32.2663 116.401 32.0596 116.123 32.1415C116.016 32.1736 115.909 32.2093 115.798 32.2307C115.666 32.2592 115.606 32.2057 115.895 32.2235C115.838 32.2235 115.777 32.2342 115.72 32.2378C115.602 32.2413 115.488 32.2378 115.371 32.2271C115.199 32.2164 115.706 32.2912 115.467 32.2378C115.399 32.2235 115.335 32.2093 115.271 32.1914C115.207 32.1736 115.142 32.1487 115.078 32.1308C114.968 32.0952 115.003 32.0382 115.192 32.1807C115.107 32.1166 114.993 32.0809 114.904 32.0239C114.857 31.9954 114.815 31.9597 114.768 31.9312C114.633 31.8493 115.011 32.1487 114.843 31.9847C114.754 31.8992 114.665 31.778 114.569 31.7031C114.747 31.8386 114.711 31.8992 114.643 31.7994C114.608 31.7459 114.569 31.6924 114.536 31.6354C114.515 31.5962 114.494 31.5605 114.472 31.5213C114.412 31.4073 114.415 31.2718 114.487 31.5784C114.462 31.4714 114.412 31.368 114.383 31.2611C114.373 31.2183 114.365 31.172 114.355 31.1292C114.301 30.894 114.38 31.4572 114.358 31.1542C114.351 31.0508 114.351 30.9439 114.358 30.8405C114.365 30.7229 114.437 30.5518 114.344 30.8975C114.355 30.8548 114.362 30.8084 114.369 30.7621C114.394 30.6516 114.43 30.5482 114.465 30.4413C114.54 30.206 114.323 30.7122 114.444 30.4948C114.476 30.4377 114.504 30.3771 114.54 30.3201C114.569 30.2738 114.601 30.2274 114.629 30.1811C114.704 30.0635 114.775 30.0991 114.572 30.2524C114.654 30.1918 114.722 30.0848 114.797 30.0136C114.829 29.9815 115 29.8567 114.822 29.985C114.643 30.1134 114.822 29.985 114.854 29.9672C114.957 29.8959 115.107 29.8531 115.199 29.7747C115.185 29.7854 114.897 29.8852 115.085 29.8246C115.15 29.8032 115.21 29.7819 115.278 29.764C115.346 29.7462 115.681 29.6892 115.445 29.7177C115.21 29.7462 115.595 29.7177 115.659 29.7177C115.716 29.7177 115.777 29.7248 115.834 29.7248C116.08 29.732 115.552 29.6642 115.773 29.7177C115.905 29.7498 116.034 29.7854 116.162 29.8246C116.386 29.8959 115.944 29.7034 116.076 29.789C116.141 29.8318 116.215 29.8603 116.28 29.8995C116.319 29.9209 116.354 29.9458 116.39 29.9708C116.664 30.1526 116.247 29.8282 116.397 29.9743C116.476 30.0528 116.55 30.1276 116.629 30.206C116.8 30.3807 116.461 29.953 116.597 30.1597C116.632 30.2167 116.672 30.2666 116.704 30.3237C116.736 30.3807 116.768 30.4413 116.8 30.4983C116.907 30.6908 116.707 30.2167 116.779 30.4449C116.821 30.5732 116.853 30.7015 116.885 30.8334C116.91 30.9439 116.853 30.9795 116.871 30.7051C116.864 30.7942 116.885 30.894 116.885 30.9831C116.896 31.6389 117.456 32.2663 118.137 32.2342C118.817 32.2021 119.398 31.6853 119.388 30.9831C119.366 29.3648 118.358 27.9925 116.857 27.4293C115.467 26.9053 113.731 27.3687 112.783 28.5165C111.763 29.7533 111.542 31.4999 112.38 32.9043C113.218 34.3087 114.822 34.9503 116.401 34.6652C118.137 34.3515 119.363 32.7012 119.388 30.9831C119.398 30.3272 118.807 29.7034 118.137 29.732C117.466 29.7605 116.896 30.2809 116.885 30.9831L116.878 30.9795Z" fill="#182955"/>
<path d="M136.469 6.99067C137.858 6.99067 138.985 5.86399 138.985 4.47416C138.985 3.08432 137.858 1.95764 136.469 1.95764C135.079 1.95764 133.952 3.08432 133.952 4.47416C133.952 5.86399 135.079 6.99067 136.469 6.99067Z" fill="url(#paint7_linear_317_1054)"/>
<path d="M137.73 4.47415C137.73 4.54544 137.723 4.61316 137.723 4.68445C137.716 4.88763 137.734 4.57396 137.741 4.55613C137.698 4.65237 137.695 4.78426 137.663 4.88406C137.645 4.94466 137.606 5.01238 137.595 5.07298C137.599 5.05159 137.734 4.78782 137.641 4.95535C137.577 5.06942 137.513 5.18348 137.438 5.29398C137.31 5.49002 137.609 5.11932 137.492 5.22269C137.452 5.25833 137.42 5.30467 137.381 5.34388C137.349 5.37596 137.321 5.40448 137.288 5.43656C137.199 5.51854 137.053 5.56844 137.342 5.40804C137.246 5.46151 137.164 5.5328 137.067 5.58626C137.028 5.60765 136.989 5.62547 136.95 5.64686C136.75 5.76092 137.253 5.55418 136.975 5.63617C136.868 5.66825 136.761 5.70389 136.65 5.72528C136.519 5.75379 136.458 5.70033 136.747 5.71815C136.69 5.71815 136.629 5.72884 136.572 5.73241C136.454 5.73597 136.34 5.73241 136.223 5.72171C136.052 5.71102 136.558 5.78587 136.319 5.73241C136.251 5.71815 136.187 5.70389 136.123 5.68607C136.059 5.66825 135.995 5.6433 135.93 5.62547C135.82 5.58983 135.856 5.5328 136.044 5.67538C135.959 5.61122 135.845 5.57557 135.756 5.51854C135.709 5.49002 135.667 5.45438 135.62 5.42586C135.485 5.34388 135.863 5.6433 135.695 5.47933C135.606 5.39378 135.517 5.27259 135.421 5.19774C135.599 5.33319 135.563 5.39378 135.496 5.29398C135.46 5.24051 135.421 5.18704 135.389 5.13001C135.367 5.0908 135.346 5.05516 135.324 5.01595C135.264 4.90189 135.267 4.76644 135.339 5.07298C135.314 4.96605 135.264 4.86268 135.235 4.75574C135.225 4.71297 135.218 4.66663 135.207 4.62386C135.153 4.3886 135.232 4.95179 135.21 4.64881C135.203 4.54544 135.203 4.43851 135.21 4.33514C135.218 4.21751 135.289 4.04641 135.196 4.39217C135.207 4.34939 135.214 4.30306 135.221 4.25672C135.246 4.14622 135.282 4.04285 135.317 3.93592C135.392 3.70066 135.175 4.20681 135.296 3.98938C135.328 3.93235 135.357 3.87175 135.392 3.81472C135.421 3.76838 135.453 3.72205 135.481 3.67571C135.556 3.55808 135.627 3.59373 135.424 3.747C135.506 3.6864 135.574 3.57947 135.649 3.50818C135.681 3.4761 135.852 3.35134 135.674 3.47966C135.496 3.60798 135.674 3.47966 135.706 3.46184C135.809 3.39055 135.959 3.34778 136.052 3.26936C136.037 3.28005 135.749 3.37986 135.938 3.31926C136.002 3.29787 136.062 3.27649 136.13 3.25867C136.198 3.24084 136.533 3.18381 136.298 3.21233C136.062 3.24084 136.447 3.21233 136.511 3.21233C136.568 3.21233 136.629 3.21946 136.686 3.21946C136.932 3.22659 136.404 3.15886 136.625 3.21233C136.757 3.24441 136.886 3.28005 137.014 3.31926C137.239 3.39055 136.797 3.19807 136.928 3.28362C136.993 3.32639 137.067 3.35491 137.132 3.39412C137.171 3.4155 137.206 3.44045 137.242 3.4654C137.517 3.64719 137.1 3.32283 137.249 3.46897C137.328 3.54739 137.403 3.62224 137.481 3.70066C137.652 3.87532 137.313 3.44758 137.449 3.65432C137.485 3.71135 137.524 3.76126 137.556 3.81829C137.588 3.87532 137.62 3.93591 137.652 3.99295C137.759 4.18543 137.559 3.71135 137.631 3.93948C137.673 4.0678 137.706 4.19612 137.738 4.32801C137.763 4.43851 137.706 4.47415 137.723 4.19969C137.716 4.2888 137.738 4.3886 137.738 4.47771C137.748 5.13358 138.308 5.76092 138.989 5.72884C139.67 5.69676 140.251 5.17991 140.24 4.47771C140.218 2.85945 139.21 1.48712 137.709 0.923938C136.319 0.399961 134.583 0.863342 133.635 2.0111C132.615 3.24797 132.394 4.99456 133.232 6.39896C134.07 7.80336 135.674 8.44497 137.253 8.15981C138.989 7.84614 140.215 6.19579 140.24 4.47771C140.251 3.82185 139.659 3.19807 138.989 3.22659C138.319 3.2551 137.748 3.77551 137.738 4.47771L137.73 4.47415Z" fill="#182955"/>
</g>
<defs>
<linearGradient id="paint0_linear_317_1054" x1="-6.37748" y1="171.919" x2="205.623" y2="30.4127" gradientUnits="userSpaceOnUse">
<stop stop-color="#FBB890"/>
<stop offset="1" stop-color="#546AF1"/>
</linearGradient>
<linearGradient id="paint1_linear_317_1054" x1="2.39819" y1="82.4076" x2="177.047" y2="82.4076" gradientUnits="userSpaceOnUse">
<stop offset="0.28" stop-color="#546AF1"/>
<stop offset="0.97" stop-color="#546AF1"/>
</linearGradient>
<linearGradient id="paint2_linear_317_1054" x1="142.268" y1="106.942" x2="175.307" y2="73.2579" gradientUnits="userSpaceOnUse">
<stop offset="0.28" stop-color="#546AF1"/>
<stop offset="0.97" stop-color="#546AF1"/>
</linearGradient>
<linearGradient id="paint3_linear_317_1054" x1="117.884" y1="82.5396" x2="118.204" y2="94.8049" gradientUnits="userSpaceOnUse">
<stop stop-color="#FDB98C"/>
<stop offset="1" stop-color="#FFC354"/>
</linearGradient>
<linearGradient id="paint4_linear_317_1054" x1="146.31" y1="114.809" x2="146.634" y2="127.078" gradientUnits="userSpaceOnUse">
<stop stop-color="#FDB98C"/>
<stop offset="1" stop-color="#FFC354"/>
</linearGradient>
<linearGradient id="paint5_linear_317_1054" x1="146.31" y1="31.8636" x2="146.634" y2="44.1325" gradientUnits="userSpaceOnUse">
<stop stop-color="#FDB98C"/>
<stop offset="1" stop-color="#FFC354"/>
</linearGradient>
<linearGradient id="paint6_linear_317_1054" x1="95.438" y1="51.55" x2="128.477" y2="17.8657" gradientUnits="userSpaceOnUse">
<stop offset="0.28" stop-color="#546AF1"/>
<stop offset="0.97" stop-color="#546AF1"/>
</linearGradient>
<linearGradient id="paint7_linear_317_1054" x1="116.29" y1="25.0447" x2="149.329" y2="-8.63595" gradientUnits="userSpaceOnUse">
<stop offset="0.28" stop-color="#546AF1"/>
<stop offset="0.97" stop-color="#546AF1"/>
</linearGradient>
<clipPath id="clip0_317_1054">
<rect width="184.49" height="177.561" fill="white" transform="translate(0.551819 0.706543)"/>
</clipPath>
</defs>
</svg>
