<svg width="992" height="1099" viewBox="0 0 992 1099" fill="none" xmlns="http://www.w3.org/2000/svg">
<path d="M694.3 682.16H170.23V1003.92H694.3V682.16Z" stroke="#25314F" stroke-width="3.87" stroke-linecap="round" stroke-linejoin="round"/>
<path d="M694.3 682.16H170.23V1003.92H694.3V682.16Z" fill="#E7EBFF"/>
<path d="M694.3 682.16H170.23V1003.92H694.3V682.16Z" fill="url(#paint0_linear_17_2)"/>
<path d="M694.3 682.16H170.23V1003.92H694.3V682.16Z" fill="url(#paint1_linear_17_2)"/>
<path d="M694.3 682.16H170.23V1003.92H694.3V682.16Z" stroke="#25314F" stroke-width="3.87" stroke-linecap="round" stroke-linejoin="round"/>
<path d="M645.91 721.64H218.61V964.45H645.91V721.64Z" fill="#6F80EF" stroke="#25314F" stroke-width="3.87" stroke-linejoin="round"/>
<path d="M631.54 721.64V947.82H218.61V964.45H645.92V721.64H631.54Z" fill="#25314F"/>
<path d="M821.82 954.9L694.3 1003.92V682.16L821.82 633.14V954.9Z" fill="#E7EBFF"/>
<path d="M821.82 954.9L694.3 1003.92V682.16L821.82 633.14V954.9Z" fill="url(#paint2_linear_17_2)"/>
<path d="M821.82 954.9L694.3 1003.92V682.16L821.82 633.14V954.9Z" fill="url(#paint3_linear_17_2)"/>
<path d="M821.82 954.9L694.3 1003.92V682.16L821.82 633.14V954.9Z" stroke="#25314F" stroke-width="3.87" stroke-linecap="round" stroke-linejoin="round"/>
<path d="M297.75 633.14L170.23 682.16H694.3L821.82 633.14H297.75Z" fill="#E8EBFD"/>
<path d="M297.75 633.14L170.23 682.16H694.3L821.82 633.14H297.75Z" fill="url(#paint4_linear_17_2)"/>
<path d="M297.75 633.14L170.23 682.16H694.3L821.82 633.14H297.75Z" stroke="#25314F" stroke-width="3.87" stroke-linejoin="round"/>
<path d="M830.545 757.656C838.393 724.661 826.628 693.601 804.265 688.282C781.903 682.963 757.413 705.399 749.564 738.394C741.716 771.389 753.482 802.449 775.844 807.768C798.206 813.087 822.696 790.652 830.545 757.656Z" fill="#FFB7EC"/>
<path d="M830.545 757.656C838.393 724.661 826.628 693.601 804.265 688.282C781.903 682.963 757.413 705.399 749.564 738.394C741.716 771.389 753.482 802.449 775.844 807.768C798.206 813.087 822.696 790.652 830.545 757.656Z" fill="url(#paint5_linear_17_2)"/>
<path d="M830.545 757.656C838.393 724.661 826.628 693.601 804.265 688.282C781.903 682.963 757.413 705.399 749.564 738.394C741.716 771.389 753.482 802.449 775.844 807.768C798.206 813.087 822.696 790.652 830.545 757.656Z" stroke="#25314F" stroke-width="3.87" stroke-linejoin="round"/>
<path d="M331.07 515.5V642.69C331.07 654.83 395.99 664.67 476.07 664.67C556.15 664.67 621.07 654.83 621.07 642.69V515.5H331.07Z" fill="#FFFFCC" stroke="#25314F" stroke-width="3.87" stroke-linejoin="round"/>
<path d="M621.07 610.92H332.86V624.8H621.07V610.92Z" fill="#25314F"/>
<path d="M476.96 644.29C556.544 644.29 621.06 635.564 621.06 624.8C621.06 614.036 556.544 605.31 476.96 605.31C397.376 605.31 332.86 614.036 332.86 624.8C332.86 635.564 397.376 644.29 476.96 644.29Z" fill="#25314F"/>
<path d="M253.15 2L283.84 167.85L150.3 233L253.15 2Z" fill="#FFBEAA"/>
<path d="M253.15 2L283.84 167.85L150.3 233L253.15 2Z" stroke="#25314F" stroke-width="3.87" stroke-linejoin="round"/>
<path d="M253.15 2L74.74 167.85L150.3 233L253.15 2Z" fill="#FFB7EC"/>
<path d="M253.15 2L74.74 167.85L150.3 233L253.15 2Z" fill="url(#paint6_linear_17_2)"/>
<path d="M253.15 2L74.74 167.85L150.3 233L253.15 2Z" fill="url(#paint7_linear_17_2)"/>
<path d="M253.15 2L74.74 167.85L150.3 233L253.15 2Z" stroke="#25314F" stroke-width="3.87" stroke-linejoin="round"/>
<path d="M283.88 168.51L150.32 233.62L110.17 323.8L283.88 168.51Z" stroke="#25314F" stroke-width="3.87" stroke-linejoin="round"/>
<path d="M74.74 168.51L150.32 233.62L110.17 323.8L74.74 168.51Z" fill="#BEECD9"/>
<path d="M74.74 168.51L150.32 233.62L110.17 323.8L74.74 168.51Z" stroke="#25314F" stroke-width="3.87" stroke-linejoin="round"/>
<path d="M694.3 132.95H106.08V615.78H694.3V132.95Z" fill="#E7EBFF"/>
<path d="M694.3 132.95H106.08V615.78H694.3V132.95Z" fill="url(#paint8_linear_17_2)"/>
<path d="M694.3 132.95H106.08V615.78H694.3V132.95Z" fill="url(#paint9_linear_17_2)"/>
<path d="M694.3 132.95H106.08V615.78H694.3V132.95Z" fill="url(#paint10_linear_17_2)"/>
<path d="M694.3 132.95H106.08V615.78H694.3V132.95Z" stroke="#25314F" stroke-width="3.87" stroke-miterlimit="10"/>
<path d="M694.3 132.95H106.08V615.78H694.3V132.95Z" stroke="#25314F" stroke-width="3.87" stroke-linejoin="round"/>
<path d="M821.82 566.91L694.3 615.78V132.95L821.82 84.0701V566.91Z" fill="#E7EBFF"/>
<path d="M821.82 566.91L694.3 615.78V132.95L821.82 84.0701V566.91Z" fill="url(#paint11_linear_17_2)"/>
<path d="M821.82 566.91L694.3 615.78V132.95L821.82 84.0701V566.91Z" stroke="#25314F" stroke-width="3.87" stroke-linecap="round" stroke-linejoin="round"/>
<path d="M233.59 84.0701L106.08 132.95H694.3L821.82 84.0701H233.59Z" fill="#E7EBFF"/>
<path d="M233.59 84.0701L106.08 132.95H694.3L821.82 84.0701H233.59Z" fill="url(#paint12_linear_17_2)"/>
<path d="M233.59 84.0701L106.08 132.95H694.3L821.82 84.0701H233.59Z" stroke="#25314F" stroke-width="3.87" stroke-linecap="round" stroke-linejoin="round"/>
<path d="M900.9 351.226C917.028 283.425 892.852 219.601 846.903 208.671C800.953 197.742 750.63 243.845 734.503 311.646C718.375 379.447 742.551 443.271 788.5 454.201C834.449 465.131 884.773 419.027 900.9 351.226Z" fill="#FFB7EC"/>
<path d="M900.9 351.226C917.028 283.425 892.852 219.601 846.903 208.671C800.953 197.742 750.63 243.845 734.503 311.646C718.375 379.447 742.551 443.271 788.5 454.201C834.449 465.131 884.773 419.027 900.9 351.226Z" fill="url(#paint13_linear_17_2)"/>
<path d="M886.72 238.15C893 253.42 896.61 271.59 896.61 291.86C896.61 359.45 857.13 424.09 808.43 436.23C780.48 443.2 755.62 431.3 739.46 407.18C754.13 442.83 783.65 462.37 817.75 453.87C866.45 441.73 905.93 377.09 905.93 309.5C905.93 280.7 898.71 256.07 886.72 238.15Z" fill="#25314F"/>
<path d="M900.9 351.226C917.028 283.425 892.852 219.601 846.903 208.671C800.953 197.742 750.63 243.845 734.503 311.646C718.375 379.447 742.551 443.271 788.5 454.201C834.449 465.131 884.773 419.027 900.9 351.226Z" stroke="#25314F" stroke-width="3.87" stroke-linejoin="round"/>
<path d="M634.67 225.61H179.31V475.16H634.67V225.61Z" fill="white" stroke="#25314F" stroke-width="3.87" stroke-linejoin="round"/>
<path d="M286.76 374.36C303.472 374.36 317.02 360.812 317.02 344.1C317.02 327.388 303.472 313.84 286.76 313.84C270.048 313.84 256.5 327.388 256.5 344.1C256.5 360.812 270.048 374.36 286.76 374.36Z" fill="#25314F" stroke="#25314F" stroke-width="7.75" stroke-miterlimit="10"/>
<path d="M526.28 374.36C542.992 374.36 556.54 360.812 556.54 344.1C556.54 327.388 542.992 313.84 526.28 313.84C509.568 313.84 496.02 327.388 496.02 344.1C496.02 360.812 509.568 374.36 526.28 374.36Z" fill="#25314F" stroke="#25314F" stroke-width="7.75" stroke-miterlimit="10"/>
<path d="M360.7 344.1C360.7 344.1 406.99 399.15 459.74 344.1H360.7Z" fill="white"/>
<path d="M360.7 344.1C360.7 344.1 406.99 399.15 459.74 344.1" stroke="#25314F" stroke-width="3.87" stroke-miterlimit="10"/>
<path d="M655.69 187.18C661.246 187.18 665.75 182.676 665.75 177.12C665.75 171.564 661.246 167.06 655.69 167.06C650.134 167.06 645.63 171.564 645.63 177.12C645.63 182.676 650.134 187.18 655.69 187.18Z" fill="white" stroke="#25314F" stroke-width="3.87" stroke-linejoin="round"/>
<path d="M142.19 187.18C147.746 187.18 152.25 182.676 152.25 177.12C152.25 171.564 147.746 167.06 142.19 167.06C136.634 167.06 132.13 171.564 132.13 177.12C132.13 182.676 136.634 187.18 142.19 187.18Z" fill="white" stroke="#25314F" stroke-width="3.87" stroke-linejoin="round"/>
<path d="M655.69 589.08C661.246 589.08 665.75 584.576 665.75 579.02C665.75 573.464 661.246 568.96 655.69 568.96C650.134 568.96 645.63 573.464 645.63 579.02C645.63 584.576 650.134 589.08 655.69 589.08Z" fill="white" stroke="#25314F" stroke-width="3.87" stroke-linejoin="round"/>
<path d="M142.19 589.08C147.746 589.08 152.25 584.576 152.25 579.02C152.25 573.464 147.746 568.96 142.19 568.96C136.634 568.96 132.13 573.464 132.13 579.02C132.13 584.576 136.634 589.08 142.19 589.08Z" fill="white" stroke="#25314F" stroke-width="3.87" stroke-linejoin="round"/>
<path d="M958.54 55.8799L989.23 221.73L855.69 286.88L958.54 55.8799Z" fill="#E7EBFF"/>
<path d="M958.54 55.8799L989.23 221.73L855.69 286.88L958.54 55.8799Z" stroke="#25314F" stroke-width="3.87" stroke-linejoin="round"/>
<path d="M958.54 55.8799L780.13 221.73L855.69 286.88L958.54 55.8799Z" fill="#FFB7EC"/>
<path d="M958.54 55.8799L780.13 221.73L855.69 286.88L958.54 55.8799Z" fill="url(#paint14_linear_17_2)"/>
<path d="M958.54 55.8799L780.13 221.73L855.69 286.88L958.54 55.8799Z" fill="url(#paint15_linear_17_2)"/>
<path d="M958.54 55.8799L780.13 221.73L855.69 286.88L958.54 55.8799Z" stroke="#25314F" stroke-width="3.87" stroke-linejoin="round"/>
<path d="M989.27 222.39L855.71 287.5L815.56 377.68L989.27 222.39Z" fill="#FFB7EC"/>
<path d="M989.27 222.39L855.71 287.5L815.56 377.68L989.27 222.39Z" fill="url(#paint16_linear_17_2)"/>
<path d="M989.27 222.39L855.71 287.5L815.56 377.68L989.27 222.39Z" fill="url(#paint17_linear_17_2)"/>
<path d="M989.27 222.39L855.71 287.5L815.56 377.68L989.27 222.39Z" stroke="#25314F" stroke-width="3.87" stroke-linejoin="round"/>
<path d="M780.13 222.39L855.71 287.5L815.56 377.68L780.13 222.39Z" fill="#E7EBFF"/>
<path d="M780.13 222.39L855.71 287.5L815.56 377.68L780.13 222.39Z" stroke="#25314F" stroke-width="3.87" stroke-linejoin="round"/>
<path d="M253.45 838.99C219.43 840.54 194.02 835.11 175.74 822.33C165.2 814.97 164.99 809.9 164.92 808.23C164.73 803.7 166.87 798.06 170.23 792.27V711.87C163.99 712.27 157.81 714.49 152.6 718.75C147.33 723.07 101.12 762.34 102.97 810.56C103.62 827.69 110.62 852.47 140.23 873.15C167.22 892.02 200.76 901.26 242.45 901.26C246.97 901.26 251.58 901.15 256.29 900.93C273.39 900.14 286.62 885.64 285.84 868.54C285.06 851.44 270.73 838.17 253.45 838.99Z" fill="#BEECD9"/>
<path d="M253.45 838.99C219.43 840.54 194.02 835.11 175.74 822.33C165.2 814.97 164.99 809.9 164.92 808.23C164.73 803.7 166.87 798.06 170.23 792.27V711.87C163.99 712.27 157.81 714.49 152.6 718.75C147.33 723.07 101.12 762.34 102.97 810.56C103.62 827.69 110.62 852.47 140.23 873.15C167.22 892.02 200.76 901.26 242.45 901.26C246.97 901.26 251.58 901.15 256.29 900.93C273.39 900.14 286.62 885.64 285.84 868.54C285.06 851.44 270.73 838.17 253.45 838.99Z" fill="url(#paint18_linear_17_2)"/>
<path d="M253.45 838.99C219.43 840.54 194.02 835.11 175.74 822.33C165.2 814.97 164.99 809.9 164.92 808.23C164.73 803.7 166.87 798.06 170.23 792.27V711.87C163.99 712.27 157.81 714.49 152.6 718.75C147.33 723.07 101.12 762.34 102.97 810.56C103.62 827.69 110.62 852.47 140.23 873.15C167.22 892.02 200.76 901.26 242.45 901.26C246.97 901.26 251.58 901.15 256.29 900.93C273.39 900.14 286.62 885.64 285.84 868.54C285.06 851.44 270.73 838.17 253.45 838.99V838.99Z" stroke="#25314F" stroke-width="3.87" stroke-linejoin="round"/>
<path d="M132.98 738.27C132.98 738.27 159.76 736.11 170.23 764.7" stroke="#25314F" stroke-width="3.87" stroke-linejoin="round"/>
<path d="M110.9 772.45C110.9 772.45 147.08 766.69 164.92 808.23" stroke="#25314F" stroke-width="3.87" stroke-linejoin="round"/>
<path d="M175.75 822.32C175.75 822.32 125.55 798.8 112.12 843.04" stroke="#25314F" stroke-width="3.87" stroke-linejoin="round"/>
<path d="M194.4 831.94C194.4 831.94 143.93 834.76 151.61 880.3" stroke="#25314F" stroke-width="3.87" stroke-linejoin="round"/>
<path d="M225.15 838.49C225.15 838.49 189.88 850.29 209.4 899.08" stroke="#25314F" stroke-width="3.87" stroke-linejoin="round"/>
<path d="M261.11 893.73C256.4 893.94 251.79 894.06 247.27 894.06C205.58 894.06 172.04 884.82 145.05 865.95C115.44 845.27 108.44 820.49 107.79 803.36C107.02 783.22 114.66 764.69 124.17 749.57C112.57 765.8 102.08 787.1 102.98 810.56C103.63 827.69 110.63 852.47 140.24 873.15C167.23 892.02 200.77 901.26 242.46 901.26C246.98 901.26 251.59 901.15 256.3 900.93C267.92 900.4 277.63 893.46 282.49 883.75C277.15 889.55 269.61 893.34 261.11 893.73Z" fill="#25314F"/>
<path d="M286.76 917.5C316.335 917.5 340.31 893.525 340.31 863.95C340.31 834.375 316.335 810.4 286.76 810.4C257.185 810.4 233.21 834.375 233.21 863.95C233.21 893.525 257.185 917.5 286.76 917.5Z" fill="#FFFFCC"/>
<path d="M286.76 917.5C316.335 917.5 340.31 893.525 340.31 863.95C340.31 834.375 316.335 810.4 286.76 810.4C257.185 810.4 233.21 834.375 233.21 863.95C233.21 893.525 257.185 917.5 286.76 917.5Z" stroke="#25314F" stroke-width="3.87" stroke-linejoin="round"/>
<path d="M280.46 764.7V929.27C280.46 941.41 325.77 951.25 381.65 951.25C437.53 951.25 482.84 941.41 482.84 929.27V764.7H280.45H280.46Z" fill="white" stroke="#25314F" stroke-width="3.87" stroke-linejoin="round"/>
<path fill-rule="evenodd" clip-rule="evenodd" d="M421.57 862.12C432.27 841.26 432.23 822.49 421.38 811.64C416.07 806.33 408.59 803.52 399.76 803.52C390.93 803.52 381.05 806.26 370.9 811.45C366.85 809.38 362.59 807.62 358.19 806.21C352.47 804.42 347.02 803.52 341.99 803.52C333.23 803.52 325.77 806.33 320.44 811.64C315.13 816.96 312.32 824.44 312.32 833.25C312.32 842.06 315.06 851.95 320.26 862.13C318.17 866.21 316.42 870.47 315.02 874.84C310.05 890.71 311.97 904.11 320.44 912.59C325.76 917.9 333.21 920.71 341.99 920.71H342.05C347.57 920.63 353.02 919.71 358.21 918.01C362.57 916.61 366.83 914.85 370.91 912.76C381.1 917.95 391.04 920.69 399.77 920.69C408.5 920.69 416.09 917.88 421.38 912.58C429.85 904.12 431.78 890.72 426.81 874.82C425.4 870.45 423.65 866.18 421.57 862.12ZM389.77 865.83L394.8 862.96L376.27 833.84C386.92 841.71 396.19 851.37 403.12 862.08C398.98 868.53 394.14 874.52 388.69 879.93C385.05 883.59 381.06 886.87 376.92 889.97L392.48 868.86L389.78 865.83H389.77ZM331.78 822.96C334.07 820.67 337.5 819.52 342 819.52C345.38 819.52 349.22 820.19 353.41 821.5C353.8 821.62 354.17 821.75 354.55 821.87C345.55 828.75 337.56 836.75 330.69 845.76C327.24 835.61 327.56 827.17 331.78 822.96ZM353.42 902.73C349.23 904.05 345.39 904.71 342.02 904.71C337.52 904.71 334.07 903.55 331.79 901.26C327.81 897.28 327.27 889.39 330.31 879.63C330.43 879.25 330.55 878.88 330.68 878.5C334.11 882.98 337.85 887.23 341.84 891.21C345.81 895.2 350.06 898.94 354.55 902.37C354.18 902.5 353.8 902.62 353.43 902.73H353.42ZM353.15 879.88C347.72 874.48 342.9 868.51 338.77 862.1C345.87 851.17 355.06 841.64 365.54 833.9L347.04 862.96L352.07 865.83L349.37 868.86L364.85 889.87C360.74 886.79 356.77 883.53 353.13 879.88H353.15ZM410.08 901.26L409.66 901.68C407.37 903.71 404.07 904.74 399.84 904.74C396.12 904.74 391.87 903.93 387.3 902.37C391.78 898.96 396.05 895.22 400.04 891.22C404.03 887.24 407.76 882.98 411.18 878.49C414.62 888.62 414.3 897.04 410.08 901.25V901.26ZM411.2 845.76C407.77 841.26 404.03 837 400.03 833.02C396.07 829.03 391.81 825.3 387.32 821.86C391.9 820.3 396.16 819.49 399.86 819.49C404.37 819.49 407.82 820.66 410.11 822.95C414.33 827.17 414.64 835.6 411.2 845.75V845.76Z" fill="#25314F"/>
<path fill-rule="evenodd" clip-rule="evenodd" d="M418.64 814.39C408.53 804.28 390.09 805.47 370.89 815.84C368.02 817.38 368.23 823.72 370.95 825.38C385.86 834.61 398.42 847.19 407.63 862.11C409.28 864.85 415.69 864.92 417.19 862.11C416.83 861.42 416.5 860.8 416.1 860.15C416.47 860.8 416.83 861.46 417.19 862.11C427.54 842.93 428.75 824.5 418.64 814.39ZM397.27 835.76C391.79 830.24 385.77 825.27 379.32 820.91C386.76 817.48 393.84 815.63 399.84 815.63C405.21 815.63 409.71 817.1 412.83 820.22C419.45 826.84 418.66 839.66 412.14 853.74C407.77 847.28 402.79 841.26 397.27 835.76Z" fill="#FDC550"/>
<path fill-rule="evenodd" clip-rule="evenodd" d="M423.11 876.01C421.58 871.22 419.6 866.58 417.2 862.16C415.68 859.34 409.28 859.42 407.64 862.16C403.08 869.62 397.64 876.51 391.43 882.67C385.28 888.86 378.4 894.29 370.96 898.85C368.22 900.5 368.12 906.9 370.9 908.39C381.12 913.88 391.13 916.83 399.78 916.83C407.38 916.83 413.93 914.58 418.65 909.85C426.05 902.45 427.63 890.42 423.12 876.01H423.11ZM412.82 904.02C406.2 910.64 393.39 909.85 379.31 903.33C385.77 898.97 391.79 894 397.29 888.48C402.8 882.99 407.77 876.97 412.13 870.52C418.64 884.59 419.43 897.39 412.81 904H412.82V904.02Z" fill="#FD6893"/>
<path fill-rule="evenodd" clip-rule="evenodd" d="M370.89 815.84C366.47 813.43 361.83 811.45 357.03 809.93C342.61 805.42 330.61 806.99 323.19 814.4C318.46 819.13 316.21 825.68 316.21 833.27C316.21 841.92 319.14 851.93 324.65 862.15C326.15 864.89 332.54 864.81 334.19 862.08C343.42 847.15 356.01 834.58 370.96 825.38C373.66 823.74 373.71 817.35 370.9 815.84H370.89ZM329.72 853.74C323.2 839.65 322.41 826.85 329.03 820.22C334.14 815.1 343.21 814.24 354.57 817.8C357.29 818.66 359.95 819.69 362.54 820.89C349.62 829.67 338.49 840.81 329.72 853.73V853.74Z" fill="#5FC3A4"/>
<path fill-rule="evenodd" clip-rule="evenodd" d="M370.95 898.85C363.47 894.29 356.58 888.84 350.4 882.63C344.19 876.46 338.74 869.56 334.18 862.08C332.53 859.38 326.15 859.34 324.64 862.15C322.23 866.57 320.25 871.21 318.73 876.01C314.21 890.42 315.79 902.46 323.19 909.86C327.83 914.49 334.28 916.84 342 916.84C347.11 916.76 352.18 915.91 357.04 914.32C361.84 912.79 366.48 910.81 370.9 908.4C373.16 907.19 373.66 900.49 370.96 898.85H370.95ZM354.57 906.43C343.22 909.98 334.15 909.12 329.03 904C323.92 898.88 323.06 889.81 326.6 878.46C327.46 875.75 328.49 873.1 329.69 870.52C334.06 876.97 339.04 882.98 344.57 888.48C350.06 894.01 356.08 898.99 362.53 903.35C359.94 904.54 357.28 905.57 354.56 906.43H354.57Z" fill="#5666F4"/>
<path fill-rule="evenodd" clip-rule="evenodd" d="M352.49 861.61L370.92 832.66L389.35 861.61L370.92 872.14L352.49 861.61Z" fill="white"/>
<path fill-rule="evenodd" clip-rule="evenodd" d="M352.49 866.56L370.92 877.09L389.35 866.56L370.92 891.57L352.49 866.56Z" fill="white"/>
<path fill-rule="evenodd" clip-rule="evenodd" d="M379.32 820.91C376.45 822.24 373.65 823.73 370.95 825.38C368.23 823.72 365.42 822.22 362.53 820.89C365.23 819.06 368.02 817.38 370.89 815.83C373.7 817.34 376.51 819.03 379.32 820.91Z" fill="#5F9834"/>
<path fill-rule="evenodd" clip-rule="evenodd" d="M417.19 862.14C415.69 864.93 414 867.72 412.12 870.52C410.78 867.64 409.28 864.83 407.63 862.12C409.27 859.41 410.77 856.61 412.12 853.74C413.99 856.52 415.68 859.32 417.2 862.14H417.19Z" fill="#FD512E"/>
<path fill-rule="evenodd" clip-rule="evenodd" d="M379.32 903.31C378.74 903.7 378.16 904.08 377.58 904.46C375.37 905.88 373.14 907.2 370.91 908.38C368.13 906.89 365.34 905.21 362.55 903.33C365.44 902 368.25 900.5 370.97 898.84C373.67 900.48 376.45 901.97 379.31 903.31H379.32Z" fill="#55288E"/>
<path fill-rule="evenodd" clip-rule="evenodd" d="M334.18 862.08C332.52 864.81 331.02 867.62 329.69 870.52C327.81 867.73 326.13 864.95 324.64 862.16C326.19 859.27 327.88 856.47 329.72 853.75C331.05 856.61 332.54 859.39 334.19 862.08H334.18Z" fill="#204F9E"/>
<path d="M474.77 764.7V920.78C474.77 932.92 429.46 942.76 373.58 942.76C331.79 942.76 295.94 937.26 280.5 929.41C280.85 941.48 325.99 951.25 381.66 951.25C437.33 951.25 482.85 941.41 482.85 929.27V764.7H474.77Z" fill="#25314F"/>
<path d="M490.44 791.58C485.44 790.47 480.57 790.07 475.85 790.23C469.18 790.45 463.88 795.91 463.88 802.58C463.88 809.35 469.36 815.18 476.13 814.86C480.26 814.67 484.58 815.17 489.04 816.57C502.73 820.88 513.35 832.69 515.56 846.87C519.28 870.7 500.95 891.24 477.83 891.24C477.48 891.24 477.14 891.24 476.79 891.23C469.76 891.03 463.88 896.44 463.88 903.48V903.5C463.88 910.1 469.08 915.6 475.68 915.84C476.39 915.87 477.11 915.88 477.83 915.88C511.11 915.88 538.35 890 540.53 857.27C542.57 826.46 520.59 798.29 490.45 791.6L490.44 791.58Z" fill="white" stroke="#25314F" stroke-width="3.87" stroke-linejoin="round"/>
<path d="M381.65 786.68C437.536 786.68 482.84 776.839 482.84 764.7C482.84 752.561 437.536 742.72 381.65 742.72C325.764 742.72 280.46 752.561 280.46 764.7C280.46 776.839 325.764 786.68 381.65 786.68Z" fill="white" stroke="#25314F" stroke-width="3.87" stroke-linejoin="round"/>
<path d="M383.83 777.56C432.453 777.56 471.87 771.802 471.87 764.7C471.87 757.598 432.453 751.84 383.83 751.84C335.207 751.84 295.79 757.598 295.79 764.7C295.79 771.802 335.207 777.56 383.83 777.56Z" fill="#25314F"/>
<path d="M383.83 777.56C432.453 777.56 471.87 771.802 471.87 764.7C471.87 757.598 432.453 751.84 383.83 751.84C335.207 751.84 295.79 757.598 295.79 764.7C295.79 771.802 335.207 777.56 383.83 777.56Z" stroke="#25314F" stroke-width="3.87" stroke-linejoin="round"/>
<path d="M647.62 911.82C608.87 911.82 568.6 908.6 530.04 904.59C513.02 902.81 500.65 887.57 502.42 870.54C504.19 853.52 519.41 841.17 536.47 842.92C585.25 848 714.84 861.51 772.92 826.41C787.4 817.66 789.41 808.85 790.07 805.95C793.39 791.42 784.33 773.28 781.9 769.56C772.54 755.23 776.58 736.02 790.92 726.66C805.25 717.3 824.47 721.35 833.82 735.68C836.54 739.85 860.13 777.64 850.51 819.75C844.92 844.19 829.18 864.83 804.97 879.46C764.3 904.03 707.79 911.8 647.6 911.8L647.62 911.82Z" fill="#BEECD9"/>
<path d="M647.62 911.82C608.87 911.82 568.6 908.6 530.04 904.59C513.02 902.81 500.65 887.57 502.42 870.54C504.19 853.52 519.41 841.17 536.47 842.92C585.25 848 714.84 861.51 772.92 826.41C787.4 817.66 789.41 808.85 790.07 805.95C793.39 791.42 784.33 773.28 781.9 769.56C772.54 755.23 776.58 736.02 790.92 726.66C805.25 717.3 824.47 721.35 833.82 735.68C836.54 739.85 860.13 777.64 850.51 819.75C844.92 844.19 829.18 864.83 804.97 879.46C764.3 904.03 707.79 911.8 647.6 911.8L647.62 911.82Z" fill="url(#paint19_linear_17_2)"/>
<path d="M833.83 735.7C832.58 733.78 831.12 732.07 829.54 730.53C835.79 741.23 852.67 774.68 844.28 811.41C838.69 835.85 822.95 856.49 798.74 871.12C758.07 895.69 701.56 903.46 641.37 903.46C602.62 903.46 562.35 900.24 523.79 896.23C516.64 895.48 510.4 892.27 505.59 887.63C510.18 896.76 519.12 903.45 530.03 904.59C568.59 908.61 608.86 911.82 647.61 911.82C707.8 911.82 764.31 904.06 804.98 879.48C829.18 864.85 844.93 844.21 850.52 819.77C860.14 777.66 836.55 739.87 833.83 735.7Z" fill="#25314F"/>
<path d="M647.62 911.82C608.87 911.82 568.6 908.6 530.04 904.59C513.02 902.81 500.65 887.57 502.42 870.54C504.19 853.52 519.41 841.17 536.47 842.92C585.25 848 714.84 861.51 772.92 826.41C787.4 817.66 789.41 808.85 790.07 805.95C793.39 791.42 784.33 773.28 781.9 769.56C772.54 755.23 776.58 736.02 790.92 726.66C805.25 717.3 824.47 721.35 833.82 735.68C836.54 739.85 860.13 777.64 850.51 819.75C844.92 844.19 829.18 864.83 804.97 879.46C764.3 904.03 707.79 911.8 647.6 911.8L647.62 911.82Z" stroke="#25314F" stroke-width="3.87" stroke-linejoin="round"/>
<path d="M785.52 776.67C785.52 776.67 807.18 738.35 844.2 756.38" stroke="#25314F" stroke-width="3.87" stroke-miterlimit="10"/>
<path d="M790.08 805.96C790.08 805.96 831.27 778.6 849.89 822.33" stroke="#25314F" stroke-width="3.87" stroke-miterlimit="10"/>
<path d="M772.93 826.42C772.93 826.42 817.37 830.95 814.86 872.82" stroke="#25314F" stroke-width="3.87" stroke-miterlimit="10"/>
<path d="M745.26 838.28C745.26 838.28 783.07 854.05 765.94 896.81" stroke="#25314F" stroke-width="3.87" stroke-miterlimit="10"/>
<path d="M701.96 846.84C701.96 846.84 729.73 877.1 707.23 908.77" stroke="#25314F" stroke-width="3.87" stroke-linejoin="round"/>
<path d="M654.9 849.49C668.6 860.04 678.08 891.63 656.09 911.82" stroke="#25314F" stroke-width="3.87" stroke-linejoin="round"/>
<path d="M605.93 849.49C619.63 860.04 629.11 891.63 607.12 911.82" stroke="#25314F" stroke-width="3.87" stroke-linejoin="round"/>
<path d="M551 844.41C563 856.86 567.18 889.58 542.47 906.32" stroke="#25314F" stroke-width="3.87" stroke-linejoin="round"/>
<path d="M496.02 917.5C525.595 917.5 549.57 893.525 549.57 863.95C549.57 834.375 525.595 810.4 496.02 810.4C466.445 810.4 442.47 834.375 442.47 863.95C442.47 893.525 466.445 917.5 496.02 917.5Z" fill="#FFFFCC"/>
<path d="M526.92 820.26C536.53 829.94 542.47 843.26 542.47 857.97C542.47 887.54 518.5 911.52 488.92 911.52C477.4 911.52 466.76 907.85 458.03 901.66C467.73 911.43 481.17 917.49 496.03 917.49C525.6 917.49 549.58 893.52 549.58 863.94C549.58 845.89 540.62 829.95 526.93 820.25L526.92 820.26Z" fill="#25314F"/>
<path d="M496.02 917.5C525.595 917.5 549.57 893.525 549.57 863.95C549.57 834.375 525.595 810.4 496.02 810.4C466.445 810.4 442.47 834.375 442.47 863.95C442.47 893.525 466.445 917.5 496.02 917.5Z" stroke="#25314F" stroke-width="3.87" stroke-linejoin="round"/>
<path d="M547.49 1062.43C537.54 1062.43 527.76 1057.65 521.77 1048.78C512.19 1034.59 515.92 1015.32 530.1 1005.74L603.71 956.02C617.89 946.43 637.17 950.17 646.75 964.35C656.33 978.54 652.6 997.81 638.42 1007.39L564.81 1057.11C559.49 1060.7 553.46 1062.42 547.49 1062.42V1062.43Z" fill="#BEECD9"/>
<path d="M547.49 1062.43C537.54 1062.43 527.76 1057.65 521.77 1048.78C512.19 1034.59 515.92 1015.32 530.1 1005.74L603.71 956.02C617.89 946.43 637.17 950.17 646.75 964.35C656.33 978.54 652.6 997.81 638.42 1007.39L564.81 1057.11C559.49 1060.7 553.46 1062.42 547.49 1062.42V1062.43Z" fill="url(#paint20_linear_17_2)"/>
<path d="M547.49 1062.43C537.54 1062.43 527.76 1057.65 521.77 1048.78C512.19 1034.59 515.92 1015.32 530.1 1005.74L603.71 956.02C617.89 946.43 637.17 950.17 646.75 964.35C656.33 978.54 652.6 997.81 638.42 1007.39L564.81 1057.11C559.49 1060.7 553.46 1062.42 547.49 1062.42V1062.43Z" stroke="#25314F" stroke-width="3.87" stroke-linejoin="round"/>
<path d="M593.16 963.15C593.16 963.15 642.08 961.43 628.83 1013.87" stroke="#25314F" stroke-width="3.87" stroke-linejoin="round"/>
<path d="M565.29 981.22C565.29 981.22 614.21 979.5 600.96 1031.94" stroke="#25314F" stroke-width="3.87" stroke-linejoin="round"/>
<path d="M537.42 999.28C537.42 999.28 586.34 997.56 573.09 1050" stroke="#25314F" stroke-width="3.87" stroke-linejoin="round"/>
<path d="M646.75 964.36C645.63 962.7 644.35 961.21 642.99 959.85C651.96 973.96 648.19 992.71 634.25 1002.13L560.64 1051.85C555.32 1055.44 549.29 1057.16 543.32 1057.16C535.21 1057.16 527.25 1053.93 521.33 1047.96C521.5 1048.23 521.6 1048.52 521.78 1048.79C527.77 1057.65 537.54 1062.44 547.5 1062.44C553.47 1062.44 559.5 1060.72 564.82 1057.13L638.43 1007.41C652.61 997.83 656.34 978.56 646.76 964.37L646.75 964.36Z" fill="#25314F"/>
<path d="M544.31 1096.93H391.35L332.86 878.63H485.82L544.31 1096.93Z" fill="#FFB7EC"/>
<path d="M544.31 1096.93H391.35L332.86 878.63H485.82L544.31 1096.93Z" fill="url(#paint21_linear_17_2)"/>
<path d="M544.31 1096.93H391.35L332.86 878.63H485.82L544.31 1096.93Z" fill="url(#paint22_linear_17_2)"/>
<path d="M544.31 1096.93H391.35L332.86 878.63H485.82L544.31 1096.93Z" stroke="#25314F" stroke-width="3.87" stroke-linejoin="round"/>
<path d="M565.01 1096.93H541.34L482.84 878.63H506.52L565.01 1096.93Z" fill="#E7EBFF" stroke="#25314F" stroke-width="3.87" stroke-linejoin="round"/>
<path d="M417.89 917.49L481.5 985.72L443.35 1012.52L417.89 917.49Z" fill="#FFBEAA" stroke="#25314F" stroke-width="3.87" stroke-linejoin="round"/>
<path d="M417.89 917.49L390.82 985.72L443.35 1012.52L417.89 917.49Z" fill="#FFFFCC" stroke="#25314F" stroke-width="3.87" stroke-linejoin="round"/>
<path d="M485.69 1001.3L447.52 1028.08L457.46 1065.18L485.69 1001.3Z" fill="#FFFFCC" stroke="#25314F" stroke-width="3.87" stroke-linejoin="round"/>
<path d="M395 1001.3L447.52 1028.08L457.46 1065.18L395 1001.3Z" fill="#FFBEAA" stroke="#25314F" stroke-width="3.87" stroke-linejoin="round"/>
<path d="M216.63 1062.43C206.68 1062.43 196.9 1057.65 190.91 1048.78C181.33 1034.59 185.06 1015.32 199.24 1005.74L272.85 956.02C287.03 946.43 306.31 950.17 315.89 964.35C325.47 978.54 321.74 997.81 307.56 1007.39L233.95 1057.11C228.63 1060.7 222.6 1062.42 216.63 1062.42V1062.43Z" fill="#BEECD9"/>
<path d="M216.63 1062.43C206.68 1062.43 196.9 1057.65 190.91 1048.78C181.33 1034.59 185.06 1015.32 199.24 1005.74L272.85 956.02C287.03 946.43 306.31 950.17 315.89 964.35C325.47 978.54 321.74 997.81 307.56 1007.39L233.95 1057.11C228.63 1060.7 222.6 1062.42 216.63 1062.42V1062.43Z" fill="url(#paint23_linear_17_2)"/>
<path d="M216.63 1062.43C206.68 1062.43 196.9 1057.65 190.91 1048.78C181.33 1034.59 185.06 1015.32 199.24 1005.74L272.85 956.02C287.03 946.43 306.31 950.17 315.89 964.35C325.47 978.54 321.74 997.81 307.56 1007.39L233.95 1057.11C228.63 1060.7 222.6 1062.42 216.63 1062.42V1062.43Z" stroke="#25314F" stroke-width="3.87" stroke-linejoin="round"/>
<path d="M262.3 963.15C262.3 963.15 311.22 961.43 297.97 1013.87" stroke="#25314F" stroke-width="3.87" stroke-linejoin="round"/>
<path d="M234.43 981.22C234.43 981.22 283.35 979.5 270.1 1031.94" stroke="#25314F" stroke-width="3.87" stroke-linejoin="round"/>
<path d="M206.56 999.28C206.56 999.28 255.48 997.56 242.23 1050" stroke="#25314F" stroke-width="3.87" stroke-linejoin="round"/>
<path d="M315.89 964.36C314.77 962.7 313.49 961.21 312.13 959.85C321.1 973.96 317.33 992.71 303.39 1002.13L229.78 1051.85C224.46 1055.44 218.43 1057.16 212.46 1057.16C204.35 1057.16 196.39 1053.93 190.47 1047.96C190.64 1048.23 190.74 1048.52 190.92 1048.79C196.91 1057.65 206.68 1062.44 216.64 1062.44C222.61 1062.44 228.64 1060.72 233.96 1057.13L307.57 1007.41C321.75 997.83 325.48 978.56 315.9 964.37L315.89 964.36Z" fill="#25314F"/>
<path d="M213.45 1096.93H60.49L2 878.63H154.96L213.45 1096.93Z" fill="#FFB7EC"/>
<path d="M213.45 1096.93H60.49L2 878.63H154.96L213.45 1096.93Z" fill="url(#paint24_linear_17_2)"/>
<path d="M213.45 1096.93H60.49L2 878.63H154.96L213.45 1096.93Z" fill="url(#paint25_linear_17_2)"/>
<path d="M213.45 1096.93H60.49L2 878.63H154.96L213.45 1096.93Z" stroke="#25314F" stroke-width="3.87" stroke-linejoin="round"/>
<path d="M234.15 1096.93H210.48L151.99 878.63H175.66L234.15 1096.93Z" fill="#E7EBFF" stroke="#25314F" stroke-width="3.87" stroke-linejoin="round"/>
<path d="M87.03 917.49L150.64 985.72L112.49 1012.52L87.03 917.49Z" fill="#FFBEAA" stroke="#25314F" stroke-width="3.87" stroke-linejoin="round"/>
<path d="M87.03 917.49L59.96 985.72L112.49 1012.52L87.03 917.49Z" fill="#FFFFCC" stroke="#25314F" stroke-width="3.87" stroke-linejoin="round"/>
<path d="M154.83 1001.3L116.66 1028.08L126.6 1065.18L154.83 1001.3Z" fill="#FFFFCC" stroke="#25314F" stroke-width="3.87" stroke-linejoin="round"/>
<path d="M64.1399 1001.3L116.66 1028.08L126.6 1065.18L64.1399 1001.3Z" fill="#FFBEAA" stroke="#25314F" stroke-width="3.87" stroke-linejoin="round"/>
<defs>
<linearGradient id="paint0_linear_17_2" x1="635.695" y1="701.564" x2="586.683" y2="824.215" gradientUnits="userSpaceOnUse">
<stop stop-color="#6F80EF"/>
<stop offset="1" stop-color="#6F80EF" stop-opacity="0"/>
</linearGradient>
<linearGradient id="paint1_linear_17_2" x1="395.56" y1="914" x2="416.187" y2="803.232" gradientUnits="userSpaceOnUse">
<stop stop-color="#FFB7EC"/>
<stop offset="1" stop-color="#FFB7EC" stop-opacity="0"/>
</linearGradient>
<linearGradient id="paint2_linear_17_2" x1="807.56" y1="655.5" x2="758.06" y2="968.5" gradientUnits="userSpaceOnUse">
<stop stop-color="#6F80EF"/>
<stop offset="1" stop-color="#6F80EF" stop-opacity="0"/>
</linearGradient>
<linearGradient id="paint3_linear_17_2" x1="708.56" y1="968.5" x2="775.56" y2="746" gradientUnits="userSpaceOnUse">
<stop stop-color="#FFB7EC"/>
<stop offset="1" stop-color="#FFB7EC" stop-opacity="0"/>
</linearGradient>
<linearGradient id="paint4_linear_17_2" x1="781.06" y1="633" x2="496.025" y2="682.16" gradientUnits="userSpaceOnUse">
<stop stop-color="#5666F4"/>
<stop offset="1" stop-color="#5666F4" stop-opacity="0"/>
</linearGradient>
<linearGradient id="paint5_linear_17_2" x1="821.464" y1="692.074" x2="770.444" y2="782.884" gradientUnits="userSpaceOnUse">
<stop offset="0.02" stop-color="#FFCF50"/>
<stop offset="1" stop-color="#FFCF50" stop-opacity="0"/>
</linearGradient>
<linearGradient id="paint6_linear_17_2" x1="233.42" y1="37.1208" x2="114.855" y2="196.476" gradientUnits="userSpaceOnUse">
<stop stop-color="#FFBEAA"/>
<stop offset="1" stop-color="#FFBEAA" stop-opacity="0"/>
</linearGradient>
<linearGradient id="paint7_linear_17_2" x1="98.3623" y1="202.238" x2="175.449" y2="167.873" gradientUnits="userSpaceOnUse">
<stop offset="0.0001" stop-color="#FFFFCC"/>
<stop offset="1" stop-color="#FFFFCC" stop-opacity="0"/>
</linearGradient>
<linearGradient id="paint8_linear_17_2" x1="757.56" y1="48" x2="400.19" y2="615.78" gradientUnits="userSpaceOnUse">
<stop stop-color="#5666F4"/>
<stop offset="1" stop-color="#6E7BE8" stop-opacity="0"/>
</linearGradient>
<linearGradient id="paint9_linear_17_2" x1="588.06" y1="523.5" x2="400.06" y2="256.5" gradientUnits="userSpaceOnUse">
<stop stop-color="#FFB7EC"/>
<stop offset="1" stop-color="#FFB7EC" stop-opacity="0"/>
</linearGradient>
<linearGradient id="paint10_linear_17_2" x1="131.06" y1="603" x2="359.56" y2="346" gradientUnits="userSpaceOnUse">
<stop stop-color="#BEECD9"/>
<stop offset="1" stop-color="#BEECD9" stop-opacity="0"/>
</linearGradient>
<linearGradient id="paint11_linear_17_2" x1="708.56" y1="564.987" x2="835.218" y2="271.676" gradientUnits="userSpaceOnUse">
<stop stop-color="#FFB7EC"/>
<stop offset="1" stop-color="#FFB7EC" stop-opacity="0"/>
</linearGradient>
<linearGradient id="paint12_linear_17_2" x1="845.06" y1="187" x2="801.097" y2="308.63" gradientUnits="userSpaceOnUse">
<stop stop-color="#6F80EF"/>
<stop offset="1" stop-color="#6F80EF" stop-opacity="0"/>
</linearGradient>
<linearGradient id="paint13_linear_17_2" x1="900.872" y1="321.642" x2="746.082" y2="339.982" gradientUnits="userSpaceOnUse">
<stop offset="0.02" stop-color="#FFCF50"/>
<stop offset="1" stop-color="#FFCF50" stop-opacity="0"/>
</linearGradient>
<linearGradient id="paint14_linear_17_2" x1="780.06" y1="208" x2="932.56" y2="127.5" gradientUnits="userSpaceOnUse">
<stop stop-color="#BEECD9"/>
<stop offset="1" stop-color="#BEECD9" stop-opacity="0"/>
</linearGradient>
<linearGradient id="paint15_linear_17_2" x1="853.56" y1="274.5" x2="851.06" y2="222.5" gradientUnits="userSpaceOnUse">
<stop stop-color="#6E7BE8"/>
<stop offset="1" stop-color="#6E7BE8" stop-opacity="0"/>
</linearGradient>
<linearGradient id="paint16_linear_17_2" x1="970.06" y1="246" x2="902.415" y2="377.68" gradientUnits="userSpaceOnUse">
<stop stop-color="#FFBEAA"/>
<stop offset="1" stop-color="#FFBEAA" stop-opacity="0"/>
</linearGradient>
<linearGradient id="paint17_linear_17_2" x1="838.56" y1="357" x2="902.06" y2="316" gradientUnits="userSpaceOnUse">
<stop offset="0.0001" stop-color="#FFFFCC"/>
<stop offset="1" stop-color="#FFFFCC" stop-opacity="0"/>
</linearGradient>
<linearGradient id="paint18_linear_17_2" x1="227.83" y1="791.76" x2="167.19" y2="852.39" gradientUnits="userSpaceOnUse">
<stop offset="0.02" stop-color="#E7EBFF"/>
<stop offset="1" stop-color="#E7EBFF" stop-opacity="0"/>
</linearGradient>
<linearGradient id="paint19_linear_17_2" x1="637.22" y1="731.01" x2="708.77" y2="904.02" gradientUnits="userSpaceOnUse">
<stop offset="0.02" stop-color="#E7EBFF"/>
<stop offset="1" stop-color="#E7EBFF" stop-opacity="0"/>
</linearGradient>
<linearGradient id="paint20_linear_17_2" x1="565.37" y1="985.16" x2="598.16" y2="1022.32" gradientUnits="userSpaceOnUse">
<stop offset="0.02" stop-color="#E7EBFF"/>
<stop offset="1" stop-color="#E7EBFF" stop-opacity="0"/>
</linearGradient>
<linearGradient id="paint21_linear_17_2" x1="544.13" y1="1066.32" x2="439.01" y2="988.09" gradientUnits="userSpaceOnUse">
<stop offset="0.02" stop-color="#E7EBFF"/>
<stop offset="1" stop-color="#E7EBFF" stop-opacity="0"/>
</linearGradient>
<linearGradient id="paint22_linear_17_2" x1="339.57" y1="867.92" x2="432.47" y2="980.38" gradientUnits="userSpaceOnUse">
<stop offset="0.02" stop-color="#FFCF50"/>
<stop offset="1" stop-color="#FFCF50" stop-opacity="0"/>
</linearGradient>
<linearGradient id="paint23_linear_17_2" x1="234.51" y1="985.16" x2="267.3" y2="1022.32" gradientUnits="userSpaceOnUse">
<stop offset="0.02" stop-color="#E7EBFF"/>
<stop offset="1" stop-color="#E7EBFF" stop-opacity="0"/>
</linearGradient>
<linearGradient id="paint24_linear_17_2" x1="213.27" y1="1066.32" x2="108.15" y2="988.09" gradientUnits="userSpaceOnUse">
<stop offset="0.02" stop-color="#E7EBFF"/>
<stop offset="1" stop-color="#E7EBFF" stop-opacity="0"/>
</linearGradient>
<linearGradient id="paint25_linear_17_2" x1="8.71" y1="867.92" x2="101.61" y2="980.38" gradientUnits="userSpaceOnUse">
<stop offset="0.02" stop-color="#FFCF50"/>
<stop offset="1" stop-color="#FFCF50" stop-opacity="0"/>
</linearGradient>
</defs>
</svg>
