<svg width="134" height="105" viewBox="0 0 134 105" fill="none" xmlns="http://www.w3.org/2000/svg">
<g clip-path="url(#clip0_258_3757)">
<path d="M84.7575 6.72C84.4846 6.72 84.2118 6.741 83.9389 6.762C83.9179 6.762 83.8759 6.762 83.8339 6.762C83.792 6.762 83.75 6.783 83.708 6.783C83.666 6.783 83.645 6.783 83.6031 6.804C81.2732 7.056 79.0272 8.106 76.9702 9.849C71.093 12.558 65.1949 15.246 59.2967 17.955C54.7628 20.034 50.208 22.113 45.6742 24.213C44.9395 24.549 44.1209 24.843 43.4073 25.242C43.1554 25.179 42.7985 25.242 42.5467 25.242H23.5717C23.5507 25.242 23.5298 25.263 23.5088 25.263C18.723 25.116 15.2177 28.455 13.0138 32.466H11.5025C11.4815 32.466 11.4605 32.466 11.4605 32.487C5.4154 32.298 2.89661 39.963 2.89661 44.814C2.89661 49.665 5.4154 57.33 11.4605 57.141C11.4815 57.141 11.5025 57.141 11.5025 57.141H12.9718C13.5175 58.128 14.1472 59.073 14.8609 59.955C16.9809 62.559 20.0664 64.449 23.4878 64.344C23.5088 64.344 23.5298 64.365 23.5717 64.365H25.4818V76.923C25.4818 83.286 25.4608 89.649 25.4818 96.012C25.5028 100.842 29.1131 105.021 34.1087 105.021C38.9364 104.937 42.6936 101.073 42.7356 96.285C42.7566 94.248 42.7356 92.19 42.7356 90.153V64.386C42.9455 64.386 43.1554 64.365 43.3653 64.344C43.3863 64.344 43.3863 64.344 43.4073 64.323C43.4282 64.344 43.4492 64.344 43.4912 64.365C43.89 64.575 44.3308 64.764 44.7506 64.953C54.448 69.405 64.1663 73.857 73.8637 78.309C74.8922 78.771 75.8997 79.254 76.9282 79.716C78.9853 81.438 81.2102 82.488 83.5401 82.761C83.666 82.803 83.792 82.824 83.9179 82.803C84.1698 82.824 84.4427 82.824 84.6945 82.824C95.4414 82.824 104.194 65.751 104.194 44.772C104.194 23.793 95.5044 6.72 84.7575 6.72Z" fill="#182955"/>
<path d="M106.629 13.146L114.353 2.436L115.445 0.923996C115.928 0.251996 114.815 -0.399004 114.332 0.272996L106.587 10.983L105.496 12.495C105.013 13.188 106.125 13.818 106.629 13.146Z" fill="#182955"/>
<path d="M115.697 26.691L128.06 22.155L129.844 21.504C130.621 21.21 130.285 19.971 129.508 20.265L117.124 24.78L115.34 25.431C114.563 25.725 114.899 26.985 115.697 26.691Z" fill="#182955"/>
<path d="M118.299 44.94H133.37C134.21 44.94 134.21 43.638 133.37 43.638H118.299C117.46 43.638 117.46 44.94 118.299 44.94Z" fill="#182955"/>
<path d="M20.969 28.728H8.62689C8.54293 28.728 8.47996 28.728 8.396 28.728C4.11404 28.728 0.650696 33.957 0.650696 40.425C0.650696 46.893 4.11404 52.122 8.396 52.122C8.47996 52.122 8.54293 52.122 8.62689 52.122H20.99L20.969 28.728Z" fill="url(#paint0_linear_258_3757)"/>
<path d="M20.5282 28.266C21.0949 27.699 21.0949 28.161 20.843 28.077C20.7381 28.035 20.5492 28.077 20.4442 28.077H8.62688C8.27005 28.077 7.97619 28.371 7.97619 28.728L8.62688 28.077C2.53979 27.867 0 35.553 0 40.425C0 45.297 2.53979 52.983 8.62688 52.773L7.97619 52.122C7.97619 52.479 8.27005 52.773 8.62688 52.773H20.99C21.3468 52.773 21.6407 52.479 21.6407 52.122V31.647V28.728C21.6407 27.888 20.3393 27.888 20.3393 28.728V49.203V52.122L20.99 51.471H8.62688L9.27757 52.122C9.27757 51.786 8.98371 51.471 8.62688 51.471C3.31642 51.681 1.30138 44.583 1.30138 40.425C1.30138 36.267 3.31642 29.19 8.62688 29.379C8.98371 29.4 9.27757 29.064 9.27757 28.728L8.62688 29.379H19.4367C19.9195 29.379 21.0529 29.589 21.4308 29.19C22.0185 28.602 21.1159 27.678 20.5282 28.266Z" fill="#182955"/>
<path d="M23.2569 56.322H39.2303V92.001C39.2303 96.411 35.662 99.981 31.2541 99.981C26.8462 99.981 23.2779 96.411 23.2779 92.001L23.2569 56.322Z" fill="url(#paint1_linear_258_3757)"/>
<path d="M31.2541 99.351C26.8881 99.351 23.9286 95.697 23.9286 91.539V56.322L23.2779 56.973H39.2512L38.6006 56.322V90.993C38.6006 92.022 38.6006 93.009 38.3277 93.996C37.4041 97.188 34.5075 99.309 31.2541 99.351C30.4145 99.372 30.4145 100.653 31.2541 100.653C36.0818 100.569 39.839 96.705 39.8809 91.917C39.9019 89.88 39.8809 87.822 39.8809 85.785V56.343C39.8809 55.986 39.5871 55.692 39.2302 55.692H23.2569C22.9001 55.692 22.6062 55.986 22.6062 56.343V72.576C22.6062 78.939 22.5852 85.302 22.6062 91.665C22.6272 96.495 26.2375 100.674 31.2331 100.674C32.0727 100.653 32.0727 99.351 31.2541 99.351Z" fill="#182955"/>
<path d="M80.9583 3.02399L40.6785 21.504H20.6961V21.525C20.5701 21.525 20.4442 21.504 20.3392 21.504C13.4126 21.504 7.80823 29.967 7.80823 40.425C7.80823 50.883 13.4126 59.346 20.3392 59.346C20.4652 59.346 20.5911 59.346 20.6961 59.325V59.346H40.6785L80.9583 77.826V3.02399V3.02399Z" fill="url(#paint2_linear_258_3757)"/>
<path d="M80.6435 2.457L56.4 13.587L42.7775 19.845C41.9799 20.202 41.0983 20.517 40.3637 20.958C40.0279 21.168 40.9514 20.979 40.5106 20.874C40.2587 20.811 39.9019 20.874 39.65 20.874H20.6961C20.3393 20.874 20.0454 21.168 20.0454 21.525V21.546L20.6961 20.895C13.7904 20.622 9.48744 27.636 7.99716 33.537C6.15004 40.824 7.11558 49.665 11.9853 55.608C14.1262 58.233 17.2327 60.123 20.6961 59.997L20.0454 59.346V59.367C20.0454 59.724 20.3393 60.018 20.6961 60.018H38.3067C38.9993 60.018 39.818 60.144 40.5106 60.018C40.8465 59.955 40.1328 59.787 40.6366 60.039C41.0354 60.249 41.4762 60.438 41.896 60.627L71.0091 73.983L80.6435 78.414C81.0842 78.624 81.609 78.393 81.609 77.847V6.09C81.609 5.124 81.6929 4.116 81.609 3.15C81.588 3.003 81.672 2.835 81.3571 2.814C80.7904 2.772 80.3076 3.234 80.3076 3.801V76.692C80.3076 76.986 80.2237 77.427 80.3076 77.7C80.3076 77.742 80.3076 77.784 80.3076 77.826L81.2732 77.259L57.0507 66.129L43.3233 59.829C42.5676 59.472 41.791 59.031 40.9934 58.758C40.5526 58.611 40.0908 58.674 39.65 58.674H20.6961L21.3468 59.325V59.304C21.3468 58.968 21.0529 58.653 20.6961 58.653C14.2732 58.905 10.453 52.059 9.1726 46.641C7.57736 39.942 8.41696 31.773 12.8249 26.25C14.7559 23.814 17.5056 22.008 20.6961 22.134C21.0529 22.155 21.3468 21.819 21.3468 21.483V21.462L20.6961 22.113H34.5915C36.5435 22.113 38.6005 22.302 40.5526 22.113C40.7625 22.092 41.1613 21.945 41.0983 21.966C40.9304 22.029 41.1613 21.945 41.2033 21.924C41.6021 21.735 42.0009 21.567 42.3787 21.378L71.4918 8.022L81.2941 3.528C82.0498 3.234 81.3991 2.121 80.6435 2.457Z" fill="#182955"/>
<path d="M100.71 40.425C100.71 61.089 92.2719 77.826 81.8609 77.826C73.3809 77.826 66.1814 66.675 63.8305 51.324C63.3058 47.88 63.0119 44.226 63.0119 40.425C63.0119 36.624 63.3058 32.97 63.8305 29.526C66.1814 14.196 73.3809 3.02399 81.8609 3.02399C92.2509 3.02399 100.71 19.782 100.71 40.425Z" fill="url(#paint3_linear_258_3757)"/>
<path d="M81.8609 78.477C73.171 78.477 65.6776 67.599 63.2008 51.429V51.366C62.6551 47.838 62.3822 44.163 62.3822 40.404C62.3822 36.645 62.6551 32.991 63.2008 29.442V29.379C65.6776 13.209 73.192 2.33099 81.8819 2.33099C92.6288 2.33099 101.382 19.404 101.382 40.383C101.382 61.362 92.6078 78.477 81.8609 78.477ZM64.4602 51.282C66.8111 66.528 73.9477 77.175 81.8399 77.175C91.8731 77.175 100.038 60.69 100.038 40.425C100.038 20.16 91.8941 3.67499 81.8609 3.67499C73.9687 3.67499 66.8321 14.322 64.4602 29.568V29.631C63.9355 33.117 63.6626 36.75 63.6626 40.446C63.6626 44.142 63.9355 47.775 64.4812 51.24L64.4602 51.282Z" fill="#182955"/>
<path d="M74.5564 29.505V51.324H63.8305C63.3058 47.88 63.0119 44.226 63.0119 40.425C63.0119 36.624 63.3058 32.97 63.8305 29.526L74.5564 29.505Z" fill="url(#paint4_linear_258_3757)"/>
<path d="M73.9057 29.505V51.324L74.5564 50.673H63.8305L64.4602 51.156C63.8935 47.46 63.6416 43.743 63.6626 40.005C63.6626 38.22 63.7465 36.414 63.8935 34.629C63.9774 33.705 64.0614 32.76 64.1663 31.836C64.2503 31.08 64.4812 30.261 64.4812 29.505L63.8305 30.156H74.5774C75.417 30.156 75.417 28.854 74.5774 28.854H63.8305C63.4737 28.854 63.1798 29.148 63.1798 29.505C63.1798 30.261 62.9489 31.08 62.865 31.836C62.76 32.76 62.6551 33.705 62.5921 34.629C62.4452 36.561 62.3612 38.493 62.3612 40.425C62.3612 44.142 62.6551 47.838 63.2008 51.492C63.2428 51.765 63.5576 51.975 63.8305 51.975H74.5564C74.9132 51.975 75.2071 51.681 75.2071 51.324V29.505C75.2071 28.686 73.9057 28.686 73.9057 29.505Z" fill="#182955"/>
<path d="M74.5564 51.345C77.5936 51.345 80.0558 46.456 80.0558 40.425C80.0558 34.3941 77.5936 29.505 74.5564 29.505C71.5192 29.505 69.057 34.3941 69.057 40.425C69.057 46.456 71.5192 51.345 74.5564 51.345Z" fill="url(#paint5_linear_258_3757)"/>
<path d="M74.5564 50.694C71.5968 50.589 70.4004 46.2 70.0016 43.911C69.3509 40.257 69.5818 35.973 71.4289 32.676C72.0166 31.626 72.8982 30.429 74.1576 30.198C75.396 29.967 76.4455 30.849 77.1381 31.773C79.2791 34.65 79.636 38.85 79.3421 42.294C79.1742 44.268 78.7124 46.305 77.7678 48.048C77.0962 49.287 76.0677 50.631 74.5564 50.694C73.7168 50.715 73.7168 52.017 74.5564 51.996C78.1667 51.87 79.7829 47.376 80.3286 44.436C81.1262 40.236 80.8744 35.007 78.3975 31.353C76.6764 28.812 73.6748 27.993 71.4289 30.45C68.5952 33.579 68.1125 38.703 68.5323 42.693C68.8891 46.011 70.3164 51.87 74.5564 52.017C75.375 52.017 75.375 50.715 74.5564 50.694Z" fill="#182955"/>
<path d="M128.753 67.788L116.222 63.714L114.416 63.126C113.619 62.874 113.283 64.113 114.081 64.386L126.612 68.46L128.417 69.048C129.214 69.3 129.55 68.04 128.753 67.788Z" fill="#182955"/>
<path d="M105.496 78.981L113.22 89.691L114.311 91.203C114.794 91.875 115.928 91.224 115.424 90.552L107.7 79.842L106.608 78.33C106.125 77.658 105.013 78.309 105.496 78.981Z" fill="#182955"/>
</g>
<defs>
<linearGradient id="paint0_linear_258_3757" x1="10.814" y1="28.7301" x2="10.814" y2="52.1241" gradientUnits="userSpaceOnUse">
<stop stop-color="#A7E9D2"/>
<stop offset="1" stop-color="#A8EAD2"/>
</linearGradient>
<linearGradient id="paint1_linear_258_3757" x1="31.2446" y1="56.3304" x2="31.2446" y2="100.004" gradientUnits="userSpaceOnUse">
<stop stop-color="#A7E9D2"/>
<stop offset="1" stop-color="#A8EAD2"/>
</linearGradient>
<linearGradient id="paint2_linear_258_3757" x1="18.4785" y1="77.2347" x2="73.9935" y2="26.9997" gradientUnits="userSpaceOnUse">
<stop stop-color="#546AF2"/>
<stop offset="1" stop-color="#A8EAD2"/>
</linearGradient>
<linearGradient id="paint3_linear_258_3757" x1="63.0035" y1="40.4313" x2="100.701" y2="40.4313" gradientUnits="userSpaceOnUse">
<stop stop-color="#E6E8FD"/>
<stop offset="1" stop-color="#E3E8FD"/>
</linearGradient>
<linearGradient id="paint4_linear_258_3757" x1="68.7799" y1="29.5134" x2="68.7799" y2="51.3345" gradientUnits="userSpaceOnUse">
<stop stop-color="#FDB890"/>
<stop offset="1" stop-color="#FDC25D"/>
</linearGradient>
<linearGradient id="paint5_linear_258_3757" x1="74.5522" y1="29.5856" x2="74.5522" y2="51.4088" gradientUnits="userSpaceOnUse">
<stop stop-color="#FDB890"/>
<stop offset="1" stop-color="#FDC25D"/>
</linearGradient>
<clipPath id="clip0_258_3757">
<rect width="134" height="105" fill="white"/>
</clipPath>
</defs>
</svg>
