<svg width="34" height="36" viewBox="0 0 34 36" fill="none" xmlns="http://www.w3.org/2000/svg">
<path d="M6.68889 35H27.3111C29.3024 35 30.2981 35 31.0587 34.782C31.7276 34.5903 32.2716 34.2843 32.6124 33.908C33 33.4802 33 32.9201 33 31.8V22.2C33 21.0799 33 20.5198 32.6124 20.092C32.2716 19.7157 31.7276 19.4097 31.0587 19.218C30.2981 19 29.3024 19 27.3111 19H6.68889C4.6976 19 3.70194 19 2.94137 19.218C2.27234 19.4097 1.72841 19.7157 1.38754 20.092C1 20.5198 1 21.0799 1 22.2V31.8C1 32.9201 1 33.4802 1.38754 33.908C1.72841 34.2843 2.27234 34.5903 2.94137 34.782C3.70194 35 4.69758 35 6.68889 35Z" stroke="black" stroke-width="2" stroke-linecap="round" stroke-linejoin="round"/>
<path d="M11.2 15H22.8C23.9201 15 24.4802 15 24.908 14.8092C25.2843 14.6415 25.5903 14.3738 25.782 14.0445C26 13.6702 26 13.1801 26 12.2V3.8C26 2.8199 26 2.32986 25.782 1.95552C25.5903 1.62623 25.2843 1.35851 24.908 1.19074C24.4802 1 23.9201 1 22.8 1H11.2C10.0799 1 9.51984 1 9.09202 1.19074C8.71569 1.35851 8.40973 1.62623 8.21799 1.95552C8 2.32986 8 2.8199 8 3.8V12.2C8 13.1801 8 13.6702 8.21799 14.0445C8.40973 14.3738 8.71569 14.6415 9.09202 14.8092C9.51984 15 10.0799 15 11.2 15Z" stroke="black" stroke-width="2" stroke-linecap="round" stroke-linejoin="round"/>
</svg>
